<?xml version="1.0" encoding="UTF-8" standalone="no"?>
<svg
   width="64"
   height="64"
   viewBox="0 0 64 64"
   version="1.1"
   id="svg79"
   sodipodi:docname="hero.svg"
   inkscape:version="1.2.2 (b0a8486541, 2022-12-01)"
   xmlns:inkscape="http://www.inkscape.org/namespaces/inkscape"
   xmlns:sodipodi="http://sodipodi.sourceforge.net/DTD/sodipodi-0.dtd"
   xmlns:xlink="http://www.w3.org/1999/xlink"
   xmlns="http://www.w3.org/2000/svg"
   xmlns:svg="http://www.w3.org/2000/svg">
  <sodipodi:namedview
     id="namedview81"
     pagecolor="#505050"
     bordercolor="#eeeeee"
     borderopacity="1"
     inkscape:showpageshadow="0"
     inkscape:pageopacity="0"
     inkscape:pagecheckerboard="0"
     inkscape:deskcolor="#d1d1d1"
     showgrid="false"
     inkscape:zoom="5.2149125"
     inkscape:cx="53.116903"
     inkscape:cy="12.176618"
     inkscape:window-width="2560"
     inkscape:window-height="1403"
     inkscape:window-x="0"
     inkscape:window-y="0"
     inkscape:window-maximized="1"
     inkscape:current-layer="svg79" />
  <defs
     id="defs35">
    <!-- Palettes -->
    <linearGradient
       id="skin"
       x1="0%"
       y1="0%"
       x2="0%"
       y2="100%">
      <stop
         offset="0%"
         stop-color="#f5d7a7"
         id="stop2" />
      <stop
         offset="60%"
         stop-color="#e8be83"
         id="stop4" />
      <stop
         offset="100%"
         stop-color="#d9a868"
         id="stop6" />
    </linearGradient>
    <linearGradient
       id="hair"
       x1="17.967023"
       y1="12.025831"
       x2="17.967023"
       y2="25.144382"
       gradientTransform="matrix(1.3983525,0,0,0.71512728,1.8052037,4.8000004)"
       gradientUnits="userSpaceOnUse">
      <stop
         offset="0%"
         stop-color="#ffe46b"
         id="stop9" />
      <stop
         offset="65%"
         stop-color="#e3b91c"
         id="stop11" />
      <stop
         offset="100%"
         stop-color="#b78f0e"
         id="stop13" />
    </linearGradient>
    <linearGradient
       id="robe"
       x1="23.655334"
       y1="27.978574"
       x2="23.655334"
       y2="52.001063"
       gradientTransform="matrix(0.95327342,0,0,1.049017,1.8052037,4.8000004)"
       gradientUnits="userSpaceOnUse">
      <stop
         offset="0%"
         stop-color="#8ec5ff"
         id="stop16" />
      <stop
         offset="65%"
         stop-color="#5c90d0"
         id="stop18" />
      <stop
         offset="100%"
         stop-color="#3a66a8"
         id="stop20" />
    </linearGradient>
    <linearGradient
       id="cape"
       x1="19.670059"
       y1="27.775598"
       x2="19.670059"
       y2="56.957243"
       gradientTransform="matrix(0.98669975,0,0,1.0134795,1.8052037,4.8000004)"
       gradientUnits="userSpaceOnUse">
      <stop
         offset="0%"
         stop-color="#9b2a2a"
         id="stop23" />
      <stop
         offset="70%"
         stop-color="#6f1e1e"
         id="stop25" />
      <stop
         offset="100%"
         stop-color="#4c1414"
         id="stop27" />
    </linearGradient>
    <linearGradient
       id="boot"
       x1="0%"
       y1="0%"
       x2="0%"
       y2="100%">
      <stop
         offset="0%"
         stop-color="#7b4b1d"
         id="stop30" />
      <stop
         offset="100%"
         stop-color="#4e2f12"
         id="stop32" />
    </linearGradient>
    <linearGradient
       inkscape:collect="always"
       xlink:href="#boot"
       id="linearGradient389"
       x1="14.579167"
       y1="96.478209"
       x2="14.579167"
       y2="103.19123"
       gradientTransform="scale(1.7212883,0.58096021)"
       gradientUnits="userSpaceOnUse" />
    <linearGradient
       inkscape:collect="always"
       xlink:href="#boot"
       id="linearGradient391"
       x1="18.878273"
       y1="96.478209"
       x2="18.878273"
       y2="103.19123"
       gradientTransform="scale(1.7212883,0.58096021)"
       gradientUnits="userSpaceOnUse" />
    <linearGradient
       inkscape:collect="always"
       xlink:href="#skin"
       id="linearGradient476"
       x1="24.350001"
       y1="8.9499996"
       x2="24.350001"
       y2="28.05"
       gradientUnits="userSpaceOnUse" />
    <linearGradient
       inkscape:collect="always"
       xlink:href="#skin"
       id="linearGradient478"
       x1="21.4"
       y1="35.200001"
       x2="21.4"
       y2="41.200001"
       gradientUnits="userSpaceOnUse" />
    <linearGradient
       inkscape:collect="always"
       xlink:href="#skin"
       id="linearGradient480"
       x1="40.299999"
       y1="35.200001"
       x2="40.299999"
       y2="41.200001"
       gradientUnits="userSpaceOnUse" />
    <linearGradient
       inkscape:collect="always"
       xlink:href="#cape"
       id="linearGradient590"
       gradientUnits="userSpaceOnUse"
       gradientTransform="matrix(0.98669975,0,0,1.0134795,4.9808984e-6,-6.457077e-8)"
       x1="19.670059"
       y1="27.775598"
       x2="19.670059"
       y2="56.957243" />
    <linearGradient
       inkscape:collect="always"
       xlink:href="#skin"
       id="linearGradient594"
       gradientUnits="userSpaceOnUse"
       x1="24.350001"
       y1="8.9499996"
       x2="24.350001"
       y2="28.05"
       gradientTransform="translate(4.9808984e-6)" />
    <linearGradient
       inkscape:collect="always"
       xlink:href="#hair"
       id="linearGradient596"
       gradientUnits="userSpaceOnUse"
       gradientTransform="matrix(1.3983525,0,0,0.71512728,4.9808984e-6,-6.457077e-8)"
       x1="17.967023"
       y1="12.025831"
       x2="17.967023"
       y2="25.144382" />
    <linearGradient
       inkscape:collect="always"
       xlink:href="#boot"
       id="linearGradient602"
       gradientUnits="userSpaceOnUse"
       gradientTransform="matrix(1.7212883,0,0,0.58096021,4.9808984e-6,-6.457077e-8)"
       x1="14.579167"
       y1="96.478209"
       x2="14.579167"
       y2="103.19123" />
    <linearGradient
       inkscape:collect="always"
       xlink:href="#boot"
       id="linearGradient604"
       gradientUnits="userSpaceOnUse"
       gradientTransform="matrix(1.7212883,0,0,0.58096021,4.9808984e-6,-6.457077e-8)"
       x1="18.878273"
       y1="96.478209"
       x2="18.878273"
       y2="103.19123" />
    <linearGradient
       inkscape:collect="always"
       xlink:href="#cape"
       id="linearGradient1323"
       gradientUnits="userSpaceOnUse"
       gradientTransform="scale(0.98669975,1.0134795)"
       x1="19.670059"
       y1="27.775598"
       x2="19.670059"
       y2="56.957243" />
    <linearGradient
       inkscape:collect="always"
       xlink:href="#robe"
       id="linearGradient1325"
       gradientUnits="userSpaceOnUse"
       gradientTransform="scale(0.95327345,1.049017)"
       x1="23.655334"
       y1="27.978574"
       x2="23.655334"
       y2="52.001063" />
    <linearGradient
       inkscape:collect="always"
       xlink:href="#skin"
       id="linearGradient1327"
       gradientUnits="userSpaceOnUse"
       x1="24.350001"
       y1="8.9499996"
       x2="24.350001"
       y2="28.05" />
    <linearGradient
       inkscape:collect="always"
       xlink:href="#hair"
       id="linearGradient1329"
       gradientUnits="userSpaceOnUse"
       gradientTransform="scale(1.3983525,0.71512728)"
       x1="17.967023"
       y1="12.025831"
       x2="17.967023"
       y2="25.144382" />
    <linearGradient
       inkscape:collect="always"
       xlink:href="#skin"
       id="linearGradient1333"
       gradientUnits="userSpaceOnUse"
       x1="40.299999"
       y1="35.200001"
       x2="40.299999"
       y2="41.200001" />
    <linearGradient
       inkscape:collect="always"
       xlink:href="#boot"
       id="linearGradient1335"
       gradientUnits="userSpaceOnUse"
       gradientTransform="matrix(1.7212883,0,0,0.58096021,2.2e-6,0)"
       x1="14.579167"
       y1="96.478209"
       x2="14.579167"
       y2="103.19123" />
    <linearGradient
       inkscape:collect="always"
       xlink:href="#boot"
       id="linearGradient1337"
       gradientUnits="userSpaceOnUse"
       gradientTransform="scale(1.7212883,0.58096021)"
       x1="18.878273"
       y1="96.478209"
       x2="18.878273"
       y2="103.19123" />
    <linearGradient
       inkscape:collect="always"
       xlink:href="#cape"
       id="linearGradient6852"
       gradientUnits="userSpaceOnUse"
       gradientTransform="scale(0.98669975,1.0134795)"
       x1="19.670059"
       y1="27.775598"
       x2="19.670059"
       y2="56.957243" />
    <linearGradient
       inkscape:collect="always"
       xlink:href="#robe"
       id="linearGradient6854"
       gradientUnits="userSpaceOnUse"
       gradientTransform="scale(0.95327342,1.049017)"
       x1="23.655334"
       y1="27.978574"
       x2="23.655334"
       y2="52.001063" />
    <linearGradient
       inkscape:collect="always"
       xlink:href="#hair"
       id="linearGradient6856"
       gradientUnits="userSpaceOnUse"
       gradientTransform="scale(1.3983525,0.71512728)"
       x1="17.967023"
       y1="12.025831"
       x2="17.967023"
       y2="25.144382" />
    <linearGradient
       inkscape:collect="always"
       xlink:href="#cape"
       id="linearGradient12567"
       gradientUnits="userSpaceOnUse"
       gradientTransform="scale(0.98669975,1.0134795)"
       x1="19.670059"
       y1="27.775598"
       x2="19.670059"
       y2="56.957243" />
    <linearGradient
       inkscape:collect="always"
       xlink:href="#boot"
       id="linearGradient12569"
       gradientUnits="userSpaceOnUse"
       gradientTransform="scale(1.7212883,0.58096021)"
       x1="18.878273"
       y1="96.478209"
       x2="18.878273"
       y2="103.19123" />
    <linearGradient
       inkscape:collect="always"
       xlink:href="#boot"
       id="linearGradient12571"
       gradientUnits="userSpaceOnUse"
       gradientTransform="scale(1.7212883,0.58096021)"
       x1="14.579167"
       y1="96.478209"
       x2="14.579167"
       y2="103.19123" />
    <linearGradient
       inkscape:collect="always"
       xlink:href="#skin"
       id="linearGradient12573"
       gradientUnits="userSpaceOnUse"
       x1="40.299999"
       y1="35.200001"
       x2="40.299999"
       y2="41.200001"
       gradientTransform="scale(-1,1)" />
    <linearGradient
       inkscape:collect="always"
       xlink:href="#hair"
       id="linearGradient12575"
       gradientUnits="userSpaceOnUse"
       gradientTransform="scale(1.3983525,0.71512728)"
       x1="17.967023"
       y1="12.025831"
       x2="17.967023"
       y2="25.144382" />
    <linearGradient
       inkscape:collect="always"
       xlink:href="#skin"
       id="linearGradient12577"
       gradientUnits="userSpaceOnUse"
       x1="24.350001"
       y1="8.9499996"
       x2="24.350001"
       y2="28.05" />
    <linearGradient
       inkscape:collect="always"
       xlink:href="#robe"
       id="linearGradient12579"
       gradientUnits="userSpaceOnUse"
       gradientTransform="scale(0.95327345,1.049017)"
       x1="23.655334"
       y1="27.978574"
       x2="23.655334"
       y2="52.001063" />
  </defs>
  <rect
     style="fill:#888a85;stroke-width:20.0428;stroke-linejoin:round"
     id="rect544"
     width="64"
     height="64"
     x="128"
     y="0" />
  <rect
     style="fill:#888a85;stroke-width:20.0428;stroke-linejoin:round"
     id="rect445"
     width="64"
     height="64"
     x="0"
     y="0" />
  <!-- Ground shadow -->
  <!-- Cape (behind) -->
  <!-- Body/Torso -->
  <!-- Belt -->
  <!-- Head -->
  <!-- Hair -->
  <!-- Eyes -->
  <!-- Mouth -->
  <!-- Arms -->
  <!-- Legs -->
  <!-- Boots -->
  <!-- Subtle face highlight and shadow -->
  <ellipse
     cx="32.094799"
     cy="57.400002"
     rx="10.6"
     ry="2.8"
     fill="#000000"
     opacity="0.18"
     id="ellipse37" />
  <path
     d="m 18.694796,25.7 c -1,9.5 -1.5,18.5 2,25 4.3,2.5 18.5,2.5 22.8,0 3.4,-6.3 2.8,-15.3 1.6,-24.5 l -8.4,-2.5 -9.3,0.2 z"
     fill="url(#cape)"
     stroke="#2a2a2a"
     stroke-width="0.7"
     stroke-linejoin="round"
     id="path39"
     style="fill:url(#linearGradient6852)" />
  <path
     d="m 24.773545,24.968411 h 14.842502 a 3.6103384,3.1033963 0 0 1 3.610338,3.103396 v 12.241174 a 6.5186665,5.6033544 0 0 1 -6.518666,5.603354 H 27.681873 A 6.5186665,5.6033544 0 0 1 21.163207,40.312981 V 28.071807 a 3.6103384,3.1033963 0 0 1 3.610338,-3.103396 z"
     fill="url(#robe)"
     stroke="#1d3557"
     stroke-width="0.836821"
     id="path41"
     style="fill:url(#linearGradient6854)" />
  <rect
     x="20.763203"
     y="36.400002"
     width="22.463184"
     height="3.0999999"
     rx="1.3614051"
     fill="#603813"
     stroke="#3d2610"
     stroke-width="0.639079"
     id="rect43" />
  <rect
     x="30.294794"
     y="36.100002"
     width="3.4000001"
     height="3.7"
     rx="0.60000002"
     fill="#e0c56c"
     stroke="#8a6f2e"
     stroke-width="0.5"
     id="rect45" />
  <circle
     cx="32.094799"
     cy="13.7"
     r="9.1000004"
     fill="url(#skin)"
     stroke="#915f2c"
     stroke-width="0.9"
     id="circle47"
     style="fill:url(#linearGradient476)" />
  <path
     d="m 23.794796,12.4 c 1.2,-5.0000004 5.1,-8.2000004 8.4,-8.2000004 3.9,0 7.7,2.8 9,7.2000004 -2.8,1.8 -6.8,1.2 -9.8,1.2 -2.5,0 -5.4,0.5 -7.6,-0.2 z"
     fill="url(#hair)"
     stroke="#805e11"
     stroke-width="0.8"
     id="path49"
     style="fill:url(#linearGradient6856)" />
  <path
     d="m 24.492772,9.7999996 c 2.4,2.1000004 6.7,2.6000004 10.8,2.2000004 2.4,-0.2 3.8,-0.7 5.6,-1.6 0.3,1.1 0.4,2.2 0.2,3.2 -2.9,1.4 -6.6,2.2 -10.3,2.2 -2.8,0 -5.5,-0.5 -7.8,-1.4 0.2,-1.5 0.7,-2.9 1.5,-4.6000004 z"
     fill="#f3cf4a"
     opacity="0.45"
     id="path51" />
  <ellipse
     cx="29.194796"
     cy="14.599999"
     rx="1.2"
     ry="0.85000002"
     fill="#1b2a41"
     stroke="#ffffff"
     stroke-width="0.5"
     id="ellipse53" />
  <ellipse
     cx="34.994797"
     cy="14.7"
     rx="1.2"
     ry="0.85000002"
     fill="#1b2a41"
     stroke="#ffffff"
     stroke-width="0.5"
     id="ellipse55" />
  <circle
     cx="29.394796"
     cy="14.499999"
     r="0.25"
     fill="#ffffff"
     id="circle57" />
  <circle
     cx="34.794796"
     cy="14.599999"
     r="0.25"
     fill="#ffffff"
     id="circle59" />
  <ellipse
     cx="32.094799"
     cy="19.299999"
     rx="5.8000002"
     ry="2"
     fill="#000000"
     opacity="0.16"
     id="ellipse77" />
  <path
     d="m 29.794796,18 c 1,0.8 3.5,0.8 4.5,0"
     fill="none"
     stroke="#7a3e12"
     stroke-width="0.6"
     stroke-linecap="round"
     id="path61" />
  <circle
     cx="22.594795"
     cy="33.400002"
     r="2.5999999"
     fill="url(#skin)"
     stroke="#915f2c"
     stroke-width="0.8"
     id="circle63"
     style="fill:url(#linearGradient478)" />
  <circle
     cx="41.494797"
     cy="33.400002"
     r="2.5999999"
     fill="url(#skin)"
     stroke="#915f2c"
     stroke-width="0.8"
     id="circle65"
     style="fill:url(#linearGradient480)" />
  <rect
     x="25.394796"
     y="45.299999"
     width="6"
     height="6.8000002"
     rx="1.2"
     fill="#2f3b57"
     stroke="#1c2638"
     stroke-width="0.7"
     id="rect67" />
  <rect
     x="32.794796"
     y="45.299999"
     width="6"
     height="6.8000002"
     rx="1.2"
     fill="#2f3b57"
     stroke="#1c2638"
     stroke-width="0.7"
     id="rect69" />
  <path
     d="m 32.467272,51.6 h -7.3 a 2.2,2.2 0 0 0 -2.2,2.2 v 1 h 10.7 z"
     fill="url(#boot)"
     stroke="#3a230f"
     stroke-width="0.7"
     id="path71"
     style="fill:url(#linearGradient389)" />
  <path
     d="m 32.394796,51.6 h 7.3 a 2.2,2.2 0 0 1 2.2,2.2 v 1 h -10.7 z"
     fill="url(#boot)"
     stroke="#3a230f"
     stroke-width="0.7"
     id="path73"
     style="fill:url(#linearGradient391)" />
  <ellipse
     cx="32.094799"
     cy="9.3999996"
     rx="5.5999999"
     ry="2.2"
     fill="#ffffff"
     opacity="0.22"
     id="ellipse75" />
  <ellipse
     cx="160.09479"
     cy="57.400002"
     rx="10.6"
     ry="2.8"
     fill="#000000"
     opacity="0.18"
     id="ellipse546" />
  <circle
     cx="160.09479"
     cy="13.699997"
     r="9.1000004"
     fill="url(#skin)"
     stroke="#915f2c"
     stroke-width="0.9"
     id="circle556"
     style="fill:url(#linearGradient594)" />
  <path
     d="m 151.02667,14.460972 c 0.0475,-7.8104281 5.76812,-9.8609751 9.06812,-9.8609751 3.9,0 9.127,3.532976 9.1,9.1000001 -0.0198,4.083771 -6.10841,4.148897 -9.1,4.373388 -2.83249,0.212551 -9.08436,-0.945766 -9.06812,-3.612413 z"
     fill="url(#hair)"
     stroke="#805e11"
     stroke-width="0.8"
     id="path558"
     style="fill:url(#linearGradient596)"
     sodipodi:nodetypes="sssss" />
  <rect
     x="153.39479"
     y="45.300003"
     width="6"
     height="6.8000002"
     rx="1.2"
     fill="#2f3b57"
     stroke="#1c2638"
     stroke-width="0.7"
     id="rect576" />
  <rect
     x="160.79478"
     y="45.300003"
     width="6"
     height="6.8000002"
     rx="1.2"
     fill="#2f3b57"
     stroke="#1c2638"
     stroke-width="0.7"
     id="rect578" />
  <path
     d="m 160.46727,51.6 h -7.3 a 2.2,2.2 0 0 0 -2.2,2.2 v 1 h 10.7 z"
     fill="url(#boot)"
     stroke="#3a230f"
     stroke-width="0.7"
     id="path580"
     style="fill:url(#linearGradient602)" />
  <path
     d="m 160.39479,51.6 h 7.3 a 2.2,2.2 0 0 1 2.2,2.2 v 1 h -10.7 z"
     fill="url(#boot)"
     stroke="#3a230f"
     stroke-width="0.7"
     id="path582"
     style="fill:url(#linearGradient604)" />
  <ellipse
     cx="160.09479"
     cy="9.4000015"
     rx="5.5999999"
     ry="2.2"
     fill="#ffffff"
     opacity="0.22"
     id="ellipse584" />
  <path
     d="m 146.69479,25.7 c -1,9.5 -1.5,18.5 2,25 4.3,2.5 18.5,2.5 22.8,0 3.4,-6.3 2.8,-15.3 1.6,-24.5 l -8.4,-2.5 -9.3,0.2 z"
     fill="url(#cape)"
     stroke="#2a2a2a"
     stroke-width="0.7"
     stroke-linejoin="round"
     id="path548"
     style="fill:url(#linearGradient590)" />
  <rect
     style="fill:#888a85;stroke-width:20.0428;stroke-linejoin:round"
     id="rect1277"
     width="64"
     height="64"
     x="64"
     y="0" />
  <ellipse
     cx="96.689743"
     cy="57.400002"
     rx="10.6"
     ry="2.8"
     fill="#000000"
     opacity="0.18"
     id="ellipse1279" />
  <path
     d="m 90.258855,24.968411 h 11.871885 a 2.8877548,3.1033963 0 0 1 2.88775,3.103396 v 12.241174 a 5.2140017,5.6033544 0 0 1 -5.214,5.603354 H 92.585102 A 5.2140017,5.6033544 0 0 1 87.371101,40.312981 V 28.071807 a 2.8877548,3.1033963 0 0 1 2.887754,-3.103396 z"
     fill="url(#robe)"
     stroke="#1d3557"
     stroke-width="0.748409"
     id="path1283"
     style="fill:url(#linearGradient1325)" />
  <rect
     x="86.874741"
     y="36.403641"
     width="17.74012"
     height="3.0927241"
     rx="1.0751588"
     fill="#603813"
     stroke="#3d2610"
     stroke-width="0.567266"
     id="rect1285" />
  <rect
     x="103.93927"
     y="36.040775"
     width="1.9184501"
     height="3.8184526"
     rx="0.33855003"
     fill="#e0c56c"
     stroke="#8a6f2e"
     stroke-width="0.381548"
     id="rect1287" />
  <path
     id="circle1289"
     style="fill:url(#linearGradient1327);stroke:#915f2c;stroke-width:0.805462"
     d="m 104.89849,15.051668 c -2.46126,1.166899 -0.96809,3.59904 -2.46126,5.166899 -1.49316,1.567859 -4.340134,2.628704 -6.342435,2.628702 -4.0046,-4e-6 -7.25097,-4.095372 -7.25097,-9.147269 0,-5.0518974 3.247182,-9.0666153 7.25097,-9.1472694 1.849999,-0.037267 6.740105,2.1611201 7.150005,5.2472692 0.35189,2.6493742 0.8975,1.9612112 1.65369,5.2516682 z"
     sodipodi:nodetypes="csssssc" />
  <path
     d="m 89.027616,16.994889 c -1.460769,-4.930127 1.1638,-9.9462051 4.021684,-11.5962051 3.377502,-1.950002 7.73389,-1.2486843 10.1955,4.4013159 -1.52487,2.9588462 -4.04461,-0.5649786 -7.150005,4.9471022 -1.227108,2.178119 -4.811923,1.754005 -7.067179,2.247787 z"
     fill="url(#hair)"
     stroke="#805e11"
     stroke-width="0.8"
     id="path1291"
     style="fill:url(#linearGradient1329)"
     sodipodi:nodetypes="cscsc" />
  <path
     d="m 88.332081,14.394235 c 3.128461,0.618653 4.512011,-1.521737 7.862714,-3.918147 1.978464,-1.3732044 2.263229,-2.4802429 5.579795,-3.2709135 0.80981,0.802628 1.91279,1.8484113 1.57564,3.2651795 -0.6995,1.349439 -4.487742,0.744657 -7.155435,4.898324 -1.513108,2.35595 -4.419893,3.388697 -6.861752,3.759274 -0.576795,-1.399038 -0.843782,-2.861474 -1.000962,-4.733717 z"
     fill="#f3cf4a"
     opacity="0.45"
     id="path1293"
     sodipodi:nodetypes="ccccscc" />
  <ellipse
     cx="100.83143"
     cy="13.228482"
     rx="1.2"
     ry="0.85000002"
     fill="#1b2a41"
     stroke="#ffffff"
     stroke-width="0.5"
     id="ellipse1295" />
  <circle
     cx="101.03143"
     cy="13.128481"
     r="0.25"
     fill="#ffffff"
     id="circle1299" />
  <path
     id="ellipse1319"
     d="M 103.30664 17.472656 A 5.8000002 2 0 0 0 97.886719 19.464844 A 5.8000002 2 0 0 0 101.14453 21.259766 C 101.63356 20.947469 102.07599 20.598347 102.4375 20.21875 C 103.18719 19.431565 103.1841 18.426059 103.30664 17.472656 z "
     style="fill:#000000;opacity:0.16" />
  <circle
     cx="106.2448"
     cy="33.580338"
     r="2.5999999"
     fill="url(#skin)"
     stroke="#915f2c"
     stroke-width="0.8"
     id="circle1307"
     style="fill:url(#linearGradient1333)" />
  <rect
     x="85.072121"
     y="62.809307"
     width="6"
     height="6.8000002"
     rx="1.2"
     fill="#2f3b57"
     stroke="#1c2638"
     stroke-width="0.7"
     id="rect1311"
     transform="rotate(-10.703513)" />
  <path
     d="m 92.617271,51.6 h 7.3 a 2.2,2.2 0 0 1 2.199999,2.2 v 1 H 91.417271 Z"
     fill="url(#boot)"
     stroke="#3a230f"
     stroke-width="0.7"
     id="path1313"
     style="fill:url(#linearGradient1335)" />
  <path
     d="m 96.394796,51.6 h 7.300004 a 2.2,2.2 0 0 1 2.2,2.2 v 1 H 95.194796 Z"
     fill="url(#boot)"
     stroke="#3a230f"
     stroke-width="0.7"
     id="path1315"
     style="fill:url(#linearGradient1337)" />
  <ellipse
     cx="76.902725"
     cy="56.231812"
     rx="5.5999999"
     ry="2.2"
     fill="#ffffff"
     opacity="0.22"
     id="ellipse1317"
     transform="rotate(-30)" />
  <path
     id="path1281"
     style="fill:url(#linearGradient1323);stroke:#2a2a2a;stroke-opacity:1"
     d="m 90.258855,24.968411 c -2.537656,0.242618 -2.731933,1.829058 -3.329672,3.500365 -2.777593,7.76629 0,24.744141 0,24.744141 4.876457,0.07413 5.905057,-0.54114 8.175782,-1.861328 3.399999,-6.299994 3.518841,-15.422343 1.601559,-24.5 -0.611729,-2.896321 -1.669213,-2.340032 -6.447669,-1.883178 z"
     sodipodi:nodetypes="ssccss" />
  <path
     d="m 100.56348,18 c 0.5,0.4 1.375,0.6 2.25,0.6"
     fill="none"
     stroke="#7a3e12"
     stroke-width="0.6"
     stroke-linecap="round"
     id="path6879"
     sodipodi:nodetypes="cc" />
  <g
     id="g12716">
    <rect
       style="fill:#888a85;stroke-width:20.0428;stroke-linejoin:round"
       id="rect12531"
       width="64"
       height="64"
       x="0"
       y="0"
       transform="scale(-1,1)" />
    <ellipse
       cx="32.689743"
       cy="57.400002"
       rx="10.6"
       ry="2.8"
       fill="#000000"
       opacity="0.18"
       id="ellipse12533"
       transform="scale(-1,1)" />
    <path
       d="m -26.258857,24.968411 h -11.871885 a 2.8877548,3.1033963 0 0 0 -2.88775,3.103396 v 12.241174 a 5.2140017,5.6033544 0 0 0 5.214,5.603354 h 7.219388 a 5.2140017,5.6033544 0 0 0 5.214001,-5.603354 V 28.071807 a 2.8877548,3.1033963 0 0 0 -2.887754,-3.103396 z"
       fill="url(#robe)"
       stroke="#1d3557"
       stroke-width="0.748409"
       id="path12535"
       style="fill:url(#linearGradient12579)" />
    <rect
       x="22.874741"
       y="36.403641"
       width="17.74012"
       height="3.0927241"
       rx="1.0751588"
       fill="#603813"
       stroke="#3d2610"
       stroke-width="0.567266"
       id="rect12537"
       transform="scale(-1,1)" />
    <rect
       x="39.93927"
       y="36.040775"
       width="1.9184501"
       height="3.8184526"
       rx="0.33855003"
       fill="#e0c56c"
       stroke="#8a6f2e"
       stroke-width="0.381548"
       id="rect12539"
       transform="scale(-1,1)" />
    <path
       id="path12541"
       style="fill:url(#linearGradient12577);stroke:#915f2c;stroke-width:0.805462"
       d="m -40.898492,15.051668 c 2.46126,1.166899 0.96809,3.59904 2.46126,5.166899 1.49316,1.567859 4.340134,2.628704 6.342435,2.628702 4.0046,-4e-6 7.25097,-4.095372 7.25097,-9.147269 0,-5.0518974 -3.247182,-9.0666153 -7.25097,-9.1472694 -1.849999,-0.037267 -6.740105,2.1611201 -7.150005,5.2472692 -0.35189,2.6493742 -0.8975,1.9612112 -1.65369,5.2516682 z"
       sodipodi:nodetypes="csssssc" />
    <path
       d="m -25.027618,16.994889 c 1.460769,-4.930127 -1.1638,-9.9462051 -4.021684,-11.5962051 -3.377502,-1.950002 -7.73389,-1.2486843 -10.1955,4.4013159 1.52487,2.9588462 4.04461,-0.5649786 7.150005,4.9471022 1.227108,2.178119 4.811923,1.754005 7.067179,2.247787 z"
       fill="url(#hair)"
       stroke="#805e11"
       stroke-width="0.8"
       id="path12543"
       style="fill:url(#linearGradient12575)"
       sodipodi:nodetypes="cscsc" />
    <path
       d="m -24.332083,14.394235 c -3.128461,0.618653 -4.512011,-1.521737 -7.862714,-3.918147 -1.978464,-1.3732044 -2.263229,-2.4802429 -5.579795,-3.2709135 -0.80981,0.802628 -1.91279,1.8484113 -1.57564,3.2651795 0.6995,1.349439 4.487742,0.744657 7.155435,4.898324 1.513108,2.35595 4.419893,3.388697 6.861752,3.759274 0.576795,-1.399038 0.843782,-2.861474 1.000962,-4.733717 z"
       fill="#f3cf4a"
       opacity="0.45"
       id="path12545"
       sodipodi:nodetypes="ccccscc" />
    <ellipse
       cx="36.831429"
       cy="13.228482"
       rx="1.2"
       ry="0.85000002"
       fill="#1b2a41"
       stroke="#ffffff"
       stroke-width="0.5"
       id="ellipse12547"
       transform="scale(-1,1)" />
    <circle
       cx="37.031433"
       cy="13.128481"
       r="0.25"
       fill="#ffffff"
       id="circle12549"
       transform="scale(-1,1)" />
    <path
       id="path12551"
       d="m -39.306642,17.472656 a 5.8000002,2 0 0 1 5.419921,1.992188 5.8000002,2 0 0 1 -3.257811,1.794922 c -0.48903,-0.312297 -0.93146,-0.661419 -1.29297,-1.041016 -0.74969,-0.787185 -0.7466,-1.792691 -0.86914,-2.746094 z"
       style="opacity:0.16;fill:#000000" />
    <circle
       cx="42.244797"
       cy="33.580338"
       r="2.5999999"
       fill="url(#skin)"
       stroke="#915f2c"
       stroke-width="0.8"
       id="circle12553"
       style="fill:url(#linearGradient12573)"
       transform="scale(-1,1)" />
    <rect
       x="22.185631"
       y="50.922791"
       width="6"
       height="6.8000002"
       rx="1.2"
       fill="#2f3b57"
       stroke="#1c2638"
       stroke-width="0.7"
       id="rect12555"
       transform="matrix(-0.98260141,-0.18572686,-0.18572686,0.98260141,0,0)" />
    <path
       d="m -28.617273,51.6 h -7.3 a 2.2,2.2 0 0 0 -2.199999,2.2 v 1 h 10.699999 z"
       fill="url(#boot)"
       stroke="#3a230f"
       stroke-width="0.7"
       id="path12557"
       style="fill:url(#linearGradient12571)" />
    <path
       d="m -32.394798,51.6 h -7.300004 a 2.2,2.2 0 0 0 -2.2,2.2 v 1 h 10.700004 z"
       fill="url(#boot)"
       stroke="#3a230f"
       stroke-width="0.7"
       id="path12559"
       style="fill:url(#linearGradient12569)" />
    <ellipse
       cx="21.477102"
       cy="24.231812"
       rx="5.5999999"
       ry="2.2"
       fill="#ffffff"
       opacity="0.22"
       id="ellipse12561"
       transform="matrix(-0.8660254,-0.5,-0.5,0.8660254,0,0)" />
    <path
       id="path12563"
       style="fill:url(#linearGradient12567);stroke:#2a2a2a;stroke-opacity:1"
       d="m -26.258857,24.968411 c 2.537656,0.242618 2.731933,1.829058 3.329672,3.500365 2.777593,7.76629 0,24.744141 0,24.744141 -4.876457,0.07413 -5.905057,-0.54114 -8.175782,-1.861328 -3.399999,-6.299994 -3.518841,-15.422343 -1.601559,-24.5 0.611729,-2.896321 1.669213,-2.340032 6.447669,-1.883178 z"
       sodipodi:nodetypes="ssccss" />
    <path
       d="m -36.563482,18 c -0.5,0.4 -1.375,0.6 -2.25,0.6"
       fill="none"
       stroke="#7a3e12"
       stroke-width="0.6"
       stroke-linecap="round"
       id="path12565"
       sodipodi:nodetypes="cc" />
  </g>
</svg>
