<?xml version="1.0" encoding="UTF-8" standalone="no"?>
<svg
   width="192"
   height="192"
   viewBox="0 0 192 192"
   version="1.1"
   id="svg88"
   sodipodi:docname="forest.svg"
   inkscape:version="1.2.2 (b0a8486541, 2022-12-01)"
   xmlns:inkscape="http://www.inkscape.org/namespaces/inkscape"
   xmlns:sodipodi="http://sodipodi.sourceforge.net/DTD/sodipodi-0.dtd"
   xmlns="http://www.w3.org/2000/svg"
   xmlns:svg="http://www.w3.org/2000/svg">
  <sodipodi:namedview
     id="namedview90"
     pagecolor="#505050"
     bordercolor="#eeeeee"
     borderopacity="1"
     inkscape:showpageshadow="0"
     inkscape:pageopacity="0"
     inkscape:pagecheckerboard="0"
     inkscape:deskcolor="#d1d1d1"
     showgrid="false"
     inkscape:zoom="1.3037281"
     inkscape:cx="1.5340622"
     inkscape:cy="136.91505"
     inkscape:window-width="2560"
     inkscape:window-height="1403"
     inkscape:window-x="0"
     inkscape:window-y="0"
     inkscape:window-maximized="1"
     inkscape:current-layer="svg88" />
  <defs
     id="defs28">
    <!-- Dark canopy gradient (symmetric for seamless tiling) -->
    <linearGradient
       id="canopy"
       x1="0"
       y1="0"
       x2="0"
       y2="1">
      <stop
         offset="0%"
         stop-color="#1f3816"
         id="stop2" />
      <stop
         offset="50%"
         stop-color="#2d541f"
         id="stop4" />
      <stop
         offset="100%"
         stop-color="#1f3816"
         id="stop6" />
    </linearGradient>
    <!-- Speckle / leaf pattern -->
    <pattern
       id="leafTex"
       patternUnits="objectBoundingBox"
       width="0.125"
       height="0.125"
       viewBox="0 0 4 4"
       preserveAspectRatio="none">
      <rect
         width="4"
         height="4"
         fill="none"
         id="rect9" />
      <circle
         cx="0.9"
         cy="1.0"
         r="0.25"
         fill="#3d6b2a"
         opacity="0.4"
         id="circle11" />
      <circle
         cx="2.9"
         cy="1.9"
         r="0.23"
         fill="#26451c"
         opacity="0.35"
         id="circle13" />
      <circle
         cx="2.1"
         cy="3.1"
         r="0.22"
         fill="#3d6b2a"
         opacity="0.35"
         id="circle15" />
      <circle
         cx="1.4"
         cy="2.3"
         r="0.18"
         fill="#426f2d"
         opacity="0.5"
         id="circle17" />
    </pattern>
    <!-- Shadow mask (slight darkening toward edges for depth while still seamless) -->
    <radialGradient
       id="shade"
       cx="0.5"
       cy="0.5"
       r="0.75">
      <stop
         offset="60%"
         stop-color="#ffffff"
         id="stop20" />
      <stop
         offset="100%"
         stop-color="#222"
         id="stop22" />
    </radialGradient>
    <mask
       id="shadeMask">
      <rect
         x="0"
         y="0"
         width="64"
         height="64"
         fill="url(#shade)"
         id="rect25" />
    </mask>
  </defs>
  <rect
     style="opacity:1;fill:#8ae234;stroke:none;stroke-width:3;stroke-linejoin:round"
     id="rect2166"
     width="64"
     height="64"
     x="64"
     y="64" />
  <!-- Base canopy -->
  <!-- Leaf texture -->
  <!-- Tree crown clusters (kept inside edges to avoid tiling seams) -->
  <!-- Highlights -->
  <!-- Impression of trunks below canopy (subtle, not full trees) -->
  <path
     id="path1428"
     style="fill:#73d216;stroke:#4e9a06;stroke-width:3;stroke-linejoin:round"
     d="m 138.00385,87.921378 a 14.720184,18.010593 70.845693 0 0 -7.50391,1.197265 14.720184,18.010593 70.845693 0 0 -4.75,2.339844 18.010593,14.720184 0 0 0 -11.14257,-3.154297 18.010593,14.720184 0 0 0 -18.009771,14.7207 18.010593,14.720184 0 0 0 6.791021,11.47461 14.720184,18.010593 52.849836 0 0 2.42578,6.38086 14.720184,18.010593 52.849836 0 0 23.24609,0.85547 14.720184,18.010593 52.849836 0 0 3.74219,-3.61328 14.720184,18.010593 70.845693 0 0 7.35742,-1.19336 14.720184,18.010593 70.845693 0 0 12.18359,-19.814453 14.720184,18.010593 70.845693 0 0 -14.33984,-9.193359 z" />
  <path
     id="ellipse2092"
     style="fill:#8ae234;stroke:#4e9a06;stroke-width:3;stroke-linejoin:round"
     d="m 119.16861,108.45915 a 12.714911,15.122596 0 0 0 -7.91407,3.32617 15.317864,13.43782 36.746226 0 0 -17.888668,7.55664 15.317864,13.43782 36.746226 0 0 4.689453,15.13867 17.382714,13.037248 59.687059 0 0 1.00586,7.32227 17.382714,13.037248 59.687059 0 0 18.615235,13.94336 17.382714,13.037248 59.687059 0 0 7.79687,-18.50977 17.382714,13.037248 59.687059 0 0 -0.17578,-0.44922 12.714911,15.122596 0 0 0 6.58594,-13.20507 12.714911,15.122596 0 0 0 -12.71484,-15.12305 z" />
  <path
     id="ellipse2098"
     style="fill:#73d216;stroke:#4e9a06;stroke-width:3;stroke-linejoin:round"
     d="m 150.90623,105.40086 a 13.037248,17.382714 59.687059 0 0 -6.38477,1.06445 13.037248,17.382714 59.687059 0 0 -8.31445,4.9668 15.122596,12.714911 0 0 0 -1.11133,-0.0371 15.122596,12.714911 0 0 0 -15.12305,12.71484 15.122596,12.714911 0 0 0 10.53711,12.09766 13.43782,15.317864 36.746226 0 0 7.55274,6.99414 13.43782,15.317864 36.746226 0 0 18.54492,-10.10742 13.43782,15.317864 36.746226 0 0 1.08594,-5.42578 13.037248,17.382714 59.687059 0 0 5.33789,-13.4043 13.037248,17.382714 59.687059 0 0 -12.125,-8.86328 z" />
  <path
     id="path2278"
     style="fill:#73d216;stroke:#4e9a06;stroke-width:3;stroke-linejoin:round"
     d="m 138.00385,23.921378 a 14.720184,18.010593 70.845693 0 0 -7.50391,1.197265 14.720184,18.010593 70.845693 0 0 -4.75,2.339844 18.010593,14.720184 0 0 0 -11.14257,-3.154297 18.010593,14.720184 0 0 0 -18.009771,14.720703 18.010593,14.720184 0 0 0 6.791021,11.47461 14.720184,18.010593 52.849836 0 0 2.42578,6.380859 14.720184,18.010593 52.849836 0 0 23.24609,0.855469 14.720184,18.010593 52.849836 0 0 3.74219,-3.613282 14.720184,18.010593 70.845693 0 0 7.35742,-1.193359 14.720184,18.010593 70.845693 0 0 12.18359,-19.814453 14.720184,18.010593 70.845693 0 0 -14.33984,-9.193359 z" />
  <path
     id="path2280"
     style="fill:#8ae234;stroke:#4e9a06;stroke-width:3;stroke-linejoin:round"
     d="m 119.16861,44.459148 a 12.714911,15.122596 0 0 0 -7.91407,3.326172 15.317864,13.43782 36.746226 0 0 -17.888668,7.556641 15.317864,13.43782 36.746226 0 0 4.689453,15.138668 17.382714,13.037248 59.687059 0 0 1.00586,7.32227 17.382714,13.037248 59.687059 0 0 18.615235,13.94336 17.382714,13.037248 59.687059 0 0 7.79687,-18.50977 17.382714,13.037248 59.687059 0 0 -0.17578,-0.44922 12.714911,15.122596 0 0 0 6.58594,-13.20507 12.714911,15.122596 0 0 0 -12.71484,-15.123051 z" />
  <path
     id="path2282"
     style="fill:#73d216;stroke:#4e9a06;stroke-width:3;stroke-linejoin:round"
     d="m 150.90623,41.400861 a 13.037248,17.382714 59.687059 0 0 -6.38477,1.064453 13.037248,17.382714 59.687059 0 0 -8.31445,4.966797 15.122596,12.714911 0 0 0 -1.11133,-0.03711 15.122596,12.714911 0 0 0 -15.12305,12.714843 15.122596,12.714911 0 0 0 10.53711,12.097657 13.43782,15.317864 36.746226 0 0 7.55274,6.99414 13.43782,15.317864 36.746226 0 0 18.54492,-10.107421 13.43782,15.317864 36.746226 0 0 1.08594,-5.425782 13.037248,17.382714 59.687059 0 0 5.33789,-13.404297 13.037248,17.382714 59.687059 0 0 -12.125,-8.86328 z" />
  <path
     id="path2284"
     style="fill:#73d216;stroke:#4e9a06;stroke-width:3;stroke-linejoin:round"
     d="m 139.50193,65.478986 a 15.704288,11.813915 59.124323 0 0 -8.99219,6.728515 15.122596,12.714911 0 0 0 -10.94531,12.216801 15.122596,12.714911 0 0 0 12.61328,12.51953 12.724732,15.038772 24.29811 0 0 6.85938,6.572258 12.724732,15.038772 24.29811 0 0 17.24023,-10.107418 12.724732,15.038772 24.29811 0 0 -1.03906,-13.37305 15.704288,11.813915 59.124323 0 0 -10.68945,-13.455074 15.704288,11.813915 59.124323 0 0 -5.04688,-1.101562 z" />
  <path
     id="path2288"
     style="fill:#73d216;stroke:#4e9a06;stroke-width:3;stroke-linejoin:round"
     d="m 74.003849,23.921378 a 14.720184,18.010593 70.845693 0 0 -7.503906,1.197265 14.720184,18.010593 70.845693 0 0 -4.75,2.339844 18.010593,14.720184 0 0 0 -11.142578,-3.154297 18.010593,14.720184 0 0 0 -18.009766,14.720703 18.010593,14.720184 0 0 0 6.791016,11.47461 14.720184,18.010593 52.849836 0 0 2.425781,6.380859 14.720184,18.010593 52.849836 0 0 23.246094,0.855469 14.720184,18.010593 52.849836 0 0 3.742187,-3.613282 14.720184,18.010593 70.845693 0 0 7.357422,-1.193359 14.720184,18.010593 70.845693 0 0 12.183594,-19.814453 14.720184,18.010593 70.845693 0 0 -14.339844,-9.193359 z" />
  <path
     id="path2290"
     style="fill:#8ae234;stroke:#4e9a06;stroke-width:3;stroke-linejoin:round"
     d="m 55.168607,44.459148 a 12.714911,15.122596 0 0 0 -7.914063,3.326172 15.317864,13.43782 36.746226 0 0 -17.888672,7.556641 15.317864,13.43782 36.746226 0 0 4.689453,15.138668 17.382714,13.037248 59.687059 0 0 1.00586,7.32227 17.382714,13.037248 59.687059 0 0 18.615234,13.94336 17.382714,13.037248 59.687059 0 0 7.796875,-18.50977 17.382714,13.037248 59.687059 0 0 -0.175781,-0.44922 12.714911,15.122596 0 0 0 6.585938,-13.20507 12.714911,15.122596 0 0 0 -12.714844,-15.123051 z" />
  <path
     id="path2292"
     style="fill:#73d216;stroke:#4e9a06;stroke-width:3;stroke-linejoin:round"
     d="m 86.906229,41.400861 a 13.037248,17.382714 59.687059 0 0 -6.38477,1.064453 13.037248,17.382714 59.687059 0 0 -8.31445,4.966797 15.122596,12.714911 0 0 0 -1.11133,-0.03711 15.122596,12.714911 0 0 0 -15.123046,12.714843 15.122596,12.714911 0 0 0 10.537106,12.097657 13.43782,15.317864 36.746226 0 0 7.55274,6.99414 13.43782,15.317864 36.746226 0 0 18.54492,-10.107421 13.43782,15.317864 36.746226 0 0 1.08594,-5.425782 13.037248,17.382714 59.687059 0 0 5.33789,-13.404297 13.037248,17.382714 59.687059 0 0 -12.125,-8.86328 z" />
  <path
     id="path2298"
     style="fill:#73d216;stroke:#4e9a06;stroke-width:3;stroke-linejoin:round"
     d="m 74.003849,87.921378 a 14.720184,18.010593 70.845693 0 0 -7.503906,1.197265 14.720184,18.010593 70.845693 0 0 -4.75,2.339844 18.010593,14.720184 0 0 0 -11.142578,-3.154297 18.010593,14.720184 0 0 0 -18.009766,14.7207 18.010593,14.720184 0 0 0 6.791016,11.47461 14.720184,18.010593 52.849836 0 0 2.425781,6.38086 14.720184,18.010593 52.849836 0 0 23.246094,0.85547 14.720184,18.010593 52.849836 0 0 3.742187,-3.61328 14.720184,18.010593 70.845693 0 0 7.357422,-1.19336 14.720184,18.010593 70.845693 0 0 12.183594,-19.814453 14.720184,18.010593 70.845693 0 0 -14.339844,-9.193359 z" />
  <path
     id="path2300"
     style="fill:#8ae234;stroke:#4e9a06;stroke-width:3;stroke-linejoin:round"
     d="m 55.168607,108.45915 a 12.714911,15.122596 0 0 0 -7.914063,3.32617 15.317864,13.43782 36.746226 0 0 -17.888672,7.55664 15.317864,13.43782 36.746226 0 0 4.689453,15.13867 17.382714,13.037248 59.687059 0 0 1.00586,7.32227 17.382714,13.037248 59.687059 0 0 18.615234,13.94336 17.382714,13.037248 59.687059 0 0 7.796875,-18.50977 17.382714,13.037248 59.687059 0 0 -0.175781,-0.44922 12.714911,15.122596 0 0 0 6.585938,-13.20507 12.714911,15.122596 0 0 0 -12.714844,-15.12305 z" />
  <path
     id="path2302"
     style="fill:#73d216;stroke:#4e9a06;stroke-width:3;stroke-linejoin:round"
     d="m 86.906229,105.40086 a 13.037248,17.382714 59.687059 0 0 -6.38477,1.06445 13.037248,17.382714 59.687059 0 0 -8.31445,4.9668 15.122596,12.714911 0 0 0 -1.11133,-0.0371 15.122596,12.714911 0 0 0 -15.123046,12.71484 15.122596,12.714911 0 0 0 10.537106,12.09766 13.43782,15.317864 36.746226 0 0 7.55274,6.99414 13.43782,15.317864 36.746226 0 0 18.54492,-10.10742 13.43782,15.317864 36.746226 0 0 1.08594,-5.42578 13.037248,17.382714 59.687059 0 0 5.33789,-13.4043 13.037248,17.382714 59.687059 0 0 -12.125,-8.86328 z" />
  <path
     id="path2304"
     style="fill:#73d216;stroke:#4e9a06;stroke-width:3;stroke-linejoin:round"
     d="m 75.501929,129.47899 a 15.704288,11.813915 59.124323 0 0 -8.99219,6.72851 15.122596,12.714911 0 0 0 -10.94531,12.2168 15.122596,12.714911 0 0 0 12.61328,12.51953 12.724732,15.038772 24.29811 0 0 6.85938,6.57226 12.724732,15.038772 24.29811 0 0 17.24023,-10.10742 12.724732,15.038772 24.29811 0 0 -1.03906,-13.37305 15.704288,11.813915 59.124323 0 0 -10.68945,-13.45507 15.704288,11.813915 59.124323 0 0 -5.04688,-1.10156 z" />
  <path
     id="path2294"
     style="fill:#73d216;stroke:#4e9a06;stroke-width:3;stroke-linejoin:round"
     d="m 75.501929,65.478986 a 15.704288,11.813915 59.124323 0 0 -8.99219,6.728515 15.122596,12.714911 0 0 0 -10.94531,12.216801 15.122596,12.714911 0 0 0 12.61328,12.51953 12.724732,15.038772 24.29811 0 0 6.85938,6.572258 12.724732,15.038772 24.29811 0 0 17.24023,-10.107418 12.724732,15.038772 24.29811 0 0 -1.03906,-13.37305 15.704288,11.813915 59.124323 0 0 -10.68945,-13.455074 15.704288,11.813915 59.124323 0 0 -5.04688,-1.101562 z" />
</svg>
