<?xml version="1.0" encoding="UTF-8" standalone="no"?>
<svg
   width="64"
   height="64"
   viewBox="0 0 64 64"
   version="1.1"
   id="svg88"
   sodipodi:docname="forest.svg"
   inkscape:version="1.2.2 (b0a8486541, 2022-12-01)"
   xmlns:inkscape="http://www.inkscape.org/namespaces/inkscape"
   xmlns:sodipodi="http://sodipodi.sourceforge.net/DTD/sodipodi-0.dtd"
   xmlns="http://www.w3.org/2000/svg"
   xmlns:svg="http://www.w3.org/2000/svg">
  <sodipodi:namedview
     id="namedview90"
     pagecolor="#505050"
     bordercolor="#eeeeee"
     borderopacity="1"
     inkscape:showpageshadow="0"
     inkscape:pageopacity="0"
     inkscape:pagecheckerboard="0"
     inkscape:deskcolor="#d1d1d1"
     showgrid="false"
     inkscape:zoom="3.6875"
     inkscape:cx="31.864407"
     inkscape:cy="32.135593"
     inkscape:window-width="2560"
     inkscape:window-height="1403"
     inkscape:window-x="0"
     inkscape:window-y="0"
     inkscape:window-maximized="1"
     inkscape:current-layer="svg88" />
  <defs
     id="defs28">
    <!-- Dark canopy gradient (symmetric for seamless tiling) -->
    <linearGradient
       id="canopy"
       x1="0%"
       y1="0%"
       x2="0%"
       y2="100%">
      <stop
         offset="0%"
         stop-color="#1f3816"
         id="stop2" />
      <stop
         offset="50%"
         stop-color="#2d541f"
         id="stop4" />
      <stop
         offset="100%"
         stop-color="#1f3816"
         id="stop6" />
    </linearGradient>
    <!-- Speckle / leaf pattern -->
    <pattern
       id="leafTex"
       patternUnits="objectBoundingBox"
       width="0.125"
       height="0.125"
       viewBox="0 0 4 4"
       preserveAspectRatio="none">
      <rect
         width="4"
         height="4"
         fill="none"
         id="rect9" />
      <circle
         cx="0.9"
         cy="1.0"
         r="0.25"
         fill="#3d6b2a"
         opacity="0.4"
         id="circle11" />
      <circle
         cx="2.9"
         cy="1.9"
         r="0.23"
         fill="#26451c"
         opacity="0.35"
         id="circle13" />
      <circle
         cx="2.1"
         cy="3.1"
         r="0.22"
         fill="#3d6b2a"
         opacity="0.35"
         id="circle15" />
      <circle
         cx="1.4"
         cy="2.3"
         r="0.18"
         fill="#426f2d"
         opacity="0.5"
         id="circle17" />
    </pattern>
    <!-- Shadow mask (slight darkening toward edges for depth while still seamless) -->
    <radialGradient
       id="shade"
       cx="50%"
       cy="50%"
       r="75%">
      <stop
         offset="60%"
         stop-color="#ffffff"
         id="stop20" />
      <stop
         offset="100%"
         stop-color="#222"
         id="stop22" />
    </radialGradient>
    <mask
       id="shadeMask">
      <rect
         x="0"
         y="0"
         width="64"
         height="64"
         fill="url(#shade)"
         id="rect25" />
    </mask>
  </defs>
  <rect
     style="opacity:1;fill:#8ae234;stroke:none;stroke-width:3;stroke-linejoin:round"
     id="rect2166"
     width="64"
     height="64"
     x="0"
     y="0" />
  <!-- Base canopy -->
  <!-- Leaf texture -->
  <!-- Tree crown clusters (kept inside edges to avoid tiling seams) -->
  <!-- Highlights -->
  <!-- Impression of trunks below canopy (subtle, not full trees) -->
  <path
     id="path1428"
     style="fill:#73d216;stroke:#4e9a06;stroke-width:3;stroke-linejoin:round"
     d="m 74.003849,23.921378 a 14.720184,18.010593 70.845693 0 0 -7.503906,1.197265 14.720184,18.010593 70.845693 0 0 -4.75,2.339844 18.010593,14.720184 0 0 0 -11.142578,-3.154297 18.010593,14.720184 0 0 0 -18.009766,14.720703 18.010593,14.720184 0 0 0 6.791016,11.47461 14.720184,18.010593 52.849836 0 0 2.425781,6.380859 14.720184,18.010593 52.849836 0 0 23.246094,0.855469 14.720184,18.010593 52.849836 0 0 3.742187,-3.613282 14.720184,18.010593 70.845693 0 0 7.357422,-1.193359 14.720184,18.010593 70.845693 0 0 12.183594,-19.814453 14.720184,18.010593 70.845693 0 0 -14.339844,-9.193359 z" />
  <path
     id="ellipse2092"
     style="fill:#8ae234;stroke:#4e9a06;stroke-width:3;stroke-linejoin:round"
     d="m 55.168607,44.459148 a 12.714911,15.122596 0 0 0 -7.914063,3.326172 15.317864,13.43782 36.746226 0 0 -17.888672,7.556641 15.317864,13.43782 36.746226 0 0 4.689453,15.138668 17.382714,13.037248 59.687059 0 0 1.00586,7.32227 17.382714,13.037248 59.687059 0 0 18.615234,13.94336 17.382714,13.037248 59.687059 0 0 7.796875,-18.50977 17.382714,13.037248 59.687059 0 0 -0.175781,-0.44922 12.714911,15.122596 0 0 0 6.585938,-13.20507 12.714911,15.122596 0 0 0 -12.714844,-15.123051 z" />
  <path
     id="ellipse2098"
     style="fill:#73d216;stroke:#4e9a06;stroke-width:3;stroke-linejoin:round"
     d="m 86.906229,41.400861 a 13.037248,17.382714 59.687059 0 0 -6.38477,1.064453 13.037248,17.382714 59.687059 0 0 -8.31445,4.966797 15.122596,12.714911 0 0 0 -1.11133,-0.03711 15.122596,12.714911 0 0 0 -15.123046,12.714843 15.122596,12.714911 0 0 0 10.537106,12.097657 13.43782,15.317864 36.746226 0 0 7.55274,6.99414 13.43782,15.317864 36.746226 0 0 18.54492,-10.107421 13.43782,15.317864 36.746226 0 0 1.08594,-5.425782 13.037248,17.382714 59.687059 0 0 5.33789,-13.404297 13.037248,17.382714 59.687059 0 0 -12.125,-8.86328 z" />
  <path
     id="path2278"
     style="fill:#73d216;stroke:#4e9a06;stroke-width:3;stroke-linejoin:round"
     d="m 74.003849,-40.078622 a 14.720184,18.010593 70.845693 0 0 -7.503906,1.197265 14.720184,18.010593 70.845693 0 0 -4.75,2.339844 18.010593,14.720184 0 0 0 -11.142578,-3.154297 18.010593,14.720184 0 0 0 -18.009766,14.720703 18.010593,14.720184 0 0 0 6.791016,11.47461 14.720184,18.010593 52.849836 0 0 2.425781,6.380859 14.720184,18.010593 52.849836 0 0 23.246094,0.855469 14.720184,18.010593 52.849836 0 0 3.742187,-3.613282 14.720184,18.010593 70.845693 0 0 7.357422,-1.193359 14.720184,18.010593 70.845693 0 0 12.183594,-19.814453 14.720184,18.010593 70.845693 0 0 -14.339844,-9.193359 z" />
  <path
     id="path2280"
     style="fill:#8ae234;stroke:#4e9a06;stroke-width:3;stroke-linejoin:round"
     d="m 55.168607,-19.540852 a 12.714911,15.122596 0 0 0 -7.914063,3.326172 15.317864,13.43782 36.746226 0 0 -17.888672,7.556641 15.317864,13.43782 36.746226 0 0 4.689453,15.138668 17.382714,13.037248 59.687059 0 0 1.00586,7.32227 17.382714,13.037248 59.687059 0 0 18.615234,13.94336 17.382714,13.037248 59.687059 0 0 7.796875,-18.50977 17.382714,13.037248 59.687059 0 0 -0.175781,-0.44922 12.714911,15.122596 0 0 0 6.585938,-13.20507 12.714911,15.122596 0 0 0 -12.714844,-15.123051 z" />
  <path
     id="path2282"
     style="fill:#73d216;stroke:#4e9a06;stroke-width:3;stroke-linejoin:round"
     d="m 86.906229,-22.599139 a 13.037248,17.382714 59.687059 0 0 -6.38477,1.064453 13.037248,17.382714 59.687059 0 0 -8.31445,4.966797 15.122596,12.714911 0 0 0 -1.11133,-0.03711 15.122596,12.714911 0 0 0 -15.123046,12.714843 15.122596,12.714911 0 0 0 10.537106,12.097657 13.43782,15.317864 36.746226 0 0 7.55274,6.99414 13.43782,15.317864 36.746226 0 0 18.54492,-10.107421 13.43782,15.317864 36.746226 0 0 1.08594,-5.425782 13.037248,17.382714 59.687059 0 0 5.33789,-13.404297 13.037248,17.382714 59.687059 0 0 -12.125,-8.86328 z" />
  <path
     id="path2284"
     style="fill:#73d216;stroke:#4e9a06;stroke-width:3;stroke-linejoin:round"
     d="m 75.501929,1.478986 a 15.704288,11.813915 59.124323 0 0 -8.99219,6.728515 15.122596,12.714911 0 0 0 -10.94531,12.216801 15.122596,12.714911 0 0 0 12.61328,12.51953 12.724732,15.038772 24.29811 0 0 6.85938,6.57226 12.724732,15.038772 24.29811 0 0 17.24023,-10.10742 12.724732,15.038772 24.29811 0 0 -1.03906,-13.37305 15.704288,11.813915 59.124323 0 0 -10.68945,-13.455074 15.704288,11.813915 59.124323 0 0 -5.04688,-1.101562 z" />
  <path
     id="path2288"
     style="fill:#73d216;stroke:#4e9a06;stroke-width:3;stroke-linejoin:round"
     d="m 10.003849,-40.078622 a 14.720184,18.010593 70.845693 0 0 -7.503906,1.197265 14.720184,18.010593 70.845693 0 0 -4.75,2.339844 18.010593,14.720184 0 0 0 -11.142578,-3.154297 18.010593,14.720184 0 0 0 -18.009766,14.720703 18.010593,14.720184 0 0 0 6.791016,11.47461 14.720184,18.010593 52.849836 0 0 2.425781,6.380859 14.720184,18.010593 52.849836 0 0 23.246094,0.855469 14.720184,18.010593 52.849836 0 0 3.742187,-3.613282 14.720184,18.010593 70.845693 0 0 7.357422,-1.193359 14.720184,18.010593 70.845693 0 0 12.183594,-19.814453 14.720184,18.010593 70.845693 0 0 -14.339844,-9.193359 z" />
  <path
     id="path2290"
     style="fill:#8ae234;stroke:#4e9a06;stroke-width:3;stroke-linejoin:round"
     d="m -8.831393,-19.540852 a 12.714911,15.122596 0 0 0 -7.914063,3.326172 15.317864,13.43782 36.746226 0 0 -17.888672,7.556641 15.317864,13.43782 36.746226 0 0 4.689453,15.138668 17.382714,13.037248 59.687059 0 0 1.00586,7.32227 17.382714,13.037248 59.687059 0 0 18.615234,13.94336 17.382714,13.037248 59.687059 0 0 7.796875,-18.50977 17.382714,13.037248 59.687059 0 0 -0.175781,-0.44922 12.714911,15.122596 0 0 0 6.585938,-13.20507 12.714911,15.122596 0 0 0 -12.714844,-15.123051 z" />
  <path
     id="path2292"
     style="fill:#73d216;stroke:#4e9a06;stroke-width:3;stroke-linejoin:round"
     d="m 22.906229,-22.599139 a 13.037248,17.382714 59.687059 0 0 -6.38477,1.064453 13.037248,17.382714 59.687059 0 0 -8.31445,4.966797 15.122596,12.714911 0 0 0 -1.11133,-0.03711 15.122596,12.714911 0 0 0 -15.123046,12.714843 15.122596,12.714911 0 0 0 10.537106,12.097657 13.43782,15.317864 36.746226 0 0 7.55274,6.99414 13.43782,15.317864 36.746226 0 0 18.54492,-10.107421 13.43782,15.317864 36.746226 0 0 1.08594,-5.425782 13.037248,17.382714 59.687059 0 0 5.33789,-13.404297 13.037248,17.382714 59.687059 0 0 -12.125,-8.86328 z" />
  <path
     id="path2298"
     style="fill:#73d216;stroke:#4e9a06;stroke-width:3;stroke-linejoin:round"
     d="m 10.003849,23.921378 a 14.720184,18.010593 70.845693 0 0 -7.503906,1.197265 14.720184,18.010593 70.845693 0 0 -4.75,2.339844 18.010593,14.720184 0 0 0 -11.142578,-3.154297 18.010593,14.720184 0 0 0 -18.009766,14.720703 18.010593,14.720184 0 0 0 6.791016,11.47461 14.720184,18.010593 52.849836 0 0 2.425781,6.380859 A 14.720184,18.010593 52.849836 0 0 1.06049,57.735831 14.720184,18.010593 52.849836 0 0 4.802677,54.122549 14.720184,18.010593 70.845693 0 0 12.160099,52.92919 14.720184,18.010593 70.845693 0 0 24.343693,33.114737 14.720184,18.010593 70.845693 0 0 10.003849,23.921378 Z" />
  <path
     id="path2300"
     style="fill:#8ae234;stroke:#4e9a06;stroke-width:3;stroke-linejoin:round"
     d="m -8.831393,44.459148 a 12.714911,15.122596 0 0 0 -7.914063,3.326172 15.317864,13.43782 36.746226 0 0 -17.888672,7.556641 15.317864,13.43782 36.746226 0 0 4.689453,15.138668 17.382714,13.037248 59.687059 0 0 1.00586,7.32227 17.382714,13.037248 59.687059 0 0 18.615234,13.94336 17.382714,13.037248 59.687059 0 0 7.796875,-18.50977 17.382714,13.037248 59.687059 0 0 -0.175781,-0.44922 12.714911,15.122596 0 0 0 6.585938,-13.20507 12.714911,15.122596 0 0 0 -12.714844,-15.123051 z" />
  <path
     id="path2302"
     style="fill:#73d216;stroke:#4e9a06;stroke-width:3;stroke-linejoin:round"
     d="m 22.906229,41.400861 a 13.037248,17.382714 59.687059 0 0 -6.38477,1.064453 13.037248,17.382714 59.687059 0 0 -8.31445,4.966797 15.122596,12.714911 0 0 0 -1.11133,-0.03711 15.122596,12.714911 0 0 0 -15.123046,12.714843 15.122596,12.714911 0 0 0 10.537106,12.097657 13.43782,15.317864 36.746226 0 0 7.55274,6.99414 13.43782,15.317864 36.746226 0 0 18.54492,-10.107421 13.43782,15.317864 36.746226 0 0 1.08594,-5.425782 13.037248,17.382714 59.687059 0 0 5.33789,-13.404297 13.037248,17.382714 59.687059 0 0 -12.125,-8.86328 z" />
  <path
     id="path2304"
     style="fill:#73d216;stroke:#4e9a06;stroke-width:3;stroke-linejoin:round"
     d="m 11.501929,65.478986 a 15.704288,11.813915 59.124323 0 0 -8.99219,6.728515 15.122596,12.714911 0 0 0 -10.94531,12.216801 15.122596,12.714911 0 0 0 12.61328,12.51953 12.724732,15.038772 24.29811 0 0 6.85938,6.572258 12.724732,15.038772 24.29811 0 0 17.24023,-10.107418 12.724732,15.038772 24.29811 0 0 -1.03906,-13.37305 15.704288,11.813915 59.124323 0 0 -10.68945,-13.455074 15.704288,11.813915 59.124323 0 0 -5.04688,-1.101562 z" />
  <path
     id="path2294"
     style="fill:#73d216;stroke:#4e9a06;stroke-width:3;stroke-linejoin:round"
     d="m 11.501929,1.478986 a 15.704288,11.813915 59.124323 0 0 -8.99219,6.728515 15.122596,12.714911 0 0 0 -10.94531,12.216801 15.122596,12.714911 0 0 0 12.61328,12.51953 12.724732,15.038772 24.29811 0 0 6.85938,6.57226 12.724732,15.038772 24.29811 0 0 17.24023,-10.10742 12.724732,15.038772 24.29811 0 0 -1.03906,-13.37305 15.704288,11.813915 59.124323 0 0 -10.68945,-13.455074 15.704288,11.813915 59.124323 0 0 -5.04688,-1.101562 z" />
</svg>
