<?xml version="1.0" encoding="UTF-8" standalone="no"?>
<svg xmlns="http://www.w3.org/2000/svg" width="64" height="64" viewBox="0 0 64 64" version="1.1">
	<defs>
		<!-- Dark canopy gradient (symmetric for seamless tiling) -->
		<linearGradient id="canopy" x1="0%" y1="0%" x2="0%" y2="100%">
			<stop offset="0%" stop-color="#1f3816" />
			<stop offset="50%" stop-color="#2d541f" />
			<stop offset="100%" stop-color="#1f3816" />
		</linearGradient>
		<!-- Speckle / leaf pattern -->
		<pattern id="leafTex" patternUnits="objectBoundingBox" width="0.125" height="0.125"
			viewBox="0 0 4 4" preserveAspectRatio="none">
			<rect width="4" height="4" fill="none" />
			<circle cx="0.9" cy="1.0" r="0.25" fill="#3d6b2a" opacity="0.4" />
			<circle cx="2.9" cy="1.9" r="0.23" fill="#26451c" opacity="0.35" />
			<circle cx="2.1" cy="3.1" r="0.22" fill="#3d6b2a" opacity="0.35" />
			<circle cx="1.4" cy="2.3" r="0.18" fill="#426f2d" opacity="0.5" />
		</pattern>
		<!-- Shadow mask (slight darkening toward edges for depth while still seamless) -->
		<radialGradient id="shade" cx="50%" cy="50%" r="75%">
			<stop offset="60%" stop-color="#ffffff" />
			<stop offset="100%" stop-color="#222" />
		</radialGradient>
		<mask id="shadeMask">
			<rect x="0" y="0" width="64" height="64" fill="url(#shade)" />
		</mask>
	</defs>
	<!-- Base canopy -->
	<rect x="0" y="0" width="64" height="64" fill="url(#canopy)" />
	<!-- Leaf texture -->
	<rect x="0" y="0" width="64" height="64" fill="url(#leafTex)" opacity="0.6" mask="url(#shadeMask)" />
	<!-- Tree crown clusters (kept inside edges to avoid tiling seams) -->
	<g fill="#2f4e24" opacity="0.75">
		<circle cx="18" cy="20" r="6" />
		<circle cx="30" cy="16" r="5" />
		<circle cx="42" cy="22" r="6" />
		<circle cx="24" cy="34" r="6" />
		<circle cx="38" cy="36" r="5" />
		<circle cx="22" cy="48" r="6" />
		<circle cx="34" cy="50" r="5" />
		<circle cx="46" cy="46" r="6" />
	</g>
	<!-- Highlights -->
	<g fill="#4f7b3a" opacity="0.35">
		<circle cx="19.5" cy="19" r="2.4" />
		<circle cx="31" cy="15.5" r="2.0" />
		<circle cx="42.5" cy="21.5" r="2.2" />
		<circle cx="24.8" cy="33.2" r="2.3" />
		<circle cx="38.5" cy="35.4" r="2.0" />
		<circle cx="22.8" cy="47" r="2.2" />
		<circle cx="34.5" cy="49.2" r="1.9" />
		<circle cx="46.2" cy="45.3" r="2.3" />
	</g>
	<!-- Impression of trunks below canopy (subtle, not full trees) -->
	<g stroke="#15240f" stroke-width="1.4" stroke-linecap="round" opacity="0.4">
		<line x1="18" y1="24" x2="18" y2="30" />
		<line x1="30" y1="20" x2="30" y2="28" />
		<line x1="42" y1="26" x2="42" y2="34" />
		<line x1="24" y1="38" x2="24" y2="46" />
		<line x1="38" y1="40" x2="38" y2="48" />
		<line x1="22" y1="52" x2="22" y2="58" />
		<line x1="34" y1="54" x2="34" y2="60" />
		<line x1="46" y1="50" x2="46" y2="58" />
	</g>
</svg>
