<?xml version="1.0" encoding="UTF-8" standalone="no"?>
<svg
   width="192"
   height="192"
   viewBox="0 0 192 192"
   version="1.1"
   id="svg8"
   inkscape:version="1.2.2 (b0a8486541, 2022-12-01)"
   sodipodi:docname="grass.svg"
   xmlns:inkscape="http://www.inkscape.org/namespaces/inkscape"
   xmlns:sodipodi="http://sodipodi.sourceforge.net/DTD/sodipodi-0.dtd"
   xmlns="http://www.w3.org/2000/svg"
   xmlns:svg="http://www.w3.org/2000/svg"
   xmlns:rdf="http://www.w3.org/1999/02/22-rdf-syntax-ns#"
   xmlns:cc="http://creativecommons.org/ns#"
   xmlns:dc="http://purl.org/dc/elements/1.1/">
  <defs
     id="defs2">
    <!-- Seamless vertical gradient (top and bottom equal) to avoid tiling seams -->
    <linearGradient
       id="grassGradient"
       x1="0"
       y1="0"
       x2="0"
       y2="1">
      <stop
         offset="0%"
         stop-color="#6fcf2d"
         id="stop2" />
      <stop
         offset="50%"
         stop-color="#8de24a"
         id="stop4" />
      <stop
         offset="100%"
         stop-color="#6fcf2d"
         id="stop6" />
    </linearGradient>
    <!-- Fade edges for wind overlay to reduce seams between tiles -->
    <radialGradient
       id="grassFade"
       cx="0.5"
       cy="0.5"
       r="0.75">
      <stop
         offset="65%"
         stop-color="white"
         id="stop9" />
      <stop
         offset="100%"
         stop-color="black"
         id="stop11" />
    </radialGradient>
    <mask
       id="windMask">
      <rect
         x="0"
         y="0"
         width="67.73333"
         height="67.73333"
         fill="url(#grassFade)"
         id="rect14" />
    </mask>
  </defs>
  <sodipodi:namedview
     id="base"
     pagecolor="#ffffff"
     bordercolor="#666666"
     borderopacity="1.0"
     inkscape:pageopacity="0.0"
     inkscape:pageshadow="2"
     inkscape:zoom="5.2016145"
     inkscape:cx="108.23563"
     inkscape:cy="111.98446"
     inkscape:document-units="mm"
     inkscape:current-layer="layer1"
     inkscape:document-rotation="0"
     showgrid="false"
     units="px"
     inkscape:snap-page="true"
     inkscape:window-width="2560"
     inkscape:window-height="1403"
     inkscape:window-x="0"
     inkscape:window-y="0"
     inkscape:window-maximized="1"
     inkscape:showpageshadow="0"
     inkscape:pagecheckerboard="0"
     inkscape:deskcolor="#d1d1d1" />
  <metadata
     id="metadata5">
    <rdf:RDF>
      <cc:Work
         rdf:about="">
        <dc:format>image/svg+xml</dc:format>
        <dc:type
           rdf:resource="http://purl.org/dc/dcmitype/StillImage" />
      </cc:Work>
    </rdf:RDF>
  </metadata>
  <g
     inkscape:label="Lager 1"
     inkscape:groupmode="layer"
     id="layer1"
     transform="translate(64,64)">
    <rect
       style="fill:#83ae64;fill-opacity:1;stroke:none;stroke-width:4.99999"
       id="rect3971"
       width="64"
       height="64"
       x="0"
       y="0" />
    <!-- Gentle wind sweep overlay -->
    <path
       style="fill:#73d216;stroke:none;stroke-width:4.99999"
       d="M 17.042969,62.53125 15.8125,63.189453 C 15.86535,63.45889 15.90593,63.730254 15.957031,64 h 1.298828 c -0.0685,-0.489998 -0.149594,-0.97801 -0.21289,-1.46875 z"
       id="path5045" />
    <path
       style="fill:#73d216;stroke:none;stroke-width:4.99999"
       d="m 35.546875,61.746094 -2.673828,1.363281 c -0.01759,0.298079 -0.0657,0.593194 -0.08984,0.890625 h 2.443359 c 0.112216,-0.7504 0.203211,-1.504253 0.320313,-2.253906 z"
       id="path5043" />
    <path
       style="fill:#73d216;stroke:none;stroke-width:4.99999"
       d="m 15.119141,61.361328 -1.246094,0.617188 C 13.775766,62.654779 13.645493,63.32581 13.535156,64 h 1.111328 c 0.162216,-0.878533 0.300119,-1.761933 0.472657,-2.638672 z"
       id="path5041" />
    <path
       style="fill:#73d216;stroke:none;stroke-width:4.99999"
       d="m 50.521484,61.15625 -2.669922,1.359375 c 0.02455,0.494282 0.0037,0.989651 0.0098,1.484375 h 2.640625 c -0.008,-0.948158 -0.02629,-1.896528 0.01953,-2.84375 z"
       id="path5039" />
    <path
       style="fill:#73d216;stroke:none;stroke-width:4.99999"
       d="m 55.296875,60.423828 -1.251953,0.625 C 54.016862,62.032508 53.965539,63.016453 53.910156,64 h 1.101563 c 0.06709,-1.193762 0.170138,-2.386968 0.285156,-3.576172 z"
       id="path5037" />
    <path
       style="fill:#73d216;stroke:none;stroke-width:4.99999"
       d="m 30.464844,58.730469 -2.65625,1.353515 c 0.06908,1.304065 0.05034,2.610667 0.02539,3.916016 h 2.683594 c -0.01049,-0.087 -0.02753,-0.157509 -0.03711,-0.251953 -0.0197,-0.194101 -0.0219,-0.389214 -0.0332,-0.583985 -0.03,-1.477757 -0.05902,-2.956778 0.01758,-4.433593 z"
       id="path5035" />
    <path
       style="fill:#73d216;stroke:none;stroke-width:4.99999"
       d="m 42.785156,55.464844 -2.726562,1.214844 c -0.823579,1.637057 -1.781453,3.200484 -2.605469,4.83789 -0.07413,0.158015 -0.148523,0.316595 -0.222656,0.47461 l 2.683593,-1.226563 c 0.0661,-0.151225 0.133079,-0.301897 0.199219,-0.453125 0.792609,-1.668177 1.708936,-3.272387 2.671875,-4.847656 z"
       id="path5033" />
    <path
       style="fill:#73d216;stroke:none;stroke-width:4.99999"
       d="m 60.960938,54.451172 -1.242188,0.644531 c 0.20525,1.723536 0.259707,3.461632 0.310547,5.195313 0.03501,1.235578 0.0422,2.472986 0.04687,3.708984 h 0.519531 l 0.671875,-0.34375 c -0.0111,-1.325088 -0.01763,-2.649797 -0.04883,-3.974609 -0.0571,-1.744426 -0.134313,-3.489363 -0.257812,-5.230469 z"
       id="path5031" />
    <path
       style="fill:#73d216;stroke:none;stroke-width:4.99999"
       d="m 28.027344,54.390625 -2.701172,1.257813 C 24.377854,58.491849 23.177579,61.241627 22.009766,64 h 2.027343 c 0.08923,-0.238733 0.188838,-0.473083 0.275391,-0.712891 1.189519,-2.985272 2.444525,-5.944813 3.714844,-8.896484 z"
       id="path5029" />
    <path
       style="fill:#73d216;stroke:none;stroke-width:4.99999"
       d="m 21.455078,53.513672 -1.259766,0.613281 C 19.779274,57.408639 19.483884,60.70385 19.205078,64 h 1.023438 c 0.281597,-3.509808 0.598298,-7.021259 1.226562,-10.486328 z"
       id="path5027" />
    <path
       style="fill:#73d216;stroke:none;stroke-width:4.99999"
       d="m 47.583984,50.996094 -2.68164,1.367187 c -0.10867,2.222042 0.127664,4.443763 0.240234,6.66211 0.0829,2.112826 0.04831,1.083239 0.103516,3.085937 l 2.455078,-1.261719 c -0.0981,-1.986373 -0.04984,-0.963141 -0.142578,-3.068359 -0.0892,-2.256965 -0.263719,-4.536114 0.02539,-6.785156 z"
       id="path5025" />
    <path
       style="fill:#73d216;stroke:none;stroke-width:4.99999"
       d="m 4.0175781,47.953125 -2.6386719,1.443359 c 0.4822296,1.643248 0.6081858,3.364075 0.7285157,5.064454 0.0799,1.309151 0.107955,2.6203 0.109375,3.93164 L 4.8144531,57.066406 C 4.7818532,55.758494 4.7568011,54.448774 4.6445312,53.144531 4.4993814,51.407696 4.3415278,49.667387 4.0175781,47.953125 Z"
       id="path5023" />
    <path
       style="fill:#73d216;stroke:none;stroke-width:4.99999"
       d="m 40.226562,35.269531 -2.61914,1.363281 c 0.337868,1.894526 0.445707,3.817167 0.621094,5.730469 0.0691,0.366328 0.133511,0.734148 0.207031,1.09961 1.002489,4.982968 -0.464659,-2.461278 0.519531,2.498047 0.18466,0.9305 0.352536,1.850704 0.603516,2.765624 0.067,0.178743 0.134152,0.356414 0.201172,0.535157 l 2.566406,-1.433594 c -0.0729,-0.164823 -0.1458,-0.33127 -0.21875,-0.496094 C 41.440853,45.291663 41.103906,43.148 40.785156,41.03125 40.595426,39.111289 40.360272,37.194439 40.226562,35.269531 Z"
       id="path5021" />
    <path
       style="fill:#73d216;stroke:none;stroke-width:4.99999"
       d="m 32.242188,35.09375 -2.689454,1.371094 c 0.31696,2.2902 0.444025,4.602691 0.515625,6.912109 0.0537,2.996398 -0.0018,6.000496 -0.21875,8.990235 l 1.816407,-0.916016 c -0.150733,1.215534 -0.329821,2.428404 -0.521485,3.638672 l 2.541016,-1.25 c 0.09385,-0.730369 0.185457,-1.460782 0.277344,-2.191406 0.100128,1.205274 0.159623,2.41425 0.214843,3.61914 l 0.03711,1.21875 2.498047,-1.287109 C 36.686821,54.799529 36.660826,54.399689 36.634766,54 36.466109,51.406236 36.311482,48.808371 36.042969,46.222656 l -1.583985,0.837891 c 0.173506,-1.97124 0.346776,-3.953478 0.816407,-5.880859 l -2.701172,1.318359 c -0.02496,0.254863 -0.0662,0.507825 -0.09961,0.761719 4.9e-4,-0.373735 0.0096,-0.747401 0.0098,-1.121094 -0.0363,-2.350897 -0.170818,-4.696321 -0.242187,-7.044922 z"
       id="path5019" />
    <path
       style="fill:#73d216;stroke:none;stroke-width:4.99999"
       d="m 18.972656,34.603516 -1.257812,0.599609 c -0.0072,0.0293 -0.01433,0.05859 -0.02148,0.08789 -0.03761,-0.173415 -0.07813,-0.346468 -0.117187,-0.519532 l -2.585938,1.41211 c 0.495301,1.428716 0.976553,2.862252 1.453125,4.296875 -0.176555,0.733099 -0.342426,1.468456 -0.529297,2.199219 -0.299899,1.063296 -0.623286,2.119814 -0.941406,3.177734 l 1.210938,-0.574219 c 0.283085,-1.000076 0.572411,-1.999672 0.847656,-3.001953 0.458115,1.41259 0.912811,2.82578 1.341797,4.248047 0.643559,2.225525 1.196518,4.474241 1.710937,6.732422 l 2.521485,-1.363281 c -0.60847,-2.220396 -1.242855,-4.432546 -1.927735,-6.63086 -0.643129,-2.056916 -1.283643,-4.115082 -1.908203,-6.177734 -0.120582,-0.398235 -0.316174,-1.084929 -0.513672,-1.751953 0.229008,-0.914504 0.454889,-1.828616 0.716797,-2.734375 z"
       id="path5017" />
    <path
       style="fill:#73d216;stroke:none;stroke-width:4.99999"
       d="m 62.75,32.878906 -1.230469,0.626953 c 0.17624,3.243577 0.56641,6.472412 0.88086,9.705079 l 1.082031,-0.564454 C 63.138182,39.401386 62.7285,36.147276 62.75,32.878906 Z"
       id="path5013" />
    <path
       style="fill:#73d216;stroke:none;stroke-width:4.99999"
       d="m 34.402344,31.574219 -1.210938,0.669922 c 1.210062,3.10846 1.949427,6.371642 2.871094,9.570312 0.263017,0.912808 0.546396,1.818919 0.820312,2.728516 0.737864,2.350542 1.531343,4.684023 2.332032,7.013672 l 1.076172,-0.595703 c -0.83912,-2.309722 -1.667913,-4.62305 -2.390625,-6.972657 -0.268455,-0.911453 -0.549595,-1.819639 -0.806641,-2.734375 -0.90597,-3.224025 -1.643829,-6.495883 -2.691406,-9.679687 z"
       id="path5009" />
    <path
       style="fill:#73d216;stroke:none;stroke-width:4.99999"
       d="m 55.646484,30.337891 -1.232422,0.628906 c 0.0726,2.057656 -0.0053,4.116073 0.03711,6.173828 0.0741,1.190334 0.203514,2.375637 0.271484,3.566406 l 1.226563,-0.632812 c -0.0806,-1.184422 -0.218695,-2.36425 -0.296875,-3.548828 -0.0675,-2.06118 -0.04276,-4.125946 -0.0059,-6.1875 z"
       id="path5007" />
    <path
       style="fill:#4e9a06;stroke:none;stroke-width:4.99999"
       d="m 26.386719,34.234375 -2.632813,1.408203 c 0.948239,3.595615 1.299841,7.309516 1.65625,11 l 2.269532,-1.185547 c -0.44195,-3.739721 -0.87014,-7.480965 -1.292969,-11.222656 z"
       id="path4935" />
    <path
       style="fill:#73d216;stroke:none;stroke-width:4.99999"
       d="m 30.050781,26.941406 -2.634765,1.414063 c 0.304496,1.203646 0.467198,2.435561 0.599609,3.669922 -1.750758,1.836704 -3.283764,3.869948 -4.765625,5.925781 l 1.216797,-0.527344 c 1.13905,-1.612227 2.316281,-3.207349 3.626953,-4.685547 0.01398,0.145393 0.03547,0.290229 0.04883,0.435547 0.0125,0.162304 0.02451,0.325979 0.03711,0.488281 l 2.61914,-1.36914 -0.06445,-0.476563 c -0.22381,-1.625137 -0.469934,-3.248491 -0.683594,-4.875 z"
       id="path5005" />
    <path
       style="fill:#73d216;stroke:none;stroke-width:4.99999"
       d="m 5.3066406,22.689453 -2.65625,1.351563 c 0.0683,0.947043 0.060047,1.896971 0.060547,2.845703 l 2.5351563,-1.291016 c 5.299e-4,-0.969384 -0.00615,-1.938456 0.060547,-2.90625 z"
       id="path5003" />
    <path
       style="fill:#73d216;stroke:none;stroke-width:4.99999"
       d="m 58.824219,20.689453 -2.625,1.466797 c 0.50132,0.927055 0.947033,1.880326 1.365234,2.845703 -0.44012,1.467815 -0.893621,2.932279 -1.291015,4.412109 l 1.236328,-0.595703 c 0.176943,-0.812856 0.401089,-1.613104 0.617187,-2.416015 0.318366,0.803779 0.63937,1.606249 0.925781,2.421875 0.25119,0.702264 0.478067,1.414444 0.691407,2.128906 l 2.574218,-1.419922 C 62.06087,28.837227 61.794188,28.145675 61.517578,27.457031 60.814056,25.658245 60.08165,23.871361 59.375,22.074219 c 0.04407,-0.14364 0.08684,-0.288022 0.130859,-0.431641 l -0.253906,0.121094 c -0.139989,-0.359067 -0.29225,-0.7134 -0.427734,-1.074219 z"
       id="path5001" />
    <path
       style="fill:#73d216;stroke:none;stroke-width:4.99999"
       d="m 34.707031,17.720703 -1.041015,0.53125 c 0.06503,4.493698 0.09173,8.98897 -0.0078,13.482422 l 1.21875,-0.621094 c -0.06138,-4.464304 -0.135947,-8.927858 -0.169922,-13.392578 z"
       id="path4999" />
    <path
       style="fill:#73d216;stroke:none;stroke-width:4.99999"
       d="m 22.226562,15.677734 -2.652343,1.445313 c 0.411709,0.967197 0.592419,2.008666 0.787109,3.035156 L 22.884766,18.8125 c -0.20165,-1.048588 -0.395964,-2.099088 -0.658204,-3.134766 z"
       id="path4997" />
    <path
       style="fill:#73d216;stroke:none;stroke-width:4.99999"
       d="m 64,9.953125 -1.669922,0.849609 c 0.0974,1.723817 0.07447,3.452264 0.04687,5.177735 -0.0169,0.813757 -0.01018,0.422319 -0.02148,1.173828 L 64,16.316406 Z"
       id="path4995" />
    <path
       style="fill:#73d216;stroke:none;stroke-width:4.99999"
       d="m 42.666016,9.5859375 -1.251954,0.6367185 c 0.17636,1.125611 0.327487,2.254936 0.441407,3.388672 0.0326,0.324906 0.04164,0.653608 0.08984,0.976563 0.0094,0.06304 0.02609,0.124729 0.03711,0.1875 l -1.976563,1.007812 c 0.0951,1.667604 0.06626,3.340537 0.03906,5.009766 l 2.564453,-1.306641 c -0.01053,-0.635155 -0.01598,-1.270724 -0.01953,-1.90625 0.38755,1.737049 0.753985,3.478732 1.1875,5.205078 l 1.054687,-0.570312 c -0.304934,1.287115 -0.635387,2.569822 -1.001953,3.841797 -0.598929,2.151867 -1.169114,4.31242 -1.839844,6.443359 l 1.267578,-0.59375 c 0.57896,-2.132746 1.152957,-4.266721 1.728516,-6.400391 1.202489,-4.156123 1.899009,-8.422945 2.486328,-12.701171 0.0643,-0.515646 0.12902,-1.031229 0.19336,-1.546876 l -1.146485,0.56836 -0.162109,1.529297 c -0.20085,1.616846 -0.294584,2.478818 -0.564453,4.128906 -0.245729,1.502471 -0.549111,2.993416 -0.894531,4.474609 -0.610962,-2.242544 -1.090667,-4.519247 -1.560547,-6.794922 -0.0699,-0.397917 -0.154678,-0.793285 -0.210938,-1.193359 -0.0454,-0.323176 -0.0627,-0.649927 -0.0957,-0.974609 -0.11562,-1.137763 -0.267854,-2.270832 -0.365234,-3.4101565 z"
       id="path4993" />
    <path
       style="fill:#73d216;stroke:none;stroke-width:4.99999"
       d="M 1.0039062,9.4414062 0,9.953125 v 6.363281 l 0.98046875,-0.5 c -0.0113,-0.738764 -0.004184,-0.354779 -0.0214844,-1.152344 -0.0283,-1.741223 -0.050478,-3.48299 0.0449219,-5.2226558 z"
       id="path4991" />
    <path
       style="fill:#73d216;stroke:none;stroke-width:4.99999"
       d="m 40.160156,4.2246094 -2.646484,1.3476562 c 0.09055,2.7319187 0.223856,5.4621694 0.460937,8.1855464 l 0.128907,1.119141 2.503906,-1.318359 C 40.550822,13.196533 40.49414,12.834717 40.4375,12.472656 40.13387,9.7343365 39.972696,6.9784276 40.160156,4.2246094 Z"
       id="path4989" />
    <path
       style="fill:#73d216;stroke:none;stroke-width:4.99999"
       d="M 36.884766,1.1582031 A 0.50814748,0.50814748 0 0 0 36.376953,1.6660156 0.50814748,0.50814748 0 0 0 36.884766,2.1738281 0.50814748,0.50814748 0 0 0 37.392578,1.6660156 0.50814748,0.50814748 0 0 0 36.884766,1.1582031 Z"
       id="path4987" />
    <path
       style="fill:#73d216;stroke:none;stroke-width:4.99999"
       d="M 3.2675781,0.9609375 0.640625,2.4082031 c 0.8703191,2.1180749 1.3269129,4.3856344 1.7265625,6.6328125 0.0363,0.3123957 0.073095,0.6251073 0.109375,0.9375 L 5.0097656,8.6464844 C 4.9666657,8.3307737 4.9239893,8.0149304 4.8808594,7.6992188 4.4116198,5.437899 3.8270376,3.2010963 3.2675781,0.9609375 Z"
       id="path4985" />
    <path
       style="fill:#73d216;stroke:none;stroke-width:4.99999"
       d="m 60.076172,0 c 3.32e-4,0.08786957 0.0036,0.17580293 0.0039,0.26367188 L 60.595703,0 Z"
       id="path4983" />
    <path
       style="fill:#73d216;stroke:none;stroke-width:4.99999"
       d="m 53.910156,0 c -0.04153,0.73750538 -0.09322,1.4749577 -0.101562,2.2128906 -0.0176,1.5585075 0.06243,2.4721843 0.15039,4.0429688 0.0702,0.7251822 0.127395,1.4517885 0.208985,2.1757812 0.0757,0.6715334 0.450905,3.4208924 0.541015,4.1113284 0.20151,1.543878 0.378936,3.089893 0.572266,4.634765 L 56.4375,16.568359 C 56.276946,15.478183 56.132367,14.386813 55.984375,13.294922 L 58.4375,12.025391 C 58.31258,10.601357 58.267415,9.1717515 58.296875,7.7421875 58.319675,7.264721 58.327434,6.7851003 58.365234,6.3085938 58.534144,4.1829939 58.946828,2.064103 59.585938,0.03125 L 56.884766,1.3125 c -0.40917,2.0575489 -0.828965,4.1270653 -0.990235,6.2226562 -0.0371,0.4823426 -0.04315,0.9659173 -0.06445,1.4492188 -0.02423,1.138722 4.68e-4,2.277656 0.03125,3.416016 -0.01958,-0.144013 -0.04086,-0.28764 -0.06055,-0.431641 C 55.737881,11.508801 55.29877,8.3032445 55.25,7.8671875 55.1691,7.1437032 55.115888,6.4182587 55.048828,5.6933594 55.014628,4.9944471 54.966456,4.2951894 54.947266,3.5957031 54.914412,2.3961116 54.944406,1.1976491 55.011719,0 Z"
       id="path4981" />
    <path
       style="fill:#73d216;stroke:none;stroke-width:4.99999"
       d="m 47.861328,0 c 0.01061,0.86121182 0.03269,1.7229595 0.01758,2.5839844 0.0138,1.2970497 -0.03949,2.5946733 -0.08789,3.890625 L 50.367188,5.171875 C 50.403587,3.8648193 50.480111,2.5594008 50.494141,1.2519531 50.486682,0.83467751 50.505454,0.41742209 50.501953,0 Z"
       id="path4979" />
    <path
       style="fill:#73d216;stroke:none;stroke-width:4.99999"
       d="M 32.783203,0 C 32.602013,2.2319605 32.276516,4.4486806 31.943359,6.6621094 31.890929,7.00716 31.83759,7.352214 31.785156,7.6972656 L 34.335938,6.4394531 C 34.374537,6.1016675 34.414522,5.765519 34.453125,5.4277344 34.679179,3.6144657 34.956317,1.8071694 35.226562,0 Z"
       id="path4977" />
    <path
       style="fill:#73d216;stroke:none;stroke-width:4.99999"
       d="m 27.833984,0 c -0.0032,0.16658887 -0.0045,0.33346077 -0.0078,0.5 0.0172,0.1996628 0.01998,0.39964245 0.05078,0.5976562 0.0452,0.2900278 0.119295,0.5756316 0.177735,0.8632813 0.198749,0.978188 0.315742,1.519388 0.476562,2.546875 0.19884,1.2704007 0.249065,1.852074 0.390625,3.1210937 0.15831,1.7447357 0.08416,0.9131599 0.228516,2.4960938 L 31.654297,8.8144531 C 31.448667,7.2620093 31.550972,8.079432 31.351562,6.3554688 31.165813,4.8143253 30.990604,3.2712505 30.771484,1.734375 30.676425,1.0676644 30.589753,0.59877805 30.517578,0 Z"
       id="path4975" />
    <path
       style="fill:#73d216;stroke:none;stroke-width:4.99999"
       d="m 15.957031,0 c 0.583215,3.0784779 1.068417,6.174287 1.5,9.2773438 0.0547,0.3893556 0.109323,0.7786162 0.164063,1.1679682 l 1.074218,-0.5683589 c -0.02768,0.9297899 -0.05776,1.8592779 -0.08398,2.7890629 l 1.074219,-0.544922 c 0.0374,-2.1718051 0.10081,-4.3433584 0.191406,-6.5136721 L 22.113281,4.59375 C 22.828645,3.0939458 23.455554,1.556012 24.037109,0 H 22.009766 C 21.948376,0.14500312 21.887341,0.29048366 21.826172,0.43554688 21.21591,1.9148331 20.594561,3.3880585 19.917969,4.8378906 19.967431,3.7829419 20.005071,2.727434 20.082031,1.6738281 20.12522,1.1159469 20.183732,0.55818001 20.228516,0 h -1.023438 c -0.06224,0.73579351 -0.130474,1.4712474 -0.191406,2.2070312 -0.145824,2.3936183 -0.229462,4.7908095 -0.302734,7.1875 C 18.671127,9.1554818 18.629655,8.9167833 18.589844,8.6777344 18.132392,5.7873219 17.66102,2.8983104 17.255859,0 Z"
       id="path4973" />
    <path
       style="fill:#73d216;stroke:none;stroke-width:4.99999"
       d="M 13.535156,0 C 13.237215,1.8205143 12.929255,3.6395071 12.625,5.4589844 L 13.771484,4.8984375 C 14.032824,3.2605417 14.345372,1.6307703 14.646484,0 Z"
       id="path3647" />
    <path
       style="fill:#4e9a06;stroke:none;stroke-width:4.99999"
       d="m 17.738281,62.611328 -2.623047,1.365234 c 0.0014,0.0078 0.0025,0.01564 0.0039,0.02344 h 2.759765 c -0.04436,-0.46309 -0.107003,-0.924581 -0.140625,-1.388672 z"
       id="path4969" />
    <path
       style="fill:#4e9a06;stroke:none;stroke-width:4.99999"
       d="M 10.935547,57.306641 8.2460938,58.677734 C 8.3717671,60.452231 8.2608049,62.227293 8.1289062,64 H 10.5 c 0.165412,-2.229887 0.351408,-4.458628 0.435547,-6.693359 z"
       id="path4967" />
    <path
       style="fill:#4e9a06;stroke:none;stroke-width:4.99999"
       d="m 45.541016,53.826172 -2.634766,1.408203 c 0.728535,2.872511 1.077,5.820329 1.363281,8.765625 h 2.529297 c -0.01893,-0.161955 -0.03334,-0.324425 -0.05273,-0.486328 -0.3763,-3.232647 -0.768979,-6.462373 -1.205078,-9.6875 z"
       id="path4965" />
    <path
       style="fill:#4e9a06;stroke:none;stroke-width:4.99999"
       d="m 2.4257812,53.720703 -1.2304687,0.677735 c 0.4493496,2.433935 0.9972917,4.848747 1.4570313,7.28125 C 2.7944279,62.45085 2.9123759,63.225609 3.0351562,64 H 4.3085938 C 4.1314496,63.026603 3.9600481,62.052123 3.7753906,61.080078 3.3033611,58.630962 2.7702609,56.191915 2.4257812,53.720703 Z"
       id="path4963" />
    <path
       style="fill:#4e9a06;stroke:none;stroke-width:4.99999"
       d="m 64,50.589844 -1.789062,0.839844 c -0.0422,0.148207 -0.08056,0.296395 -0.126954,0.443359 -0.259549,0.822506 -0.172678,0.432127 -0.423828,1.324219 -0.266089,0.945141 -0.448087,1.896965 -0.617187,2.863281 -0.22132,1.293877 -0.389919,2.596994 -0.542969,3.900391 l 2.59375,-1.289063 c 0.11191,-1.287816 0.250945,-2.574248 0.490234,-3.845703 0.12211,-0.589536 0.268589,-1.173145 0.416016,-1.75586 z"
       id="path4961" />
    <path
       style="fill:#4e9a06;stroke:none;stroke-width:4.99999"
       d="m 27.925781,50.21875 -2.583984,1.451172 c 1.338429,2.585522 2.360074,5.319174 3.251953,8.085937 l 0.353516,1.222657 2.453125,-1.345704 C 31.266931,59.23163 31.13345,58.830869 31,58.429688 30.038071,55.66984 28.9892,52.940897 27.925781,50.21875 Z"
       id="path4959" />
    <path
       style="fill:#4e9a06;stroke:none;stroke-width:4.99999"
       d="M 0.9375,50.148438 0,50.589844 v 2.480468 C 0.25107873,52.07791 0.53690198,51.095939 0.9375,50.148438 Z"
       id="path4957" />
    <path
       style="fill:#4e9a06;stroke:none;stroke-width:4.99999"
       d="m 19.455078,49.179688 -2.638672,1.433593 c 0.70543,2.766778 0.415592,5.627329 0.101563,8.425781 -0.0473,0.356841 -0.09328,0.713474 -0.140625,1.070313 l 2.541015,-1.259766 c 0.0311,-0.350323 0.06265,-0.700454 0.09375,-1.050781 0.22757,-2.869335 0.417619,-5.751319 0.04297,-8.61914 z"
       id="path4955" />
    <path
       style="fill:#4e9a06;stroke:none;stroke-width:4.99999"
       d="m 15.380859,47.339844 -2.695312,1.318359 c -0.18683,2.203287 -0.328835,4.411173 -0.484375,6.617188 -0.0568,1.456254 -0.151656,2.906531 -0.291016,4.357421 L 14.5,58.341797 c 0.10573,-1.446619 0.226158,-2.892383 0.242188,-4.34375 0.091,-2.22598 0.183002,-4.47184 0.638671,-6.658203 z"
       id="path4953" />
    <path
       style="fill:#4e9a06;stroke:none;stroke-width:4.99999"
       d="m 58.474609,43.759766 c 0.0058,0.0456 0.01172,0.09113 0.01758,0.136718 l -0.0293,0.01367 c 0.004,-0.05011 0.0075,-0.100287 0.01172,-0.15039 z"
       id="path4951" />
    <path
       style="fill:#4e9a06;stroke:none;stroke-width:4.99999"
       d="m 41.583984,41.066406 -2.61914,1.347656 c 0.303919,3.886451 0.704616,7.765432 1.072265,11.646485 0.332479,3.306222 0.546292,6.621149 0.708985,9.939453 h 2.52539 C 42.927115,60.303998 42.525689,56.613754 42.242188,52.912109 41.915468,48.971168 41.600064,45.023346 41.583984,41.066406 Z"
       id="path4949" />
    <path
       style="fill:#4e9a06;stroke:none;stroke-width:4.99999"
       d="m 11.585938,39.560547 -2.7148442,1.246094 c -0.4329796,1.299964 -0.9000604,2.663134 -1.25,3.976562 -0.2881898,1.08172 -0.5321272,2.175753 -0.7792969,3.267578 -0.7028793,3.104772 -1.3054856,6.228911 -1.890625,9.357422 L 7.1972656,56.3125 c 0.8167492,-5.119127 1.6812739,-10.31315 3.6386724,-15.142578 0.222389,-0.548696 0.50021,-1.072602 0.75,-1.609375 z"
       id="path4947" />
    <path
       style="fill:#4e9a06;stroke:none;stroke-width:4.99999"
       d="m 53.734375,38.794922 -2.746094,1.228516 C 50.318167,42.009114 49.683977,44.006558 49.037109,46 l -0.179687,0.09961 c 0.02594,0.07796 0.04476,0.158244 0.07031,0.236329 -0.494914,1.527794 -1.007274,3.049752 -1.49414,4.580078 -0.4664,1.484094 -0.893218,2.980092 -1.310547,4.478515 l 2.542969,-1.214843 c 0.338749,-1.467556 0.69418,-2.931044 1.125,-4.375 0.02853,-0.09461 0.06128,-0.188566 0.08984,-0.283204 0.314576,1.152544 0.608679,2.309729 0.902344,3.466797 0.09805,0.429435 0.08391,0.394806 0.138672,0.632813 -0.902461,2.691008 -1.920575,5.340512 -2.916016,7.998047 l 2.523438,-1.177735 c 0.485432,-1.424051 0.992177,-2.841595 1.517578,-4.251953 l 0.607422,-0.324219 c -0.11081,-0.51696 -0.121849,-0.547534 -0.173828,-0.791015 0.468083,-1.221234 0.94064,-2.441452 1.453125,-3.644531 l -2.048828,0.953124 c -0.398083,-1.696151 -0.854546,-3.376639 -1.308594,-5.058593 0.901581,-2.899523 1.857844,-5.787484 3.158203,-8.529297 z"
       id="path4945" />
    <path
       style="fill:#4e9a06;stroke:none;stroke-width:4.99999"
       d="m 59.425781,36.566406 -1.242187,0.615235 c -0.0382,1.181882 0.03879,2.359308 0.162109,3.533203 l -2.429687,1.220703 c -0.02081,1.752066 0.0099,3.503921 0.02344,5.255859 -0.151548,0.563577 -0.301733,1.12767 -0.451172,1.691406 l 0.457031,-0.21875 c 0.01098,1.09048 0.0042,2.181 0.01563,3.271485 0.0156,1.560692 -0.0233,3.121641 -0.0625,4.681641 l 2.486328,-1.263672 c -0.0155,-1.544554 -0.03152,-3.090192 -0.04492,-4.634766 -0.02544,-1.321979 -0.03943,-2.646682 -0.04297,-3.970703 0.17764,-0.741335 0.355855,-1.483236 0.548828,-2.220703 0.0061,0.0435 0.01156,0.08737 0.01758,0.130859 0.18435,1.20862 0.08562,0.643745 0.283203,1.697266 l 1.195313,-0.638672 c -0.22153,-1.03461 -0.11184,-0.479684 -0.318359,-1.671875 -0.125921,-0.832637 -0.23651,-1.673 -0.34961,-2.511719 0.02314,-0.07982 0.04311,-0.160456 0.06641,-0.240234 l -0.09375,0.04492 c -0.207486,-1.585627 -0.357608,-3.17534 -0.220703,-4.771485 z"
       id="path4943" />
    <path
       style="fill:#4e9a06;stroke:none;stroke-width:4.99999"
       d="m 64,34.863281 -0.708984,0.339844 c -0.0746,1.138425 -0.16129,2.276872 -0.22461,3.416016 -0.0776,0.701959 0.01243,1.419659 -0.109375,2.115234 -0.22242,0.75824 -0.581723,1.470311 -0.976562,2.152344 -0.22299,0.402673 -0.11932,0.206116 -0.3125,0.58789 L 64,42.421875 Z"
       id="path4941" />
    <path
       style="fill:#4e9a06;stroke:none;stroke-width:4.99999"
       d="M 34.671875,34.660156 32.039062,36.0625 c 0.154189,0.826755 0.08284,0.387974 0.210938,1.318359 l 2.568359,-1.347656 c -0.10111,-0.960405 -0.05032,-0.503389 -0.146484,-1.373047 z"
       id="path4939" />
    <path
       style="fill:#4e9a06;stroke:none;stroke-width:4.99999"
       d="m 47.347656,34.349609 -2.628906,1.328125 c 0.35038,2.769638 0.511281,5.560575 0.650391,8.347657 0.012,0.262169 0.02501,0.522987 0.03711,0.785156 l 2.570312,-1.332031 c -0.0237,-0.256797 -0.04671,-0.512734 -0.07031,-0.769532 -0.28011,-2.777176 -0.576004,-5.565361 -0.558594,-8.359375 z"
       id="path4937" />
    <path
       style="fill:#4e9a06;stroke:none;stroke-width:4.99999"
       d="M 2.0117188,33.900391 0,34.863281 v 7.558594 l 0.39453125,-0.177734 c 0.18671981,-0.365994 0.0874815,-0.178088 0.30078125,-0.570313 0.3915396,-0.713649 0.7585027,-1.465055 0.9453125,-2.259766 0.0778,-0.703737 0.015494,-1.414433 0.058594,-2.121093 0.0427,-1.133651 0.07529,-2.279935 0.3124998,-3.392578 z"
       id="path4933" />
    <path
       style="fill:#4e9a06;stroke:none;stroke-width:4.99999"
       d="m 16.294922,32.705078 -2.558594,1.417969 c 1.052609,2.549876 1.6658,5.250959 2.25586,7.9375 0.0691,0.308358 0.137911,0.617423 0.207031,0.925781 L 18.71875,41.625 c -0.0824,-0.299943 -0.165607,-0.600448 -0.248047,-0.900391 -0.684239,-2.683937 -1.371162,-5.368545 -2.175781,-8.019531 z"
       id="path4931" />
    <path
       style="fill:#4e9a06;stroke:none;stroke-width:4.99999"
       d="m 41.769531,32.308594 -1.199219,0.646484 c 1.458259,4.637901 2.491761,9.38821 3.40625,14.158203 l 1.072266,-0.572265 C 44.047379,41.775873 42.96221,37.029743 41.769531,32.308594 Z"
       id="path4929" />
    <path
       style="fill:#4e9a06;stroke:none;stroke-width:4.99999"
       d="m 43.777344,22.785156 -2.591797,1.294922 c -0.0386,1.615519 -0.1633,3.228663 -0.28125,4.839844 l 2.537109,-1.275391 c 0.0713,-1.622296 0.144438,-3.245801 0.335938,-4.859375 z"
       id="path4927" />
    <path
       style="fill:#4e9a06;stroke:none;stroke-width:4.99999"
       d="m 64,21.691406 -2.539062,1.396485 c 0.631439,1.40906 0.968081,2.918119 1.300781,4.417968 0.1722,1.007413 0.438236,1.993398 0.666015,2.988282 0.14113,0.56781 0.06545,0.295598 0.228516,0.8125 L 64,31.117188 Z"
       id="path4925" />
    <path
       style="fill:#4e9a06;stroke:none;stroke-width:4.99999"
       d="M 0.09960937,21.636719 0,21.691406 v 9.425782 L 2.2636719,29.873047 C 2.094962,29.385047 2.1746467,29.64434 2.0292969,29.095703 1.8052871,28.1044 1.5479698,27.119502 1.3125,26.130859 0.93963037,24.623228 0.56478891,23.119336 0.09960937,21.636719 Z"
       id="path4923" />
    <path
       style="fill:#4e9a06;stroke:none;stroke-width:4.99999"
       d="m 19.052734,20.919922 -2.623046,1.386719 c 0.511879,2.188884 0.787405,4.422291 1.009765,6.65625 l 2.53125,-1.326172 c -0.30805,-2.238246 -0.645079,-4.473857 -0.917969,-6.716797 z"
       id="path4921" />
    <path
       style="fill:#4e9a06;stroke:none;stroke-width:4.99999"
       d="m 12.820312,19.65625 -2.623046,1.384766 c 0.504569,2.089759 0.911961,4.198228 1.27539,6.316406 0.18658,0.986797 0.305582,1.983449 0.419922,2.980469 l 2.541016,-1.335938 c -0.14199,-0.995102 -0.282929,-1.989042 -0.449219,-2.980469 -0.4025,-2.118628 -0.881073,-4.226535 -1.164063,-6.365234 z"
       id="path4919" />
    <path
       style="fill:#4e9a06;stroke:none;stroke-width:4.99999"
       d="m 32.855469,14.654297 -2.695313,1.337891 c -0.840659,2.86994 -2.118289,5.593569 -3.267578,8.349609 -0.607669,1.405888 -1.202724,2.814777 -1.683594,4.269531 l 2.648438,-1.248047 c 0.433569,-1.423014 1.004246,-2.793422 1.541016,-4.179687 0.513109,-1.315764 0.598629,-1.555568 1.167968,-2.921875 0.776359,-1.863086 1.646053,-3.691703 2.289063,-5.607422 z"
       id="path4917" />
    <path
       style="fill:#4e9a06;stroke:none;stroke-width:4.99999"
       d="m 49.914062,17.683594 -2.646484,1.394531 c 0.7393,3.022208 1.096665,6.117849 1.394531,9.210937 -0.686472,-2.065161 -1.394237,-4.123152 -2.193359,-6.146484 l -2.607422,1.501953 c 1.526919,2.613462 2.385123,5.556867 3.201172,8.453125 0.35777,1.392991 0.197832,0.738307 0.482422,1.958985 l 1.443359,-0.783203 c 0.009,0.310571 0.02731,0.620923 0.03125,0.93164 -2.9e-4,0.138235 -0.0017,0.275829 -0.002,0.414063 l 2.644531,-1.351563 c -0.005,-0.137102 -0.0087,-0.275007 -0.01367,-0.412109 -0.0735,-1.659338 -0.291899,-3.304514 -0.486329,-4.953125 -0.409299,-3.407023 -0.877547,-6.807633 -1.248047,-10.21875 z"
       id="path4915" />
    <path
       style="fill:#4e9a06;stroke:none;stroke-width:4.99999"
       d="M 11.513672,13.265625 8.8125,14.533203 c -0.7378993,2.717808 -1.550529,5.41429 -2.3925781,8.101563 -0.4775895,1.531861 -0.2529086,0.807058 -0.6738281,2.173828 l 2.578125,-1.22461 c 0.3557396,-1.335453 0.1625147,-0.627052 0.5839843,-2.126953 0.8112892,-2.747113 1.6050199,-5.506713 2.6054689,-8.191406 z"
       id="path4913" />
    <path
       style="fill:#4e9a06;stroke:none;stroke-width:4.99999"
       d="m 36.896484,11.105469 -2.603515,1.326172 c 0.32929,4.431739 0.379844,8.878116 0.388672,13.320312 L 37.064453,24.53125 C 36.884749,20.060013 36.704955,15.57857 36.896484,11.105469 Z"
       id="path4911" />
    <path
       style="fill:#4e9a06;stroke:none;stroke-width:4.99999"
       d="m 51.066406,5.9726562 -2.625,1.4667969 c 1.417359,2.2321112 2.066103,4.7343119 2.664063,7.2792969 0.362259,1.661604 0.631421,3.342761 0.77539,5.037109 l 2.587891,-1.353515 c -0.21065,-1.677862 -0.591333,-3.325473 -0.976562,-4.970703 -0.416,-1.671634 -0.798181,-3.375887 -1.375,-5.0019535 C 51.995418,8.0864084 51.45241,6.8897362 51.275391,6.4785156 51.203391,6.3112858 51.135896,6.1409371 51.066406,5.9726562 Z"
       id="path4909" />
    <path
       style="fill:#4e9a06;stroke:none;stroke-width:4.99999"
       d="m 27.398438,4.2773438 -2.664063,1.3847656 c 0.0124,4.3234831 -0.237785,8.6457396 -0.458984,12.9628906 -0.0993,1.597063 -0.147313,3.197063 -0.164063,4.796875 l 2.072266,-1.060547 c -0.349962,1.104292 -0.692879,2.211874 -1.03125,3.31836 l 1.154297,-0.546876 c 0.839009,-2.822612 1.679331,-5.662658 2.90625,-8.345703 l -1.263672,0.578125 c -0.476996,1.161298 -0.895054,2.344386 -1.292969,3.535157 -0.03794,-1.155763 -0.05775,-2.312401 -0.01953,-3.46875 0.0936,-4.390636 0.228589,-8.7914832 0.761719,-13.1542972 z"
       id="path4907" />
    <path
       style="fill:#4e9a06;stroke:none;stroke-width:4.99999"
       d="m 22.585938,2.2460938 -1.251954,0.6386718 c 0.24372,2.6573684 0.740013,5.2829016 1.138672,7.9199224 0.0526,0.369024 0.105623,0.738397 0.158203,1.107421 l 1.166016,-0.617187 c -0.0591,-0.365834 -0.118624,-0.731823 -0.177734,-1.097656 -0.4316,-2.6351636 -0.961934,-5.2754889 -1.033203,-7.9511722 z"
       id="path4905" />
    <path
       style="fill:#4e9a06;stroke:none;stroke-width:4.99999"
       d="M 62.486328,1.2304688 59.808594,2.59375 c 0.14376,1.8010772 0.122747,3.6107414 0.117187,5.4160156 l 2.44336,-1.2441406 c -0.006,-1.8449012 -0.02291,-3.6941581 0.117187,-5.5351562 z"
       id="path4903" />
    <path
       style="fill:#4e9a06;stroke:none;stroke-width:4.99999"
       d="M 53.142578,0.83398438 51.896484,1.46875 c 0.0363,1.4050306 0.02432,2.8115063 0.01172,4.2167969 L 53.130859,5.0625 c -0.0128,-1.4092516 -0.02418,-2.819516 0.01172,-4.22851562 z"
       id="path4901" />
    <path
       style="fill:#4e9a06;stroke:none;stroke-width:4.99999"
       d="m 44.269531,0 c 0.02478,0.25495228 0.06208,0.50879421 0.08594,0.76367188 0.11372,1.94149202 0.314726,3.87454292 0.472656,5.81250002 L 47.363281,5.2558594 C 47.186171,3.5028128 47.003376,1.7500888 46.798828,0 Z"
       id="path4899" />
    <path
       style="fill:#4e9a06;stroke:none;stroke-width:4.99999"
       d="m 40.746094,0 c 0.03987,0.81312302 0.09497,1.6259645 0.126953,2.4394531 0.13648,1.5468665 0.248786,3.0934498 0.322265,4.6445313 L 43.697266,5.7929688 C 43.604966,4.2413933 43.531619,2.6880975 43.380859,1.140625 43.346931,0.760223 43.306915,0.38026823 43.271484,0 Z"
       id="path4897" />
    <path
       style="fill:#4e9a06;stroke:none;stroke-width:4.99999"
       d="m 15.119141,0 c 0.475798,2.600599 0.791384,5.2247966 1.021484,7.8574219 0.24567,2.4803971 -0.283096,4.9247661 -0.796875,7.3359371 l 2.548828,-1.234375 C 18.340868,11.521388 18.90915,9.0505697 18.625,6.5585938 18.37687,4.3721867 18.088704,2.1903584 17.878906,0 Z"
       id="path4895" />
    <path
       style="fill:#4e9a06;stroke:none;stroke-width:4.99999"
       d="M 8.1289062,0 C 8.0884608,0.54358362 8.0566655,1.0884224 8.015625,1.6308594 7.9438435,2.643101 7.8556595,3.6545511 7.7753906,4.6660156 l -1.5,0.6855469 C 5.6550412,6.7115621 5.078505,8.0930346 4.4785156,9.4628906 3.6174165,11.702154 2.7219728,13.926913 1.7773438,16.132812 l 2.578125,-1.189453 C 5.2411079,12.699626 6.1473822,10.464541 7.1132812,8.2539062 7.2828872,7.8586812 7.4545784,7.4626701 7.6230469,7.0664062 7.6157971,7.2150344 7.5996264,7.3629961 7.59375,7.5117188 7.58775,7.7162015 7.5817719,7.9205162 7.5761719,8.125 L 10.189453,6.8007812 c 0.003,-0.2021837 0.0068,-0.4032849 0.0098,-0.6054687 0.0025,-0.099017 0.01098,-0.1978622 0.01367,-0.296875 0.284168,2.1976991 0.521084,4.4009775 0.763671,6.6035155 0.0383,0.221496 0.07698,0.442564 0.115235,0.664063 l 1.203125,-0.638672 c -0.0431,-0.215752 -0.08771,-0.432688 -0.13086,-0.648438 C 11.829673,9.3835452 11.536629,6.8817044 11.324219,4.3730469 l -1.066407,0.5507812 c 0.05073,-1.5077944 0.104797,-3.01664 0.212891,-4.52148435 C 10.480482,0.26819462 10.490049,0.13414147 10.5,0 Z"
       id="path4893" />
    <path
       style="fill:#4e9a06;stroke:none;stroke-width:4.99999"
       d="m 3.0351562,0 c 0.062413,0.39364601 0.1306713,0.78609713 0.1933594,1.1796875 L 4.4101562,0.55273438 C 4.3760982,0.36852676 4.3421335,0.18429877 4.3085938,0 Z"
       id="path4866" />
    <path
       style="fill:#4e9a06;stroke:none;stroke-width:4.99999"
       d="m 20.181646,28.962891 -2.558594,1.417969 c 1.052609,2.549876 1.6658,5.250959 2.25586,7.9375 0.0691,0.308358 0.137911,0.617423 0.207031,0.925781 l 2.519531,-1.361328 c -0.0824,-0.299943 -0.165607,-0.600448 -0.248047,-0.900391 -0.684239,-2.683937 -1.371162,-5.368545 -2.175781,-8.019531 z"
       id="path5047" />
    <path
       style="fill:#73d216;stroke:none;stroke-width:4.99999"
       d="m 12.84375,25.011719 -2.646484,1.347656 c 0.09055,2.731919 0.223856,5.46217 0.460937,8.185547 l 0.128907,1.119141 2.503906,-1.318359 c -0.0566,-0.362061 -0.113282,-0.723877 -0.169922,-1.085938 -0.30363,-2.73832 -0.464804,-5.494229 -0.277344,-8.248047 z"
       id="path5049" />
    <path
       style="fill:#73d216;stroke:none;stroke-width:4.99999"
       d="m 45.986328,33.537109 -2.488281,1.5625 c 3.077267,2.203961 5.98332,4.624705 8.748047,7.207032 0.363759,0.378768 0.728047,0.757951 1.091797,1.136718 l 2.332031,-1.427734 c -0.38233,-0.372427 -0.766118,-0.744761 -1.148438,-1.117187 -2.800217,-2.506802 -5.734219,-4.856566 -8.535156,-7.361329 z"
       id="path5015" />
    <path
       style="fill:#73d216;stroke:none;stroke-width:4.99999"
       d="m 6.6054688,32.414062 -1.2167969,0.69336 c 0.2983082,0.670584 0.5718871,1.351585 0.8535156,2.029297 l -1.0917969,0.589843 c 0.4937895,1.763369 0.9489279,3.535703 1.3671875,5.31836 l 1.8164063,-0.978516 c 0.064394,0.144079 0.119956,0.291976 0.1855468,0.435547 0.3373197,0.738331 0.6960523,1.464323 1.0449219,2.197266 1.1129089,2.242543 2.1632459,4.515772 3.1406249,6.820312 l 1.13086,-0.636719 C 12.802729,46.604796 11.713771,44.354712 10.607422,42.111328 10.266242,41.375633 9.912924,40.643593 9.5839844,39.902344 9.0951373,38.800735 8.6411757,37.685015 8.1972656,36.564453 8.0474778,35.811914 7.8999126,35.059835 7.7890625,34.300781 L 7.4023438,34.509766 C 7.1369297,33.811005 6.8663506,33.114135 6.6054688,32.414062 Z"
       id="path5011" />
    <path
       style="fill:#73d216;stroke:none;stroke-width:4.60087"
       d="m 36.501304,24.196338 2.44337,1.223961 c -0.06671,2.514341 -0.17277,5.027407 -0.374362,7.534779 l -0.111811,1.030567 -2.311997,-1.197871 c 0.04988,-0.333496 0.09983,-0.666768 0.149752,-1.000264 0.262736,-2.521527 0.394285,-5.058371 0.205048,-7.591172 z"
       id="path5051" />
    <path
       style="fill:#73d216;stroke:none;stroke-width:2.96244"
       d="m 24.2936,20.196338 1.012996,1.223961 c -0.02766,2.514341 -0.07163,5.027407 -0.155207,7.534779 l -0.04636,1.030567 -0.95853,-1.197871 c 0.02068,-0.333496 0.04139,-0.666768 0.06209,-1.000264 0.108927,-2.521527 0.163466,-5.058371 0.08501,-7.591172 z"
       id="path5053" />
  </g>
</svg>
