<?xml version="1.0" encoding="UTF-8" standalone="no"?>
<svg
   xmlns:dc="http://purl.org/dc/elements/1.1/"
   xmlns:cc="http://creativecommons.org/ns#"
   xmlns:rdf="http://www.w3.org/1999/02/22-rdf-syntax-ns#"
   xmlns:svg="http://www.w3.org/2000/svg"
   xmlns="http://www.w3.org/2000/svg"
   xmlns:sodipodi="http://sodipodi.sourceforge.net/DTD/sodipodi-0.dtd"
   xmlns:inkscape="http://www.inkscape.org/namespaces/inkscape"
   width="256"
   height="256"
   viewBox="0 0 67.733332 67.733335"
   version="1.1"
   id="svg8"
   inkscape:version="1.0.2 (394de47547, 2021-03-26)"
   sodipodi:docname="grass.svg">
  <defs
     id="defs2" />
  <sodipodi:namedview
     id="base"
     pagecolor="#ffffff"
     bordercolor="#666666"
     borderopacity="1.0"
     inkscape:pageopacity="0.0"
     inkscape:pageshadow="2"
     inkscape:zoom="1.3004036"
     inkscape:cx="193.2146"
     inkscape:cy="223.35903"
     inkscape:document-units="mm"
     inkscape:current-layer="layer1"
     inkscape:document-rotation="0"
     showgrid="false"
     units="px"
     inkscape:snap-page="true"
     inkscape:window-width="1872"
     inkscape:window-height="1136"
     inkscape:window-x="0"
     inkscape:window-y="27"
     inkscape:window-maximized="1" />
  <metadata
     id="metadata5">
    <rdf:RDF>
      <cc:Work
         rdf:about="">
        <dc:format>image/svg+xml</dc:format>
        <dc:type
           rdf:resource="http://purl.org/dc/dcmitype/StillImage" />
        <dc:title></dc:title>
      </cc:Work>
    </rdf:RDF>
  </metadata>
  <g
     inkscape:label="Lager 1"
     inkscape:groupmode="layer"
     id="layer1">
    <rect
       style="fill:#8ae234;stroke:none;stroke-width:4.99999"
       id="rect833"
       width="67.73333"
       height="67.73333"
       x="0"
       y="0" />
    <path
       style="fill:#4e9a06;stroke:none;stroke-width:4.99999"
       id="path835"
       d="m 20.744856,10.825191 c -1.221273,3.618858 -2.395494,7.253665 -3.553433,10.89329 -0.466392,1.484096 -0.892951,2.97999 -1.31029,4.478415 0,0 2.541723,-1.216111 2.541723,-1.216111 v 0 c 0.338755,-1.467557 0.694536,-2.9313 1.12535,-4.375258 1.124182,-3.728444 2.271279,-7.484203 3.943122,-11.0092851 0,0 -2.746472,1.2289491 -2.746472,1.2289491 z" />
    <path
       style="fill:#4e9a06;stroke:none;stroke-width:4.99999"
       id="path837"
       d="m 31.968545,22.230592 c -0.04223,0.148208 -0.08032,0.297661 -0.12669,0.444625 -0.259543,0.822507 -0.173609,0.431711 -0.424759,1.323804 -0.266084,0.945142 -0.448017,1.897739 -0.61712,2.864056 -0.221319,1.293878 -0.390541,2.59543 -0.543584,3.898828 0,0 2.593824,-1.28847 2.593824,-1.28847 v 0 c 0.111909,-1.287817 0.251871,-2.573936 0.491162,-3.845392 0.330073,-1.593558 0.717175,-3.173897 1.353,-4.67775 0,0 -2.725833,1.280299 -2.725833,1.280299 z" />
    <path
       style="fill:#4e9a06;stroke:none;stroke-width:4.99999"
       id="path839"
       d="m 40.033122,40.154174 c -0.620353,1.360001 -1.197618,2.740816 -1.797606,4.110673 -0.861097,2.239266 -1.756857,4.464208 -2.701491,6.670111 0,0 2.579458,-1.189839 2.579458,-1.189839 v 0 c 0.885642,-2.243736 1.791702,-4.479412 2.757609,-6.690048 0.598985,-1.395799 1.162558,-2.81264 1.890781,-4.147658 0,0 -2.728751,1.246761 -2.728751,1.246761 z" />
    <path
       style="fill:#4e9a06;stroke:none;stroke-width:4.99999"
       id="path841"
       d="m 22.198723,42.241723 c 1.417366,2.232113 2.065533,4.734211 2.66349,7.279199 0.362262,1.661607 0.631198,3.342131 0.775164,5.036481 0,0 2.588767,-1.353413 2.588767,-1.353413 v 0 c -0.210645,-1.677863 -0.592032,-3.326143 -0.977262,-4.971375 -0.416007,-1.671635 -0.797526,-3.374874 -1.374347,-5.000942 -0.121772,-0.343279 -0.664817,-1.540857 -0.841837,-1.952078 -0.07199,-0.16723 -0.13899,-0.33656 -0.208485,-0.504841 0,0 -2.62549,1.466969 -2.62549,1.466969 z" />
    <path
       style="fill:#4e9a06;stroke:none;stroke-width:4.99999"
       id="path843"
       d="m 48.872018,34.779196 c 0.478192,2.608265 0.794916,5.238908 1.025713,7.879429 0.245665,2.4804 -0.282935,4.92592 -0.796709,7.337094 0,0 2.547972,-1.235953 2.547972,-1.235953 v 0 c 0.448297,-2.437599 1.017662,-4.906693 0.733515,-7.398671 -0.300595,-2.648664 -0.695288,-5.289055 -0.887944,-7.948242 0,0 -2.622547,1.366343 -2.622547,1.366343 z" />
    <path
       style="fill:#4e9a06;stroke:none;stroke-width:4.99999"
       id="path845"
       d="m 42.629134,11.608894 c -0.432977,1.299966 -0.901821,2.66306 -1.251754,3.976489 -0.288197,1.081721 -0.531066,2.175122 -0.778237,3.266948 -0.702871,3.104775 -1.305698,6.22909 -1.890837,9.357604 0,0 2.246172,-1.096319 2.246172,-1.096319 v 0 c 0.816745,-5.119132 1.681631,-10.312015 3.639026,-15.141448 0.22239,-0.548696 0.499592,-1.073549 0.749387,-1.610323 0,0 -2.713757,1.247049 -2.713757,1.247049 z" />
    <path
       style="fill:#4e9a06;stroke:none;stroke-width:4.99999"
       id="path847"
       d="m 25.672325,14.737787 c -0.03965,3.333552 0.01046,6.666755 0.04526,10.000056 0.01556,1.560694 -0.02233,3.120975 -0.06152,4.680976 0,0 2.486524,-1.264539 2.486524,-1.264539 v 0 c -0.0155,-1.544555 -0.03131,-3.089109 -0.04475,-4.633685 -0.06491,-3.372251 -0.158374,-6.760059 0.22883,-10.117953 0,0 -2.654342,1.335145 -2.654342,1.335145 z" />
    <path
       style="fill:#4e9a06;stroke:none;stroke-width:4.99999"
       id="path849"
       d="m 8.7226192,13.21572 c 0.3039179,3.886454 0.7047381,7.764691 1.0723903,11.645748 0.4139515,4.116389 0.6722855,8.245873 0.8348145,12.379162 0.136479,1.546868 0.249211,3.094768 0.322694,4.645851 0,0 2.502889,-1.292154 2.502889,-1.292154 v 0 c -0.09228,-1.551577 -0.166923,-3.104311 -0.317678,-4.651785 -0.363694,-4.077708 -0.825238,-8.146693 -1.13791,-12.22919 -0.326718,-3.940945 -0.641745,-7.888978 -0.657822,-11.845922 0,0 -2.6193778,1.34829 -2.6193778,1.34829 z" />
    <path
       style="fill:#4e9a06;stroke:none;stroke-width:4.99999"
       id="path851"
       d="m 14.475472,6.4794756 c 0.350371,2.7696393 0.512714,5.5597904 0.65183,8.3468744 0.01202,0.26217 0.02404,0.52434 0.03606,0.786509 0,0 2.57081,-1.332212 2.57081,-1.332212 v 0 c -0.02368,-0.256797 -0.04736,-0.513594 -0.07104,-0.770392 -0.280114,-2.777179 -0.575622,-5.5641442 -0.558219,-8.3581609 0,0 -2.629441,1.3273815 -2.629441,1.3273815 z" />
    <path
       style="fill:#4e9a06;stroke:none;stroke-width:4.99999"
       id="path853"
       d="m 1.7967902,6.8647375 c 0.1541886,0.8267557 0.081888,0.3877503 0.2099904,1.3181362 0,0 2.5692868,-1.3484156 2.5692868,-1.3484156 v 0 C 4.4749571,5.8740521 4.5244519,6.3315492 4.4282918,5.4618905 c 0,0 -2.6315016,1.402847 -2.6315016,1.402847 z" />
    <path
       style="fill:#4e9a06;stroke:none;stroke-width:4.99999"
       id="path855"
       d="m 4.0507411,47.232887 c 0.3292912,4.431744 0.3788061,8.879104 0.3876339,13.321305 0,0 2.3832431,-1.220605 2.3832431,-1.220605 v 0 C 6.6419144,54.862346 6.4618742,50.37987 6.6534037,45.906764 c 0,0 -2.6026626,1.326123 -2.6026626,1.326123 z" />
    <path
       style="fill:#4e9a06;stroke:none;stroke-width:4.99999"
       id="path857"
       d="m 17.024634,49.880522 c 0.808633,3.305627 1.17577,6.697927 1.489576,10.080048 0.141541,1.678562 0.24071,3.361153 0.262059,5.045699 -2.91e-4,0.138235 -5.56e-4,0.276472 -8.47e-4,0.414706 0,0 2.643362,-1.352148 2.643362,-1.352148 v 0 c -0.0047,-0.137102 -0.0093,-0.274201 -0.01396,-0.411303 -0.07352,-1.659339 -0.291952,-3.305625 -0.486382,-4.954238 -0.409301,-3.407026 -0.876523,-6.807745 -1.247022,-10.218867 0,0 -2.646781,1.396103 -2.646781,1.396103 z" />
    <path
       style="fill:#4e9a06;stroke:none;stroke-width:4.99999"
       id="path859"
       d="m 58.492172,40.463742 c 0.01238,4.323487 -0.238963,8.646083 -0.460163,12.963239 -0.09926,1.597065 -0.146452,3.196516 -0.163206,4.79633 0,0 2.583463,-1.32239 2.583463,-1.32239 v 0 c -0.0757,-1.554446 -0.108833,-3.110929 -0.05743,-4.667052 0.09365,-4.390641 0.227306,-8.791612 0.760428,-13.15443 0,0 -2.663095,1.384303 -2.663095,1.384303 z" />
    <path
       style="fill:#4e9a06;stroke:none;stroke-width:4.99999"
       id="path861"
       d="m 43.954557,55.843291 c 0.504568,2.089761 0.91186,4.197757 1.275291,6.315937 0.186582,0.986798 0.30539,1.983767 0.41973,2.980788 0,0 2.540476,-1.335643 2.540476,-1.335643 v 0 c -0.141991,-0.995103 -0.282257,-1.990569 -0.448545,-2.981997 -0.402506,-2.11863 -0.881735,-4.226144 -1.164723,-6.364845 0,0 -2.622229,1.38576 -2.622229,1.38576 z" />
    <path
       style="fill:#4e9a06;stroke:none;stroke-width:4.99999"
       id="path863"
       d="m 57.510822,6.4436354 c 0.94824,3.5956176 1.300202,7.3109716 1.65662,11.0014596 0,0 2.268593,-1.186627 2.268593,-1.186627 v 0 c -0.441944,-3.739725 -0.868392,-7.4814862 -1.29122,-11.2231819 0,0 -2.633993,1.4083493 -2.633993,1.4083493 z" />
    <path
       style="fill:#4e9a06;stroke:none;stroke-width:4.99999"
       id="path865"
       d="m 50.572982,21.415848 c 0.705421,2.766781 0.416671,5.626672 0.102647,8.425127 -0.04731,0.356841 -0.09463,0.713679 -0.141938,1.070518 0,0 2.542704,-1.260412 2.542704,-1.260412 v 0 c 0.03107,-0.350324 0.06214,-0.700648 0.09322,-1.050975 0.227576,-2.869338 0.416552,-5.7506 0.04189,-8.618424 0,0 -2.63852,1.434166 -2.63852,1.434166 z" />
    <path
       style="fill:#4e9a06;stroke:none;stroke-width:4.99999"
       id="path867"
       d="m 33.047974,6.0055971 c -0.07463,1.1384267 -0.161171,2.2760955 -0.224483,3.4152398 -0.07756,0.7019601 0.0131,1.4197301 -0.108717,2.1153061 -0.222417,0.758241 -0.581883,1.469909 -0.976728,2.151942 -0.222988,0.402674 -0.119346,0.20635 -0.312531,0.588125 0,0 2.726256,-1.231338 2.726256,-1.231338 v 0 c 0.186719,-0.365994 0.08703,-0.176276 0.300296,-0.568501 0.391536,-0.71365 0.758066,-1.465195 0.94488,-2.259906 0.07779,-0.7037376 0.01696,-1.4153749 0.06007,-2.1220352 0.0427,-1.133652 0.07496,-2.2797833 0.312209,-3.3924274 0,0 -2.721253,1.3035947 -2.721252,1.3035947 z" />
    <path
       style="fill:#73d216;stroke:none;stroke-width:4.99999"
       id="path869"
       d="m 17.608215,33.318034 c 0.06731,1.354725 0.0516,2.711802 0.02778,4.067445 0.01383,1.297051 -0.04008,2.594118 -0.08851,3.890071 0,0 2.576982,-1.30247 2.576982,-1.30247 v 0 c 0.0364,-1.307057 0.113018,-2.612826 0.127054,-3.920275 -0.02442,-1.365102 -0.03819,-2.731524 0.02778,-4.095758 0,0 -2.67109,1.360987 -2.67109,1.360987 z" />
    <path
       style="fill:#73d216;stroke:none;stroke-width:4.99999"
       id="path871"
       d="m 3.1516396,18.42568 c 0.5514507,2.506922 0.6663169,5.087526 0.7834921,7.644286 0.012528,0.405893 0.025059,0.811788 0.037587,1.217682 0,0 2.4970401,-1.287399 2.4970401,-1.287399 v 0 c -0.026065,-0.39969 -0.05213,-0.799379 -0.078195,-1.199068 -0.168657,-2.593767 -0.3219706,-5.19032 -0.5904851,-7.776037 0,0 -2.6494399,1.400536 -2.6494391,1.400536 z" />
    <path
       style="fill:#73d216;stroke:none;stroke-width:4.99999"
       id="path873"
       d="m 14.659728,23.164426 c -0.108667,2.222044 0.126996,4.444381 0.239566,6.66273 0.08286,2.112828 0.04883,1.083929 0.104017,3.086629 0,0 2.454716,-1.262631 2.454716,-1.262631 v 0 c -0.09805,-1.986375 -0.05012,-0.963486 -0.142839,-3.068706 -0.08919,-2.256967 -0.262508,-4.535536 0.02656,-6.78458 0,0 -2.682021,1.366558 -2.68202,1.366558 z" />
    <path
       style="fill:#73d216;stroke:none;stroke-width:4.99999"
       id="path875"
       d="m 35.136211,20.197405 c 0.482227,1.643249 0.608523,3.365253 0.728858,5.065633 0.07988,1.309153 0.107636,2.620685 0.109059,3.932026 0,0 2.597716,-1.327849 2.597716,-1.327849 v 0 c -0.03263,-1.307914 -0.05855,-2.61679 -0.17077,-3.921034 -0.14515,-1.736837 -0.301366,-3.477553 -0.625321,-5.191817 0,0 -2.639542,1.443041 -2.639542,1.443041 z" />
    <path
       style="fill:#73d216;stroke:none;stroke-width:4.99999"
       id="path877"
       d="m 48.747648,6.9851923 c 1.188749,3.4290017 2.335273,6.8708017 3.383354,10.3456207 0.643551,2.225527 1.196795,4.474317 1.711214,6.7325 0,0 2.520783,-1.363394 2.520783,-1.363394 v 0 C 55.754529,20.479521 55.120714,18.266883 54.43584,16.068567 53.792712,14.011649 53.151484,11.954341 52.526924,9.8916878 52.303513,9.1538556 51.785548,7.4565898 51.575342,6.6455945 51.483463,6.291114 51.414118,5.9311717 51.333505,5.5739601 c 0,0 -2.585857,1.4112322 -2.585857,1.4112322 z" />
    <path
       style="fill:#73d216;stroke:none;stroke-width:4.99999"
       id="path879"
       d="m 59.084032,26.449318 c -0.998175,2.992888 -2.275533,5.882469 -3.500313,8.787051 -0.743074,1.801215 -1.479002,3.606356 -2.344925,5.35269 0,0 2.631186,-1.1939 2.631186,-1.1939 v 0 c 0.825121,-1.729915 1.549537,-3.503295 2.20023,-5.306124 1.189513,-2.985275 2.444257,-5.944235 3.714575,-8.895909 0,0 -2.700753,1.256192 -2.700753,1.256192 z" />
    <path
       style="fill:#73d216;stroke:none;stroke-width:4.99999"
       id="path881"
       d="m 34.397479,37.21037 c 0.870317,2.118077 1.327642,4.384696 1.72729,6.631876 0.0363,0.312396 0.07259,0.62479 0.108881,0.937183 0,0 2.533097,-1.331076 2.533097,-1.331076 v 0 c -0.04314,-0.315711 -0.08629,-0.631425 -0.129426,-0.947137 -0.469242,-2.261322 -1.053055,-4.49767 -1.612511,-6.737831 0,0 -2.627331,1.446985 -2.627331,1.446985 z" />
    <path
       style="fill:#73d216;stroke:none;stroke-width:4.99999"
       id="path883"
       d="m 32.088275,45.604562 c 0.09744,1.723818 0.07385,3.451669 0.04625,5.177141 -0.01693,0.813758 -0.01,0.422439 -0.0213,1.173949 0,0 2.623519,-1.336749 2.623519,-1.336749 v 0 c -0.01127,-0.738765 -0.0043,-0.35468 -0.0213,-1.152245 -0.02832,-1.741225 -0.04916,-3.484599 0.04624,-5.224267 0,0 -2.67341,1.362171 -2.673409,1.362171 z" />
    <path
       style="fill:#73d216;stroke:none;stroke-width:4.99999"
       id="path885"
       d="m 26.642711,36.115127 c -0.409176,2.057551 -0.829933,4.125902 -0.991208,6.221495 -0.03712,0.482343 -0.04254,0.966604 -0.06381,1.449906 -0.03097,1.457094 -0.02648,2.91484 0.03786,4.37081 0,0 2.568827,-1.330139 2.568827,-1.330139 v 0 c -0.124925,-1.424035 -0.168859,-2.854045 -0.139398,-4.28361 0.02278,-0.477467 0.03047,-0.955894 0.06833,-1.432401 0.16891,-2.125602 0.580647,-4.245742 1.219751,-6.278597 0,0 -2.700356,1.282536 -2.700356,1.282536 z" />
    <path
       style="fill:#73d216;stroke:none;stroke-width:4.99999"
       id="path887"
       d="m 9.762293,50.58507 c 0.095098,1.667606 0.067334,3.339624 0.040104,5.008854 0,0 2.563947,-1.306396 2.563947,-1.306396 v 0 c -0.02792,-1.682898 -0.05319,-3.368352 0.0401,-5.049721 0,0 -2.6441547,1.347263 -2.6441547,1.347263 z" />
    <path
       style="fill:#73d216;stroke:none;stroke-width:4.99999"
       id="path889"
       d="m 2.6298057,33.911256 c -0.1495915,2.534905 -0.5526083,5.045022 -0.9301614,7.553415 -0.052434,0.345051 -0.1048676,0.690102 -0.1573014,1.035154 0,0 2.5515896,-1.257787 2.5515896,-1.257787 v 0 c 0.038601,-0.337786 0.077202,-0.675572 0.1158023,-1.013357 0.3199202,-2.566204 0.6953107,-5.125051 1.0944275,-7.680076 0,0 -2.6743566,1.362651 -2.6743566,1.362651 z" />
    <path
       style="fill:#73d216;stroke:none;stroke-width:4.99999"
       id="path891"
       d="m 7.270193,40.374133 c 0.09055,2.731921 0.2241494,5.461545 0.4612311,8.184925 0.04313,0.372978 0.08626,0.745953 0.1293903,1.118931 0,0 2.5029666,-1.318152 2.5029666,-1.318152 v 0 c -0.05663,-0.362061 -0.113267,-0.724125 -0.169901,-1.086186 -0.3036363,-2.738323 -0.4641328,-5.494419 -0.2766732,-8.24824 0,0 -2.6470138,1.348722 -2.6470138,1.348722 z" />
    <circle
       id="path893"
       style="fill:#73d216;stroke:#000000;stroke-width:0.264583"
       cx="6.6419992"
       cy="36.46814"
       r="0.50814748" />
    <path
       style="fill:#73d216;stroke:none;stroke-width:4.99999"
       id="path895"
       d="m 9.8155111,27.480667 c -0.8235823,1.637059 -1.7806982,3.201403 -2.6047107,4.838811 -0.074134,0.158015 -0.1482673,0.316029 -0.2224006,0.474044 0,0 2.68293,-1.22608 2.68293,-1.22608 v 0 c 0.066142,-0.151225 0.1322845,-0.302453 0.1984269,-0.453681 0.7926133,-1.668179 1.7098603,-3.272705 2.6727963,-4.847976 0,0 -2.7270419,1.214882 -2.7270419,1.214882 z" />
    <path
       style="fill:#73d216;stroke:none;stroke-width:4.99999"
       id="path897"
       d="m 7.3653342,7.4341973 c 0.3378682,1.8945267 0.4451654,3.8178597 0.6205556,5.7311637 0.06908,0.366328 0.1337157,0.733522 0.2072399,1.098984 1.0024851,4.982973 -0.4642233,-2.461469 0.51997,2.49786 0.1846607,0.930501 0.3514283,1.850914 0.6024118,2.765835 0.067017,0.178743 0.1340345,0.357487 0.2010516,0.53623 0,0 2.5662929,-1.435227 2.5662929,-1.435227 v 0 c -0.07295,-0.164823 -0.1459,-0.329646 -0.218851,-0.49447 -0.666569,-2.04037 -1.002752,-4.18585 -1.321494,-6.302602 -0.189734,-1.9199627 -0.424176,-3.8362048 -0.5578857,-5.7611147 0,0 -2.6192911,1.363341 -2.6192911,1.363341 z" />
    <path
       style="fill:#73d216;stroke:none;stroke-width:4.99999"
       id="path899"
       d="m 13.255496,5.9003615 c 3.077273,2.2039632 5.98353,4.6262015 8.748266,7.2085305 0.363751,0.378769 0.727501,0.757537 1.091251,1.136305 0,0 2.331197,-1.427463 2.331197,-1.427463 v 0 C 25.043881,12.445307 24.661552,12.07288 24.279223,11.700453 21.479005,9.1936489 18.544794,6.8443702 15.743857,4.3396058 c 0,0 -2.488361,1.5607557 -2.488361,1.5607557 z" />
    <path
       style="fill:#73d216;stroke:none;stroke-width:4.99999"
       id="path901"
       d="m 38.907553,6.5282174 c 0.493797,1.7633696 0.9486,3.5352586 1.366864,5.3179176 0,0 2.358165,-1.268779 2.358165,-1.268779 v 0 C 42.232071,8.7609465 41.814326,6.9432391 41.545401,5.101723 c 0,0 -2.637848,1.4264944 -2.637848,1.4264944 z" />
    <path
       style="fill:#73d216;stroke:none;stroke-width:4.99999"
       id="path903"
       d="m 61.172944,63.157417 c 0.399026,1.577289 0.577606,3.201566 0.726244,4.8188 0.01252,0.162304 0.02503,0.324607 0.03756,0.48691 0,0 2.618645,-1.368726 2.618645,-1.368726 v 0 c -0.02098,-0.159002 -0.04198,-0.318 -0.06297,-0.477002 -0.223803,-1.625139 -0.470535,-3.247067 -0.684191,-4.873577 0,0 -2.635295,1.413595 -2.635295,1.413595 z" />
    <path
       style="fill:#73d216;stroke:none;stroke-width:4.99999"
       id="path905"
       d="m 53.33149,51.924875 c 0.411708,0.967198 0.591503,2.009328 0.786196,3.035819 0,0 2.523525,-1.346377 2.523525,-1.346377 v 0 c -0.20165,-1.048589 -0.394227,-2.09958 -0.656463,-3.13526 0,0 -2.653258,1.445818 -2.653258,1.445818 z" />
    <path
       style="fill:#73d216;stroke:none;stroke-width:4.99999"
       id="path907"
       d="m 36.408267,58.843531 c 0.06826,0.947044 0.06017,1.897086 0.06071,2.845819 0,0 2.534298,-1.291289 2.534298,-1.291289 v 0 c 5.3e-4,-0.969385 -0.006,-1.939893 0.06071,-2.907688 0,0 -2.655721,1.353158 -2.655721,1.353158 z" />
    <path
       style="fill:#73d216;stroke:none;stroke-width:4.99999"
       id="path909"
       d="m 25.95667,56.957801 c 1.153012,2.132176 2.052124,4.385479 2.853983,6.668971 0.251191,0.702265 0.476819,1.412838 0.690153,2.1273 0,0 2.57538,-1.418532 2.57538,-1.418532 v 0 c -0.257485,-0.695976 -0.523997,-1.388451 -0.800605,-2.077095 -0.884495,-2.261492 -1.841323,-4.49426 -2.694816,-6.767261 0,0 -2.624095,1.466617 -2.624095,1.466617 z" />
    <path
       style="fill:#73d216;stroke:none;stroke-width:4.99999"
       id="path911"
       d="m 61.565059,30.885553 c 0.07791,1.470491 0.04759,2.944241 0.01834,4.415742 0.01722,0.199663 0.0208,0.400971 0.05165,0.598985 0.04518,0.290028 0.117605,0.575151 0.176051,0.862801 0.19875,0.978189 0.316371,1.518251 0.47719,2.545739 0.198839,1.270402 0.249959,1.853226 0.391519,3.122247 0.158306,1.744737 0.08262,0.912821 0.226955,2.495757 0,0 2.504638,-1.311437 2.504638,-1.311437 v 0 c -0.205634,-1.552445 -0.10333,-0.733472 -0.302741,-2.457437 -0.185756,-1.541145 -0.361138,-3.085023 -0.580258,-4.6219 -0.108868,-0.763577 -0.214167,-1.241652 -0.2897,-1.986137 -0.01969,-0.194101 -0.02257,-0.389543 -0.03385,-0.584314 -0.03,-1.477759 -0.0583,-2.957607 0.01833,-4.434424 0,0 -2.658115,1.354378 -2.658115,1.354378 z" />
    <path
       style="fill:#73d216;stroke:none;stroke-width:4.99999"
       id="path913"
       d="m 63.309716,7.2660581 c 0.316963,2.2902028 0.445045,4.6025279 0.516641,6.9119479 0.05371,2.996401 -0.0016,6.0004 -0.218953,8.990141 0,0 2.550486,-1.283825 2.550486,-1.283825 v 0 c 0.07454,-2.980373 0.0828,-5.963049 0.08401,-8.944151 -0.03631,-2.350899 -0.170778,-4.6961484 -0.24215,-7.0447512 0,0 -2.690029,1.3706383 -2.690029,1.3706383 z" />
    <path
       style="fill:#4e9a06;stroke:none;stroke-width:4.99999"
       id="path915"
       d="m 42.002516,29.478811 c 0.164211,2.318631 -0.05559,4.642533 -0.230476,6.95394 -0.139041,1.960701 -0.343773,3.916387 -0.421396,5.880839 -0.0056,0.204483 -0.01111,0.408963 -0.01667,0.613447 0,0 2.613189,-1.324317 2.613189,-1.324317 v 0 c 0.0033,-0.202184 0.0066,-0.404368 0.01,-0.606552 0.04909,-1.932201 0.132035,-3.863771 0.270528,-5.791774 0.172334,-2.364166 0.375412,-4.726921 0.464619,-7.096088 0,0 -2.68977,1.370505 -2.68977,1.370505 z" />
    <path
       style="fill:#4e9a06;stroke:none;stroke-width:4.99999"
       id="path917"
       d="m 26.803889,15.395567 c -0.404404,2.122511 -1.005017,4.201599 -1.558292,6.288732 0,0 2.58872,-1.24072 2.58872,-1.24072 v 0 c 0.491424,-2.132536 1.049605,-4.249123 1.663134,-6.349797 0,0 -2.693562,1.301785 -2.693562,1.301785 z" />
    <path
       style="fill:#4e9a06;stroke:none;stroke-width:4.99999"
       id="path919"
       d="m 21.009018,23.476739 c -0.970893,3.020713 -2.133748,5.974463 -3.246282,8.944593 0,0 2.524654,-1.178914 2.524654,-1.178914 v 0 c 1.035961,-3.039068 2.145066,-6.056773 3.403587,-9.011203 0,0 -2.681959,1.245524 -2.681959,1.245524 z" />
    <path
       style="fill:#4e9a06;stroke:none;stroke-width:4.99999"
       id="path921"
       d="m 12.664318,26.035946 c 0.791598,3.121166 1.148767,6.33025 1.448252,9.529565 0.113721,1.941494 0.315237,3.874955 0.473172,5.812914 0,0 2.5345,-1.320572 2.5345,-1.320572 v 0 c -0.193509,-1.915277 -0.388363,-3.830471 -0.617391,-5.741906 -0.3763,-3.23265 -0.768905,-6.462874 -1.205008,-9.688004 0,0 -2.633525,1.408003 -2.633525,1.408003 z" />
    <path
       style="fill:#4e9a06;stroke:none;stroke-width:4.99999"
       id="path923"
       d="m 10.941891,58.88239 c -0.03863,1.61552 -0.161821,3.227412 -0.279778,4.838594 0,0 2.536988,-1.273979 2.536988,-1.273979 v 0 c 0.07131,-1.622298 0.144709,-3.246461 0.336208,-4.860036 0,0 -2.593418,1.295421 -2.593418,1.295421 z" />
    <path
       style="fill:#4e9a06;stroke:none;stroke-width:4.99999"
       id="path925"
       d="m 13.618616,54.446167 c 1.526918,2.613464 2.384778,5.556181 3.20083,8.452442 0.35777,1.392992 0.198686,0.739206 0.48327,1.959885 0,0 2.529635,-1.373118 2.529635,-1.373118 v 0 c -0.358322,-1.189228 -0.162872,-0.551347 -0.589216,-1.912761 -0.93772,-2.898383 -1.897169,-5.794962 -3.016381,-8.628739 0,0 -2.608138,1.502291 -2.608138,1.502291 z" />
    <path
       style="fill:#4e9a06;stroke:none;stroke-width:4.99999"
       id="path927"
       d="m 47.493462,4.9242061 c 1.05261,2.5498795 1.665785,5.2520029 2.255848,7.9385469 0.06912,0.308358 0.138231,0.616715 0.207346,0.925073 0,0 2.518804,-1.361859 2.518804,-1.361859 v 0 C 52.39302,12.126024 52.310572,11.826081 52.22813,11.526138 51.543889,8.8421979 50.857216,6.1584678 50.052594,3.5074785 c 0,0 -2.559132,1.4167276 -2.559132,1.4167276 z" />
    <path
       style="fill:#4e9a06;stroke:none;stroke-width:4.99999"
       id="path929"
       d="m 46.442203,19.459331 c -0.18683,2.203289 -0.328297,4.41116 -0.483835,6.617177 -0.05677,1.456256 -0.15167,2.907702 -0.291029,4.358594 0,0 2.589731,-1.292111 2.589731,-1.292111 v 0 c 0.105731,-1.44662 0.226952,-2.892357 0.242975,-4.343726 0.09104,-2.225982 0.182557,-4.47166 0.63822,-6.658025 0,0 -2.696062,1.318091 -2.696062,1.318091 z" />
    <path
       style="fill:#4e9a06;stroke:none;stroke-width:4.99999"
       id="path931"
       d="m 59.09837,22.471083 c 1.338426,2.585525 2.360811,5.319509 3.252689,8.086275 0.117801,0.407432 0.235601,0.814862 0.353402,1.222291 0,0 2.453007,-1.344435 2.453007,-1.344435 v 0 c -0.133456,-0.401183 -0.266909,-0.802368 -0.400365,-1.20355 -0.961921,-2.75985 -2.009986,-5.488117 -3.07341,-8.210267 0,0 -2.585323,1.449686 -2.585323,1.449686 z" />
    <path
       style="fill:#4e9a06;stroke:none;stroke-width:4.99999"
       id="path933"
       d="m 63.918234,50.794337 c -0.840653,2.869944 -2.118479,5.592546 -3.267768,8.348589 -0.607669,1.40589 -1.203018,2.816132 -1.683885,4.270888 0,0 2.647743,-1.248008 2.647743,-1.248008 v 0 c 0.433578,-1.423016 1.004208,-2.794119 1.540976,-4.180385 0.513106,-1.315765 0.599006,-1.556578 1.16835,-2.922886 0.776356,-1.863088 1.64593,-3.69166 2.288934,-5.607381 0,0 -2.69435,1.339183 -2.69435,1.339183 z" />
    <path
       style="fill:#4e9a06;stroke:none;stroke-width:4.99999"
       id="path935"
       d="m 50.186706,57.108812 c 0.511879,2.188887 0.788307,4.422095 1.010671,6.656056 0,0 2.53015,-1.326972 2.53015,-1.326972 v 0 C 53.41948,60.199648 53.081964,57.965342 52.809081,55.7224 c 0,0 -2.622375,1.386412 -2.622375,1.386412 z" />
    <path
       style="fill:#4e9a06;stroke:none;stroke-width:4.99999"
       id="path937"
       d="m 42.569421,49.335242 c -0.7379,2.717811 -1.550017,5.413063 -2.392061,8.100338 -0.477592,1.531863 -0.253183,0.807138 -0.674098,2.173909 0,0 2.577933,-1.223888 2.577933,-1.223888 v 0 c 0.355743,-1.335455 0.162306,-0.62638 0.583774,-2.126282 0.811292,-2.747116 1.605042,-5.507892 2.605493,-8.192587 0,0 -2.701041,1.26851 -2.701041,1.26851 z" />
    <path
       style="fill:#4e9a06;stroke:none;stroke-width:4.99999"
       id="path939"
       d="m 31.218298,57.890359 c 0.631439,1.409062 0.967245,2.917539 1.299948,4.417391 0.172204,1.007414 0.439637,1.992791 0.667417,2.987675 0.141137,0.567811 0.06413,0.296904 0.227177,0.813805 0,0 2.607148,-1.43487 2.607148,-1.43487 v 0 c -0.168711,-0.488 -0.08885,-0.229256 -0.234153,-0.777893 -0.22401,-0.991304 -0.480201,-1.975274 -0.715667,-2.963918 -0.372869,-1.507633 -0.74903,-3.012242 -1.214215,-4.494861 0,0 -2.637655,1.452671 -2.637655,1.452671 z" />
    <path
       style="fill:#4e9a06;stroke:none;stroke-width:4.99999"
       id="path941"
       d="m 29.565795,37.395933 c 0.143767,1.801079 0.12186,3.610932 0.116303,5.416208 0,0 2.444631,-1.245602 2.444631,-1.245602 v 0 c -0.0057,-1.844903 -0.02379,-3.693724 0.1163,-5.534724 0,0 -2.677234,1.364118 -2.677234,1.364118 z" />
    <path
       style="fill:#73d216;stroke:none;stroke-width:4.99999"
       id="path943"
       d="m 2.3310096,13.299259 c -0.1142048,1.16598 -0.3409093,2.319079 -0.4593151,3.484392 -0.06407,0.630554 -0.121942,1.785119 -0.156198,2.385455 -0.1217846,2.258026 -0.4603279,4.491851 -0.81356917,6.722412 0,0 2.54162467,-1.249705 2.54162467,-1.249705 v 0 c 0.2874051,-2.236605 0.5875076,-4.472032 0.76608,-6.720835 0.1752412,-1.990547 0.3481792,-3.992882 0.8224629,-5.939361 0,0 -2.7010853,1.317642 -2.7010853,1.317642 z" />
    <path
       style="fill:#4e9a06;stroke:none;stroke-width:4.99999"
       id="path955"
       d="m 27.940219,9.9841557 c -0.08108,2.5090973 0.337262,4.9984453 0.679903,7.4754753 0.184348,1.208621 0.08696,0.643407 0.284575,1.696929 0,0 1.194731,-0.638863 1.194731,-0.638863 v 0 c -0.221527,-1.034611 -0.112313,-0.478337 -0.318831,-1.670529 -0.373655,-2.470796 -0.811778,-4.972904 -0.596794,-7.4794129 0,0 -1.243584,0.6164006 -1.243584,0.6164006 z" />
    <path
       style="fill:#4e9a06;stroke:none;stroke-width:4.99999"
       id="path957"
       d="m 43.865823,39.804255 c 0.343395,2.493626 0.59331,4.998241 0.868831,7.499789 0.03829,0.221496 0.07658,0.442994 0.114864,0.664493 0,0 1.201801,-0.640479 1.201801,-0.640479 v 0 c -0.04312,-0.215752 -0.08623,-0.431501 -0.12935,-0.647251 -0.334394,-2.495364 -0.628356,-4.998347 -0.840766,-7.507007 0,0 -1.21538,0.630455 -1.21538,0.630455 z" />
    <path
       style="fill:#4e9a06;stroke:none;stroke-width:4.99999"
       id="path959"
       d="m 55.091549,37.6858 c 0.243721,2.657371 0.739735,5.283771 1.138399,7.920794 0.05257,0.369025 0.105143,0.73805 0.157715,1.107075 0,0 1.166882,-0.616898 1.166882,-0.616898 v 0 c -0.05911,-0.365834 -0.118211,-0.731665 -0.177316,-1.097499 -0.431604,-2.635166 -0.963142,-5.275342 -1.034407,-7.951028 0,0 -1.251273,0.637556 -1.251273,0.637556 z" />
    <path
       style="fill:#4e9a06;stroke:none;stroke-width:4.99999"
       id="path961"
       d="m 21.652989,36.270565 c 0.03628,1.405032 0.02432,2.810851 0.01165,4.216143 0,0 1.223136,-0.623221 1.223136,-0.623221 v 0 c -0.01282,-1.409253 -0.02432,-2.819014 0.01165,-4.228015 0,0 -1.24644,0.635093 -1.24644,0.635093 z" />
    <path
       style="fill:#73d216;stroke:none;stroke-width:4.99999"
       id="path963"
       d="m 11.171035,45.025245 c 0.176361,1.125612 0.328385,2.254358 0.442299,3.388095 0.03265,0.324906 0.04136,0.652562 0.08964,0.975517 0.05996,0.401143 0.15643,0.795973 0.234646,1.19396 0.561567,2.328308 1.014362,4.681211 1.597689,7.004152 0,0 1.167545,-0.633305 1.167545,-0.633305 v 0 c -0.636473,-2.304482 -1.12533,-4.646618 -1.608616,-6.987236 -0.06989,-0.397918 -0.153423,-0.79368 -0.209679,-1.193754 -0.04544,-0.323176 -0.06219,-0.649745 -0.09519,-0.974428 -0.115626,-1.137764 -0.269095,-2.271535 -0.366467,-3.41086 0,0 -1.251868,0.637859 -1.251868,0.637859 z" />
    <path
       style="fill:#73d216;stroke:none;stroke-width:4.99999"
       id="path965"
       d="m 29.476176,25.898245 c 0.205248,1.723538 0.259371,3.461316 0.31021,5.194998 0.03754,1.323419 0.04564,2.64737 0.04996,3.971229 0,0 1.188609,-0.606499 1.188609,-0.606499 v 0 c -0.01111,-1.325089 -0.01857,-2.650294 -0.04977,-3.975108 -0.0571,-1.744427 -0.134109,-3.488491 -0.257606,-5.229599 0,0 -1.241406,0.644979 -1.241406,0.644979 z" />
    <path
       style="fill:#73d216;stroke:none;stroke-width:4.99999"
       id="path967"
       d="m 47.63077,32.780575 c -0.359971,2.502379 -0.831871,4.986991 -1.248807,7.480277 0,0 1.147562,-0.561489 1.147562,-0.561489 v 0 c 0.402132,-2.52027 0.854585,-5.03138 1.34739,-7.53556 0,0 -1.246145,0.616772 -1.246145,0.616772 z" />
    <path
       style="fill:#73d216;stroke:none;stroke-width:4.99999"
       id="path969"
       d="m 53.951846,24.92923 c -0.508905,4.014255 -0.847241,8.048296 -1.181124,12.080191 -0.21218,3.482822 -0.303877,6.971057 -0.402212,10.458416 0,0 1.075045,-0.54469 1.075045,-0.54469 v 0 c 0.05999,-3.484552 0.141314,-6.970315 0.395282,-10.447245 0.314756,-4.065815 0.645731,-8.144777 1.373912,-12.160915 0,0 -1.260903,0.614243 -1.260903,0.614243 z" />
    <path
       style="fill:#73d216;stroke:none;stroke-width:4.99999"
       id="path971"
       d="m 23.801288,31.851354 c -0.04909,1.721286 -0.215575,3.441588 -0.235047,5.16364 -0.01762,1.558509 0.06126,2.471864 0.149256,4.04265 0.07023,0.725183 0.129112,1.451557 0.210699,2.17555 0.07568,0.671534 0.449797,3.42102 0.539913,4.111456 0.20151,1.54388 0.379165,3.090423 0.572498,4.635298 0,0 1.156214,-0.608965 1.156214,-0.608965 v 0 c -0.225607,-1.531844 -0.427757,-3.066761 -0.637501,-4.600871 -0.06289,-0.459949 -0.500776,-3.664876 -0.549545,-4.100933 -0.08091,-0.723485 -0.134121,-1.4498 -0.201182,-2.1747 -0.03419,-0.698913 -0.08341,-1.397254 -0.102581,-2.096741 -0.06565,-2.395292 0.120327,-4.789353 0.350738,-7.171635 0,0 -1.253462,0.625251 -1.253462,0.625251 z" />
    <path
       style="fill:#73d216;stroke:none;stroke-width:4.99999"
       id="path973"
       d="m 24.171386,1.7681664 c 0.07256,2.0576575 -0.0051,4.1169005 0.03738,6.1746582 0.07411,1.1903348 0.203079,2.3760284 0.271055,3.5667984 0,0 1.226163,-0.634442 1.226163,-0.634442 v 0 c -0.08059,-1.1844226 -0.218586,-2.3634773 -0.296762,-3.5480576 -0.06754,-2.0611825 -0.04186,-4.1253415 -0.0054,-6.1868971 0,0 -1.232402,0.6279401 -1.232402,0.6279401 z" />
    <path
       style="fill:#73d216;stroke:none;stroke-width:4.99999"
       id="path975"
       d="m 31.276329,4.3074473 c 0.176234,3.2435805 0.566897,6.4729167 0.881349,9.7055867 0,0 1.082143,-0.565262 1.082143,-0.565262 v 0 C 32.895577,10.20267 32.486356,6.9483234 32.507862,3.6799504 c 0,0 -1.231533,0.6274969 -1.231533,0.6274969 z" />
    <path
       style="fill:#73d216;stroke:none;stroke-width:4.99999"
       id="path977"
       d="M 4.6337087,65.915494 C 4.5723272,61.451185 4.4983656,56.98682 4.464391,52.522096 c 0,0 -1.0411132,0.531923 -1.0411132,0.531923 v 0 c 0.065026,4.493702 0.092335,8.988462 -0.00725,13.481918 0,0 1.2176855,-0.620443 1.2176858,-0.620443 z" />
    <path
       style="fill:#73d216;stroke:none;stroke-width:4.99999"
       id="path979"
       d="m 13.014537,66.706979 c 0.578956,-2.132748 1.154334,-4.266223 1.729887,-6.399895 1.202498,-4.156128 1.897892,-8.421557 2.48521,-12.699788 0.06434,-0.515646 0.128689,-1.031295 0.193034,-1.546942 0,0 -1.14651,0.567666 -1.14651,0.567666 v 0 c -0.0541,0.509879 -0.108197,1.019755 -0.162296,1.529633 -0.200858,1.616848 -0.293653,2.479175 -0.563526,4.129265 -0.473662,2.896126 -1.149556,5.751547 -1.96203,8.570801 -0.598931,2.15187 -1.170271,4.312798 -1.840997,6.443739 0,0 1.267228,-0.594479 1.267228,-0.594479 z" />
    <path
       style="fill:#73d216;stroke:none;stroke-width:4.99999"
       id="path981"
       d="m 27.266072,63.620072 c 0.528404,-2.427454 1.269222,-4.801896 1.99659,-7.175087 0,0 -1.110067,0.524878 -1.110067,0.524878 v 0 c -0.728702,2.408462 -1.469522,4.814562 -2.122192,7.244995 0,0 1.235669,-0.594786 1.235669,-0.594786 z" />
    <path
       style="fill:#73d216;stroke:none;stroke-width:4.99999"
       id="path983"
       d="m 2.9494715,3.0465556 c 1.2100621,3.1084628 1.9481549,6.3713039 2.8698227,9.5699764 0.2630172,0.912809 0.5478346,1.819195 0.8217519,2.728793 0.7378639,2.350545 1.530977,4.682899 2.3316736,7.01255 0,0 1.0746663,-0.594389 1.0746663,-0.594389 v 0 C 9.2082632,19.453762 8.3795046,17.139783 7.6567939,14.790174 7.3883395,13.87872 7.1084772,12.970547 6.8514308,12.05581 5.9454605,8.8317826 5.2069846,5.5590638 4.1594068,2.3752564 c 0,0 -1.2099353,0.6712992 -1.2099353,0.6712992 z" />
    <path
       style="fill:#73d216;stroke:none;stroke-width:4.99999"
       id="path985"
       d="m 62.064889,2.508451 c -1.878018,1.9159691 -3.492267,4.0715896 -5.058365,6.2442764 0,0 1.216826,-0.5277905 1.216826,-0.5277905 v 0 c 1.549623,-2.1933667 3.168907,-4.3590215 5.100466,-6.2348814 0,0 -1.258927,0.5183955 -1.258927,0.5183955 z" />
    <path
       style="fill:#73d216;stroke:none;stroke-width:4.99999"
       id="path987"
       d="m 51.472284,6.0041332 c -0.609375,2.4905437 -1.165643,4.9928408 -1.800963,7.4772798 -0.299902,1.063298 -0.622593,2.119915 -0.940718,3.177836 0,0 1.211186,-0.574404 1.211186,-0.574404 v 0 c 0.298013,-1.052803 0.602689,-2.10372 0.890844,-3.159294 0.629613,-2.50777 1.178666,-5.0370636 1.897015,-7.5213336 0,0 -1.257364,0.5999158 -1.257364,0.5999158 z" />
    <path
       style="fill:#73d216;stroke:none;stroke-width:4.99999"
       id="path989"
       d="m 39.145011,3.9086361 c 1.08794,2.4456419 2.018369,4.9584985 3.131071,7.3940759 0.337312,0.738332 0.69773,1.465887 1.046597,2.19883 1.112906,2.242545 2.162884,4.514283 3.14027,6.818826 0,0 1.129705,-0.63575 1.129705,-0.63575 v 0 C 46.559443,17.406599 45.470233,15.155443 44.363883,12.912057 44.022705,12.176361 43.669285,11.446218 43.34035,10.704968 42.250404,8.2488068 41.301188,5.7319293 40.363253,3.2150079 c 0,0 -1.218242,0.6936282 -1.218242,0.6936282 z" />
    <path
       style="fill:#73d216;stroke:none;stroke-width:4.99999"
       id="path991"
       d="m 49.570449,33.990391 c 0.656058,3.344396 1.173538,6.713312 1.642938,10.088271 0.05473,0.389356 0.109463,0.778711 0.164198,1.168064 0,0 1.16191,-0.614484 1.16191,-0.614484 v 0 c -0.06399,-0.384233 -0.127979,-0.768464 -0.191966,-1.152695 -0.534787,-3.379078 -1.109663,-6.752994 -1.547347,-10.146437 0,0 -1.229733,0.657281 -1.229733,0.657281 z" />
    <path
       style="fill:#4e9a06;stroke:none;stroke-width:4.99999"
       id="path993"
       d="m 61.707312,52.167133 c -1.111538,2.70614 -1.943441,5.518968 -2.798246,8.314198 0,0 1.154686,-0.546359 1.154686,-0.546359 v 0 c 0.839002,-2.822615 1.67944,-5.663933 2.906353,-8.34698 0,0 -1.262793,0.579141 -1.262793,0.579141 z" />
    <path
       style="fill:#4e9a06;stroke:none;stroke-width:4.99999"
       id="path995"
       d="m 18.615489,16.901872 c 0.75286,2.262483 1.339114,4.578485 1.925434,6.888638 0.537921,2.355868 0.286949,1.198053 0.755836,3.472812 0,0 1.114653,-0.597352 1.114653,-0.597352 v 0 c -0.486606,-2.270136 -0.231493,-1.11288 -0.76706,-3.471389 -0.548417,-2.337279 -1.146189,-4.66262 -1.803679,-6.971792 0,0 -1.225184,0.679083 -1.225184,0.679083 z" />
    <path
       style="fill:#4e9a06;stroke:none;stroke-width:4.99999"
       id="path997"
       d="m 10.327646,3.756475 c 1.458262,4.6379066 2.491881,9.388814 3.406375,14.158812 0,0 1.072562,-0.57356 1.072562,-0.57356 v 0 C 13.805136,12.57658 12.720219,7.8311342 11.527541,3.1099807 c 0,0 -1.199895,0.6464943 -1.199895,0.6464943 z" />
    <path
       style="fill:#4e9a06;stroke:none;stroke-width:4.99999"
       id="path999"
       d="m 34.952651,25.200367 c 0.449347,2.433938 0.996953,4.848187 1.456695,7.280692 0.214308,1.163169 0.391306,2.332607 0.577308,3.50048 0,0 1.181338,-0.627491 1.181338,-0.627491 v 0 c -0.213942,-1.157124 -0.415184,-2.316485 -0.634807,-3.472574 -0.472027,-2.449119 -1.004773,-4.888439 -1.349256,-7.359653 0,0 -1.231278,0.678546 -1.231278,0.678546 z" />
  </g>
</svg>
