<?xml version="1.0" encoding="UTF-8" standalone="no"?>
<svg
   width="64"
   height="64"
   viewBox="0 0 64 64"
   version="1.1"
   id="svg50"
   sodipodi:docname="original.svg"
   inkscape:version="1.2.2 (b0a8486541, 2022-12-01)"
   xml:space="preserve"
   xmlns:inkscape="http://www.inkscape.org/namespaces/inkscape"
   xmlns:sodipodi="http://sodipodi.sourceforge.net/DTD/sodipodi-0.dtd"
   xmlns:xlink="http://www.w3.org/1999/xlink"
   xmlns="http://www.w3.org/2000/svg"
   xmlns:svg="http://www.w3.org/2000/svg"><sodipodi:namedview
     id="namedview52"
     pagecolor="#505050"
     bordercolor="#eeeeee"
     borderopacity="1"
     inkscape:showpageshadow="0"
     inkscape:pageopacity="0"
     inkscape:pagecheckerboard="0"
     inkscape:deskcolor="#d1d1d1"
     showgrid="false"
     inkscape:zoom="1.84375"
     inkscape:cx="160.81356"
     inkscape:cy="-3.5254237"
     inkscape:window-width="2560"
     inkscape:window-height="1403"
     inkscape:window-x="0"
     inkscape:window-y="0"
     inkscape:window-maximized="1"
     inkscape:current-layer="svg50"
     showguides="true"><sodipodi:guide
       position="0,0"
       orientation="1,0"
       id="guide430"
       inkscape:locked="false" /><sodipodi:guide
       position="0,64"
       orientation="0,-1"
       id="guide432"
       inkscape:locked="false" /><sodipodi:guide
       position="64,64"
       orientation="1,0"
       id="guide434"
       inkscape:locked="false" /><sodipodi:guide
       position="0,0"
       orientation="0,-1"
       id="guide436"
       inkscape:locked="false" /><sodipodi:guide
       position="-64,192"
       orientation="1,0"
       id="guide438"
       inkscape:locked="false" /><sodipodi:guide
       position="64,128"
       orientation="0,-1"
       id="guide547"
       inkscape:locked="false" /><sodipodi:guide
       position="-107.46133,192"
       orientation="0,-1"
       id="guide729"
       inkscape:locked="false" /><sodipodi:guide
       position="-128,188.23806"
       orientation="1,0"
       id="guide731"
       inkscape:locked="false" /><sodipodi:guide
       position="-1.4402807,256"
       orientation="0,-1"
       id="guide781"
       inkscape:locked="false" /><sodipodi:guide
       position="-64,-64"
       orientation="0,-1"
       id="guide916"
       inkscape:locked="false" /><sodipodi:guide
       position="128,256"
       orientation="1,0"
       id="guide1014"
       inkscape:locked="false" /></sodipodi:namedview><defs
     id="defs20"><!-- Neutral gravel tone with symmetric gradient to avoid seams --><linearGradient
       id="gravelGradient"
       x1="0%"
       y1="0%"
       x2="0%"
       y2="100%"><stop
         offset="0%"
         stop-color="#8a8179"
         id="stop2" /><stop
         offset="50%"
         stop-color="#9a9188"
         id="stop4" /><stop
         offset="100%"
         stop-color="#8a8179"
         id="stop6" /></linearGradient><!-- Subtle speckle pattern that tiles cleanly --><pattern
       id="gravelSpeckle"
       patternUnits="objectBoundingBox"
       width="0.125"
       height="0.125"
       viewBox="0 0 4 4"
       preserveAspectRatio="none"><rect
         width="4"
         height="4"
         fill="none"
         id="rect9" /><circle
         cx="0.8"
         cy="0.9"
         r="0.28"
         fill="#6f6760"
         opacity="0.35"
         id="circle11" /><circle
         cx="2.9"
         cy="1.9"
         r="0.25"
         fill="#b2aaa2"
         opacity="0.28"
         id="circle13" /><circle
         cx="2.1"
         cy="3.1"
         r="0.22"
         fill="#6f6760"
         opacity="0.3"
         id="circle15" /><circle
         cx="1.6"
         cy="2.2"
         r="0.18"
         fill="#4e4741"
         opacity="0.18"
         id="circle17" /></pattern><linearGradient
       id="canopy"
       x1="0%"
       y1="0%"
       x2="0%"
       y2="100%"><stop
         offset="0%"
         stop-color="#1f3816"
         id="stop2-3" /><stop
         offset="50%"
         stop-color="#2d541f"
         id="stop4-6" /><stop
         offset="100%"
         stop-color="#1f3816"
         id="stop6-7" /></linearGradient><pattern
       id="leafTex"
       patternUnits="objectBoundingBox"
       width="0.125"
       height="0.125"
       viewBox="0 0 4 4"
       preserveAspectRatio="none"><rect
         width="4"
         height="4"
         fill="none"
         id="rect9-5" /><circle
         cx="0.9"
         cy="1.0"
         r="0.25"
         fill="#3d6b2a"
         opacity="0.4"
         id="circle11-3" /><circle
         cx="2.9"
         cy="1.9"
         r="0.23"
         fill="#26451c"
         opacity="0.35"
         id="circle13-5" /><circle
         cx="2.1"
         cy="3.1"
         r="0.22"
         fill="#3d6b2a"
         opacity="0.35"
         id="circle15-6" /><circle
         cx="1.4"
         cy="2.3"
         r="0.18"
         fill="#426f2d"
         opacity="0.5"
         id="circle17-2" /></pattern><radialGradient
       id="shade"
       cx="50%"
       cy="50%"
       r="75%"><stop
         offset="60%"
         stop-color="#ffffff"
         id="stop20" /><stop
         offset="100%"
         stop-color="#222"
         id="stop22" /></radialGradient><mask
       id="shadeMask"><rect
         x="0"
         y="0"
         width="64"
         height="64"
         fill="url(#shade)"
         id="rect25" /></mask><linearGradient
       id="skin"
       x1="0%"
       y1="0%"
       x2="0%"
       y2="100%"><stop
         offset="0%"
         stop-color="#f5d7a7"
         id="stop8137" /><stop
         offset="60%"
         stop-color="#e8be83"
         id="stop8139" /><stop
         offset="100%"
         stop-color="#d9a868"
         id="stop8141" /></linearGradient><linearGradient
       id="hair"
       x1="0%"
       y1="0%"
       x2="0%"
       y2="100%"><stop
         offset="0%"
         stop-color="#ffe46b"
         id="stop8144" /><stop
         offset="65%"
         stop-color="#e3b91c"
         id="stop8146" /><stop
         offset="100%"
         stop-color="#b78f0e"
         id="stop8148" /></linearGradient><linearGradient
       id="robe"
       x1="0%"
       y1="0%"
       x2="0%"
       y2="100%"><stop
         offset="0%"
         stop-color="#8ec5ff"
         id="stop8151" /><stop
         offset="65%"
         stop-color="#5c90d0"
         id="stop8153" /><stop
         offset="100%"
         stop-color="#3a66a8"
         id="stop8155" /></linearGradient><linearGradient
       id="cape"
       x1="0%"
       y1="0%"
       x2="0%"
       y2="100%"><stop
         offset="0%"
         stop-color="#9b2a2a"
         id="stop8158" /><stop
         offset="70%"
         stop-color="#6f1e1e"
         id="stop8160" /><stop
         offset="100%"
         stop-color="#4c1414"
         id="stop8162" /></linearGradient><linearGradient
       id="boot"
       x1="0%"
       y1="0%"
       x2="0%"
       y2="100%"><stop
         offset="0%"
         stop-color="#7b4b1d"
         id="stop8165" /><stop
         offset="100%"
         stop-color="#4e2f12"
         id="stop8167" /></linearGradient><linearGradient
       inkscape:collect="always"
       xlink:href="#cape-3"
       id="linearGradient6852"
       gradientUnits="userSpaceOnUse"
       gradientTransform="matrix(0.98669975,0,0,1.0134795,169.49154,-136.67797)"
       x1="19.670059"
       y1="27.775599"
       x2="19.670059"
       y2="56.957245" /><linearGradient
       id="cape-3"
       x1="19.670059"
       y1="27.775599"
       x2="19.670059"
       y2="56.957245"
       gradientTransform="matrix(0.98669975,0,0,1.0134795,1.8052037,4.8000004)"
       gradientUnits="userSpaceOnUse"><stop
         offset="0%"
         stop-color="#9b2a2a"
         id="stop23" /><stop
         offset="70%"
         stop-color="#6f1e1e"
         id="stop25" /><stop
         offset="100%"
         stop-color="#4c1414"
         id="stop27" /></linearGradient><linearGradient
       inkscape:collect="always"
       xlink:href="#robe-6"
       id="linearGradient6854"
       gradientUnits="userSpaceOnUse"
       gradientTransform="matrix(0.95327342,0,0,1.049017,169.49154,-136.67797)"
       x1="23.655334"
       y1="27.978575"
       x2="23.655334"
       y2="52.001064" /><linearGradient
       id="robe-6"
       x1="23.655334"
       y1="27.978575"
       x2="23.655334"
       y2="52.001064"
       gradientTransform="matrix(0.95327342,0,0,1.049017,1.8052037,4.8000004)"
       gradientUnits="userSpaceOnUse"><stop
         offset="0%"
         stop-color="#8ec5ff"
         id="stop16" /><stop
         offset="65%"
         stop-color="#5c90d0"
         id="stop18" /><stop
         offset="100%"
         stop-color="#3a66a8"
         id="stop20-9" /></linearGradient><linearGradient
       inkscape:collect="always"
       xlink:href="#skin"
       id="linearGradient476"
       x1="24.35"
       y1="8.9499998"
       x2="24.35"
       y2="28.049999"
       gradientUnits="userSpaceOnUse"
       gradientTransform="translate(169.49154,-136.67797)" /><linearGradient
       inkscape:collect="always"
       xlink:href="#hair-7"
       id="linearGradient6856"
       gradientUnits="userSpaceOnUse"
       gradientTransform="matrix(1.3983525,0,0,0.71512728,169.49154,-136.67797)"
       x1="17.967024"
       y1="12.025831"
       x2="17.967024"
       y2="25.144382" /><linearGradient
       id="hair-7"
       x1="17.967024"
       y1="12.025831"
       x2="17.967024"
       y2="25.144382"
       gradientTransform="matrix(1.3983525,0,0,0.71512728,1.8052037,4.8000004)"
       gradientUnits="userSpaceOnUse"><stop
         offset="0%"
         stop-color="#ffe46b"
         id="stop9" /><stop
         offset="65%"
         stop-color="#e3b91c"
         id="stop11" /><stop
         offset="100%"
         stop-color="#b78f0e"
         id="stop13" /></linearGradient><linearGradient
       inkscape:collect="always"
       xlink:href="#skin"
       id="linearGradient478"
       x1="21.4"
       y1="35.200001"
       x2="21.4"
       y2="41.200001"
       gradientUnits="userSpaceOnUse"
       gradientTransform="translate(169.49154,-136.67797)" /><linearGradient
       inkscape:collect="always"
       xlink:href="#skin"
       id="linearGradient480"
       x1="40.299999"
       y1="35.200001"
       x2="40.299999"
       y2="41.200001"
       gradientUnits="userSpaceOnUse"
       gradientTransform="translate(169.49154,-136.67797)" /><linearGradient
       inkscape:collect="always"
       xlink:href="#boot"
       id="linearGradient389"
       x1="14.579167"
       y1="96.47821"
       x2="14.579167"
       y2="103.19123"
       gradientTransform="matrix(1.7212883,0,0,0.58096021,169.49154,-136.67797)"
       gradientUnits="userSpaceOnUse" /><linearGradient
       inkscape:collect="always"
       xlink:href="#boot"
       id="linearGradient391"
       x1="18.878273"
       y1="96.47821"
       x2="18.878273"
       y2="103.19123"
       gradientTransform="matrix(1.7212883,0,0,0.58096021,169.49154,-136.67797)"
       gradientUnits="userSpaceOnUse" /></defs><g
     id="g1038"
     transform="translate(127.6,-192)"><rect
       style="fill:#b3ac7a;fill-opacity:1;stroke-width:3;stroke-linejoin:round"
       id="rect1016"
       width="64"
       height="64"
       x="0"
       y="0" /><ellipse
       cx="18"
       cy="20"
       rx="3.8"
       ry="2.4000001"
       id="ellipse1018"
       style="opacity:0.45;fill:#7b726a" /><ellipse
       cx="40"
       cy="14"
       rx="3.2"
       ry="2"
       id="ellipse1020"
       style="opacity:0.45;fill:#7b726a" /><ellipse
       cx="30"
       cy="44"
       rx="4.1999998"
       ry="2.5999999"
       id="ellipse1022"
       style="opacity:0.45;fill:#7b726a" /><ellipse
       cx="60"
       cy="40"
       rx="3.5999999"
       ry="2.2"
       id="ellipse1024"
       style="opacity:0.45;fill:#7b726a" /><ellipse
       cx="16"
       cy="56"
       rx="3"
       ry="1.8"
       id="ellipse1026"
       style="opacity:0.45;fill:#7b726a" /><ellipse
       cx="19.4"
       cy="19.4"
       rx="1.8"
       ry="0.89999998"
       id="ellipse1028"
       style="opacity:0.28;fill:#bdb5ad" /><ellipse
       cx="40.900002"
       cy="13.6"
       rx="1.5"
       ry="0.69999999"
       id="ellipse1030"
       style="opacity:0.28;fill:#bdb5ad" /><ellipse
       cx="31.200001"
       cy="43.599998"
       rx="2"
       ry="0.89999998"
       id="ellipse1032"
       style="opacity:0.28;fill:#bdb5ad" /><ellipse
       cx="60.700001"
       cy="39.5"
       rx="1.6"
       ry="0.69999999"
       id="ellipse1034"
       style="opacity:0.28;fill:#bdb5ad" /><ellipse
       cx="16.9"
       cy="55.5"
       rx="1.3"
       ry="0.60000002"
       id="ellipse1036"
       style="opacity:0.28;fill:#bdb5ad" /></g><g
     id="g1012"
     transform="translate(64,-192)"><rect
       style="fill:#b3ac7a;fill-opacity:1;stroke-width:3;stroke-linejoin:round"
       id="rect990"
       width="64"
       height="64"
       x="0"
       y="0" /><ellipse
       cx="18"
       cy="20"
       rx="3.8"
       ry="2.4000001"
       id="ellipse992"
       style="opacity:0.45;fill:#7b726a" /><ellipse
       cx="40"
       cy="14"
       rx="3.2"
       ry="2"
       id="ellipse994"
       style="opacity:0.45;fill:#7b726a" /><ellipse
       cx="30"
       cy="44"
       rx="4.1999998"
       ry="2.5999999"
       id="ellipse996"
       style="opacity:0.45;fill:#7b726a" /><ellipse
       cx="60"
       cy="40"
       rx="3.5999999"
       ry="2.2"
       id="ellipse998"
       style="opacity:0.45;fill:#7b726a" /><ellipse
       cx="16"
       cy="56"
       rx="3"
       ry="1.8"
       id="ellipse1000"
       style="opacity:0.45;fill:#7b726a" /><ellipse
       cx="19.4"
       cy="19.4"
       rx="1.8"
       ry="0.89999998"
       id="ellipse1002"
       style="opacity:0.28;fill:#bdb5ad" /><ellipse
       cx="40.900002"
       cy="13.6"
       rx="1.5"
       ry="0.69999999"
       id="ellipse1004"
       style="opacity:0.28;fill:#bdb5ad" /><ellipse
       cx="31.200001"
       cy="43.599998"
       rx="2"
       ry="0.89999998"
       id="ellipse1006"
       style="opacity:0.28;fill:#bdb5ad" /><ellipse
       cx="60.700001"
       cy="39.5"
       rx="1.6"
       ry="0.69999999"
       id="ellipse1008"
       style="opacity:0.28;fill:#bdb5ad" /><ellipse
       cx="16.9"
       cy="55.5"
       rx="1.3"
       ry="0.60000002"
       id="ellipse1010"
       style="opacity:0.28;fill:#bdb5ad" /></g><g
     id="g988"
     transform="translate(0,-192)"><rect
       style="fill:#b3ac7a;fill-opacity:1;stroke-width:3;stroke-linejoin:round"
       id="rect966"
       width="64"
       height="64"
       x="0"
       y="0" /><ellipse
       cx="18"
       cy="20"
       rx="3.8"
       ry="2.4000001"
       id="ellipse968"
       style="opacity:0.45;fill:#7b726a" /><ellipse
       cx="40"
       cy="14"
       rx="3.2"
       ry="2"
       id="ellipse970"
       style="opacity:0.45;fill:#7b726a" /><ellipse
       cx="30"
       cy="44"
       rx="4.1999998"
       ry="2.5999999"
       id="ellipse972"
       style="opacity:0.45;fill:#7b726a" /><ellipse
       cx="60"
       cy="40"
       rx="3.5999999"
       ry="2.2"
       id="ellipse974"
       style="opacity:0.45;fill:#7b726a" /><ellipse
       cx="16"
       cy="56"
       rx="3"
       ry="1.8"
       id="ellipse976"
       style="opacity:0.45;fill:#7b726a" /><ellipse
       cx="19.4"
       cy="19.4"
       rx="1.8"
       ry="0.89999998"
       id="ellipse978"
       style="opacity:0.28;fill:#bdb5ad" /><ellipse
       cx="40.900002"
       cy="13.6"
       rx="1.5"
       ry="0.69999999"
       id="ellipse980"
       style="opacity:0.28;fill:#bdb5ad" /><ellipse
       cx="31.200001"
       cy="43.599998"
       rx="2"
       ry="0.89999998"
       id="ellipse982"
       style="opacity:0.28;fill:#bdb5ad" /><ellipse
       cx="60.700001"
       cy="39.5"
       rx="1.6"
       ry="0.69999999"
       id="ellipse984"
       style="opacity:0.28;fill:#bdb5ad" /><ellipse
       cx="16.9"
       cy="55.5"
       rx="1.3"
       ry="0.60000002"
       id="ellipse986"
       style="opacity:0.28;fill:#bdb5ad" /></g><g
     id="g866"
     transform="translate(-128,-64)"><rect
       style="fill:#b3ac7a;fill-opacity:1;stroke-width:3;stroke-linejoin:round"
       id="rect844"
       width="64"
       height="64"
       x="0"
       y="0" /><ellipse
       cx="18"
       cy="20"
       rx="3.8"
       ry="2.4000001"
       id="ellipse846"
       style="opacity:0.45;fill:#7b726a" /><ellipse
       cx="40"
       cy="14"
       rx="3.2"
       ry="2"
       id="ellipse848"
       style="opacity:0.45;fill:#7b726a" /><ellipse
       cx="30"
       cy="44"
       rx="4.1999998"
       ry="2.5999999"
       id="ellipse850"
       style="opacity:0.45;fill:#7b726a" /><ellipse
       cx="60"
       cy="40"
       rx="3.5999999"
       ry="2.2"
       id="ellipse852"
       style="opacity:0.45;fill:#7b726a" /><ellipse
       cx="16"
       cy="56"
       rx="3"
       ry="1.8"
       id="ellipse854"
       style="opacity:0.45;fill:#7b726a" /><ellipse
       cx="19.4"
       cy="19.4"
       rx="1.8"
       ry="0.89999998"
       id="ellipse856"
       style="opacity:0.28;fill:#bdb5ad" /><ellipse
       cx="40.900002"
       cy="13.6"
       rx="1.5"
       ry="0.69999999"
       id="ellipse858"
       style="opacity:0.28;fill:#bdb5ad" /><ellipse
       cx="31.200001"
       cy="43.599998"
       rx="2"
       ry="0.89999998"
       id="ellipse860"
       style="opacity:0.28;fill:#bdb5ad" /><ellipse
       cx="60.700001"
       cy="39.5"
       rx="1.6"
       ry="0.69999999"
       id="ellipse862"
       style="opacity:0.28;fill:#bdb5ad" /><ellipse
       cx="16.9"
       cy="55.5"
       rx="1.3"
       ry="0.60000002"
       id="ellipse864"
       style="opacity:0.28;fill:#bdb5ad" /></g><g
     id="g890"
     transform="translate(-128)"><rect
       style="fill:#b3ac7a;fill-opacity:1;stroke-width:3;stroke-linejoin:round"
       id="rect868"
       width="64"
       height="64"
       x="0"
       y="0" /><ellipse
       cx="18"
       cy="20"
       rx="3.8"
       ry="2.4000001"
       id="ellipse870"
       style="opacity:0.45;fill:#7b726a" /><ellipse
       cx="40"
       cy="14"
       rx="3.2"
       ry="2"
       id="ellipse872"
       style="opacity:0.45;fill:#7b726a" /><ellipse
       cx="30"
       cy="44"
       rx="4.1999998"
       ry="2.5999999"
       id="ellipse874"
       style="opacity:0.45;fill:#7b726a" /><ellipse
       cx="60"
       cy="40"
       rx="3.5999999"
       ry="2.2"
       id="ellipse876"
       style="opacity:0.45;fill:#7b726a" /><ellipse
       cx="16"
       cy="56"
       rx="3"
       ry="1.8"
       id="ellipse878"
       style="opacity:0.45;fill:#7b726a" /><ellipse
       cx="19.4"
       cy="19.4"
       rx="1.8"
       ry="0.89999998"
       id="ellipse880"
       style="opacity:0.28;fill:#bdb5ad" /><ellipse
       cx="40.900002"
       cy="13.6"
       rx="1.5"
       ry="0.69999999"
       id="ellipse882"
       style="opacity:0.28;fill:#bdb5ad" /><ellipse
       cx="31.200001"
       cy="43.599998"
       rx="2"
       ry="0.89999998"
       id="ellipse884"
       style="opacity:0.28;fill:#bdb5ad" /><ellipse
       cx="60.700001"
       cy="39.5"
       rx="1.6"
       ry="0.69999999"
       id="ellipse886"
       style="opacity:0.28;fill:#bdb5ad" /><ellipse
       cx="16.9"
       cy="55.5"
       rx="1.3"
       ry="0.60000002"
       id="ellipse888"
       style="opacity:0.28;fill:#bdb5ad" /></g><g
     id="g914"
     transform="translate(-128,64)"><rect
       style="fill:#b3ac7a;fill-opacity:1;stroke-width:3;stroke-linejoin:round"
       id="rect892"
       width="64"
       height="64"
       x="0"
       y="0" /><ellipse
       cx="18"
       cy="20"
       rx="3.8"
       ry="2.4000001"
       id="ellipse894"
       style="opacity:0.45;fill:#7b726a" /><ellipse
       cx="40"
       cy="14"
       rx="3.2"
       ry="2"
       id="ellipse896"
       style="opacity:0.45;fill:#7b726a" /><ellipse
       cx="30"
       cy="44"
       rx="4.1999998"
       ry="2.5999999"
       id="ellipse898"
       style="opacity:0.45;fill:#7b726a" /><ellipse
       cx="60"
       cy="40"
       rx="3.5999999"
       ry="2.2"
       id="ellipse900"
       style="opacity:0.45;fill:#7b726a" /><ellipse
       cx="16"
       cy="56"
       rx="3"
       ry="1.8"
       id="ellipse902"
       style="opacity:0.45;fill:#7b726a" /><ellipse
       cx="19.4"
       cy="19.4"
       rx="1.8"
       ry="0.89999998"
       id="ellipse904"
       style="opacity:0.28;fill:#bdb5ad" /><ellipse
       cx="40.900002"
       cy="13.6"
       rx="1.5"
       ry="0.69999999"
       id="ellipse906"
       style="opacity:0.28;fill:#bdb5ad" /><ellipse
       cx="31.200001"
       cy="43.599998"
       rx="2"
       ry="0.89999998"
       id="ellipse908"
       style="opacity:0.28;fill:#bdb5ad" /><ellipse
       cx="60.700001"
       cy="39.5"
       rx="1.6"
       ry="0.69999999"
       id="ellipse910"
       style="opacity:0.28;fill:#bdb5ad" /><ellipse
       cx="16.9"
       cy="55.5"
       rx="1.3"
       ry="0.60000002"
       id="ellipse912"
       style="opacity:0.28;fill:#bdb5ad" /></g><g
     id="g940"
     transform="translate(-64,64)"><rect
       style="fill:#b3ac7a;fill-opacity:1;stroke-width:3;stroke-linejoin:round"
       id="rect918"
       width="64"
       height="64"
       x="0"
       y="0" /><ellipse
       cx="18"
       cy="20"
       rx="3.8"
       ry="2.4000001"
       id="ellipse920"
       style="opacity:0.45;fill:#7b726a" /><ellipse
       cx="40"
       cy="14"
       rx="3.2"
       ry="2"
       id="ellipse922"
       style="opacity:0.45;fill:#7b726a" /><ellipse
       cx="30"
       cy="44"
       rx="4.1999998"
       ry="2.5999999"
       id="ellipse924"
       style="opacity:0.45;fill:#7b726a" /><ellipse
       cx="60"
       cy="40"
       rx="3.5999999"
       ry="2.2"
       id="ellipse926"
       style="opacity:0.45;fill:#7b726a" /><ellipse
       cx="16"
       cy="56"
       rx="3"
       ry="1.8"
       id="ellipse928"
       style="opacity:0.45;fill:#7b726a" /><ellipse
       cx="19.4"
       cy="19.4"
       rx="1.8"
       ry="0.89999998"
       id="ellipse930"
       style="opacity:0.28;fill:#bdb5ad" /><ellipse
       cx="40.900002"
       cy="13.6"
       rx="1.5"
       ry="0.69999999"
       id="ellipse932"
       style="opacity:0.28;fill:#bdb5ad" /><ellipse
       cx="31.200001"
       cy="43.599998"
       rx="2"
       ry="0.89999998"
       id="ellipse934"
       style="opacity:0.28;fill:#bdb5ad" /><ellipse
       cx="60.700001"
       cy="39.5"
       rx="1.6"
       ry="0.69999999"
       id="ellipse936"
       style="opacity:0.28;fill:#bdb5ad" /><ellipse
       cx="16.9"
       cy="55.5"
       rx="1.3"
       ry="0.60000002"
       id="ellipse938"
       style="opacity:0.28;fill:#bdb5ad" /></g><g
     id="g964"
     transform="translate(0,64)"><rect
       style="fill:#b3ac7a;fill-opacity:1;stroke-width:3;stroke-linejoin:round"
       id="rect942"
       width="64"
       height="64"
       x="0"
       y="0" /><ellipse
       cx="18"
       cy="20"
       rx="3.8"
       ry="2.4000001"
       id="ellipse944"
       style="opacity:0.45;fill:#7b726a" /><ellipse
       cx="40"
       cy="14"
       rx="3.2"
       ry="2"
       id="ellipse946"
       style="opacity:0.45;fill:#7b726a" /><ellipse
       cx="30"
       cy="44"
       rx="4.1999998"
       ry="2.5999999"
       id="ellipse948"
       style="opacity:0.45;fill:#7b726a" /><ellipse
       cx="60"
       cy="40"
       rx="3.5999999"
       ry="2.2"
       id="ellipse950"
       style="opacity:0.45;fill:#7b726a" /><ellipse
       cx="16"
       cy="56"
       rx="3"
       ry="1.8"
       id="ellipse952"
       style="opacity:0.45;fill:#7b726a" /><ellipse
       cx="19.4"
       cy="19.4"
       rx="1.8"
       ry="0.89999998"
       id="ellipse954"
       style="opacity:0.28;fill:#bdb5ad" /><ellipse
       cx="40.900002"
       cy="13.6"
       rx="1.5"
       ry="0.69999999"
       id="ellipse956"
       style="opacity:0.28;fill:#bdb5ad" /><ellipse
       cx="31.200001"
       cy="43.599998"
       rx="2"
       ry="0.89999998"
       id="ellipse958"
       style="opacity:0.28;fill:#bdb5ad" /><ellipse
       cx="60.700001"
       cy="39.5"
       rx="1.6"
       ry="0.69999999"
       id="ellipse960"
       style="opacity:0.28;fill:#bdb5ad" /><ellipse
       cx="16.9"
       cy="55.5"
       rx="1.3"
       ry="0.60000002"
       id="ellipse962"
       style="opacity:0.28;fill:#bdb5ad" /></g><g
     id="g727"
     transform="translate(-128,-128)"><rect
       style="fill:#b3ac7a;fill-opacity:1;stroke-width:3;stroke-linejoin:round"
       id="rect705"
       width="64"
       height="64"
       x="0"
       y="0" /><ellipse
       cx="18"
       cy="20"
       rx="3.8"
       ry="2.4000001"
       id="ellipse707"
       style="opacity:0.45;fill:#7b726a" /><ellipse
       cx="40"
       cy="14"
       rx="3.2"
       ry="2"
       id="ellipse709"
       style="opacity:0.45;fill:#7b726a" /><ellipse
       cx="30"
       cy="44"
       rx="4.1999998"
       ry="2.5999999"
       id="ellipse711"
       style="opacity:0.45;fill:#7b726a" /><ellipse
       cx="60"
       cy="40"
       rx="3.5999999"
       ry="2.2"
       id="ellipse713"
       style="opacity:0.45;fill:#7b726a" /><ellipse
       cx="16"
       cy="56"
       rx="3"
       ry="1.8"
       id="ellipse715"
       style="opacity:0.45;fill:#7b726a" /><ellipse
       cx="19.4"
       cy="19.4"
       rx="1.8"
       ry="0.89999998"
       id="ellipse717"
       style="opacity:0.28;fill:#bdb5ad" /><ellipse
       cx="40.900002"
       cy="13.6"
       rx="1.5"
       ry="0.69999999"
       id="ellipse719"
       style="opacity:0.28;fill:#bdb5ad" /><ellipse
       cx="31.200001"
       cy="43.599998"
       rx="2"
       ry="0.89999998"
       id="ellipse721"
       style="opacity:0.28;fill:#bdb5ad" /><ellipse
       cx="60.700001"
       cy="39.5"
       rx="1.6"
       ry="0.69999999"
       id="ellipse723"
       style="opacity:0.28;fill:#bdb5ad" /><ellipse
       cx="16.9"
       cy="55.5"
       rx="1.3"
       ry="0.60000002"
       id="ellipse725"
       style="opacity:0.28;fill:#bdb5ad" /></g><g
     id="g755"
     transform="translate(-64,-128)"><rect
       style="fill:#b3ac7a;fill-opacity:1;stroke-width:3;stroke-linejoin:round"
       id="rect733"
       width="64"
       height="64"
       x="0"
       y="0" /><ellipse
       cx="18"
       cy="20"
       rx="3.8"
       ry="2.4000001"
       id="ellipse735"
       style="opacity:0.45;fill:#7b726a" /><ellipse
       cx="40"
       cy="14"
       rx="3.2"
       ry="2"
       id="ellipse737"
       style="opacity:0.45;fill:#7b726a" /><ellipse
       cx="30"
       cy="44"
       rx="4.1999998"
       ry="2.5999999"
       id="ellipse739"
       style="opacity:0.45;fill:#7b726a" /><ellipse
       cx="60"
       cy="40"
       rx="3.5999999"
       ry="2.2"
       id="ellipse741"
       style="opacity:0.45;fill:#7b726a" /><ellipse
       cx="16"
       cy="56"
       rx="3"
       ry="1.8"
       id="ellipse743"
       style="opacity:0.45;fill:#7b726a" /><ellipse
       cx="19.4"
       cy="19.4"
       rx="1.8"
       ry="0.89999998"
       id="ellipse745"
       style="opacity:0.28;fill:#bdb5ad" /><ellipse
       cx="40.900002"
       cy="13.6"
       rx="1.5"
       ry="0.69999999"
       id="ellipse747"
       style="opacity:0.28;fill:#bdb5ad" /><ellipse
       cx="31.200001"
       cy="43.599998"
       rx="2"
       ry="0.89999998"
       id="ellipse749"
       style="opacity:0.28;fill:#bdb5ad" /><ellipse
       cx="60.700001"
       cy="39.5"
       rx="1.6"
       ry="0.69999999"
       id="ellipse751"
       style="opacity:0.28;fill:#bdb5ad" /><ellipse
       cx="16.9"
       cy="55.5"
       rx="1.3"
       ry="0.60000002"
       id="ellipse753"
       style="opacity:0.28;fill:#bdb5ad" /></g><g
     id="g779"
     transform="translate(-64,-192)"><rect
       style="fill:#b3ac7a;fill-opacity:1;stroke-width:3;stroke-linejoin:round"
       id="rect757"
       width="64"
       height="64"
       x="0"
       y="0" /><ellipse
       cx="18"
       cy="20"
       rx="3.8"
       ry="2.4000001"
       id="ellipse759"
       style="opacity:0.45;fill:#7b726a" /><ellipse
       cx="40"
       cy="14"
       rx="3.2"
       ry="2"
       id="ellipse761"
       style="opacity:0.45;fill:#7b726a" /><ellipse
       cx="30"
       cy="44"
       rx="4.1999998"
       ry="2.5999999"
       id="ellipse763"
       style="opacity:0.45;fill:#7b726a" /><ellipse
       cx="60"
       cy="40"
       rx="3.5999999"
       ry="2.2"
       id="ellipse765"
       style="opacity:0.45;fill:#7b726a" /><ellipse
       cx="16"
       cy="56"
       rx="3"
       ry="1.8"
       id="ellipse767"
       style="opacity:0.45;fill:#7b726a" /><ellipse
       cx="19.4"
       cy="19.4"
       rx="1.8"
       ry="0.89999998"
       id="ellipse769"
       style="opacity:0.28;fill:#bdb5ad" /><ellipse
       cx="40.900002"
       cy="13.6"
       rx="1.5"
       ry="0.69999999"
       id="ellipse771"
       style="opacity:0.28;fill:#bdb5ad" /><ellipse
       cx="31.200001"
       cy="43.599998"
       rx="2"
       ry="0.89999998"
       id="ellipse773"
       style="opacity:0.28;fill:#bdb5ad" /><ellipse
       cx="60.700001"
       cy="39.5"
       rx="1.6"
       ry="0.69999999"
       id="ellipse775"
       style="opacity:0.28;fill:#bdb5ad" /><ellipse
       cx="16.9"
       cy="55.5"
       rx="1.3"
       ry="0.60000002"
       id="ellipse777"
       style="opacity:0.28;fill:#bdb5ad" /></g><g
     id="g703"
     transform="translate(128,-128)"><rect
       style="fill:#b3ac7a;fill-opacity:1;stroke-width:3;stroke-linejoin:round"
       id="rect681"
       width="64"
       height="64"
       x="0"
       y="0" /><ellipse
       cx="18"
       cy="20"
       rx="3.8"
       ry="2.4000001"
       id="ellipse683"
       style="opacity:0.45;fill:#7b726a" /><ellipse
       cx="40"
       cy="14"
       rx="3.2"
       ry="2"
       id="ellipse685"
       style="opacity:0.45;fill:#7b726a" /><ellipse
       cx="30"
       cy="44"
       rx="4.1999998"
       ry="2.5999999"
       id="ellipse687"
       style="opacity:0.45;fill:#7b726a" /><ellipse
       cx="60"
       cy="40"
       rx="3.5999999"
       ry="2.2"
       id="ellipse689"
       style="opacity:0.45;fill:#7b726a" /><ellipse
       cx="16"
       cy="56"
       rx="3"
       ry="1.8"
       id="ellipse691"
       style="opacity:0.45;fill:#7b726a" /><ellipse
       cx="19.4"
       cy="19.4"
       rx="1.8"
       ry="0.89999998"
       id="ellipse693"
       style="opacity:0.28;fill:#bdb5ad" /><ellipse
       cx="40.900002"
       cy="13.6"
       rx="1.5"
       ry="0.69999999"
       id="ellipse695"
       style="opacity:0.28;fill:#bdb5ad" /><ellipse
       cx="31.200001"
       cy="43.599998"
       rx="2"
       ry="0.89999998"
       id="ellipse697"
       style="opacity:0.28;fill:#bdb5ad" /><ellipse
       cx="60.700001"
       cy="39.5"
       rx="1.6"
       ry="0.69999999"
       id="ellipse699"
       style="opacity:0.28;fill:#bdb5ad" /><ellipse
       cx="16.9"
       cy="55.5"
       rx="1.3"
       ry="0.60000002"
       id="ellipse701"
       style="opacity:0.28;fill:#bdb5ad" /></g><g
     id="g679"
     transform="translate(128,-64)"><rect
       style="fill:#b3ac7a;fill-opacity:1;stroke-width:3;stroke-linejoin:round"
       id="rect657"
       width="64"
       height="64"
       x="0"
       y="0" /><ellipse
       cx="18"
       cy="20"
       rx="3.8"
       ry="2.4000001"
       id="ellipse659"
       style="opacity:0.45;fill:#7b726a" /><ellipse
       cx="40"
       cy="14"
       rx="3.2"
       ry="2"
       id="ellipse661"
       style="opacity:0.45;fill:#7b726a" /><ellipse
       cx="30"
       cy="44"
       rx="4.1999998"
       ry="2.5999999"
       id="ellipse663"
       style="opacity:0.45;fill:#7b726a" /><ellipse
       cx="60"
       cy="40"
       rx="3.5999999"
       ry="2.2"
       id="ellipse665"
       style="opacity:0.45;fill:#7b726a" /><ellipse
       cx="16"
       cy="56"
       rx="3"
       ry="1.8"
       id="ellipse667"
       style="opacity:0.45;fill:#7b726a" /><ellipse
       cx="19.4"
       cy="19.4"
       rx="1.8"
       ry="0.89999998"
       id="ellipse669"
       style="opacity:0.28;fill:#bdb5ad" /><ellipse
       cx="40.900002"
       cy="13.6"
       rx="1.5"
       ry="0.69999999"
       id="ellipse671"
       style="opacity:0.28;fill:#bdb5ad" /><ellipse
       cx="31.200001"
       cy="43.599998"
       rx="2"
       ry="0.89999998"
       id="ellipse673"
       style="opacity:0.28;fill:#bdb5ad" /><ellipse
       cx="60.700001"
       cy="39.5"
       rx="1.6"
       ry="0.69999999"
       id="ellipse675"
       style="opacity:0.28;fill:#bdb5ad" /><ellipse
       cx="16.9"
       cy="55.5"
       rx="1.3"
       ry="0.60000002"
       id="ellipse677"
       style="opacity:0.28;fill:#bdb5ad" /></g><g
     id="g597"
     transform="translate(64,-64)"><rect
       style="fill:#b3ac7a;fill-opacity:1;stroke-width:3;stroke-linejoin:round"
       id="rect575"
       width="64"
       height="64"
       x="0"
       y="0" /><ellipse
       cx="18"
       cy="20"
       rx="3.8"
       ry="2.4000001"
       id="ellipse577"
       style="opacity:0.45;fill:#7b726a" /><ellipse
       cx="40"
       cy="14"
       rx="3.2"
       ry="2"
       id="ellipse579"
       style="opacity:0.45;fill:#7b726a" /><ellipse
       cx="30"
       cy="44"
       rx="4.1999998"
       ry="2.5999999"
       id="ellipse581"
       style="opacity:0.45;fill:#7b726a" /><ellipse
       cx="60"
       cy="40"
       rx="3.5999999"
       ry="2.2"
       id="ellipse583"
       style="opacity:0.45;fill:#7b726a" /><ellipse
       cx="16"
       cy="56"
       rx="3"
       ry="1.8"
       id="ellipse585"
       style="opacity:0.45;fill:#7b726a" /><ellipse
       cx="19.4"
       cy="19.4"
       rx="1.8"
       ry="0.89999998"
       id="ellipse587"
       style="opacity:0.28;fill:#bdb5ad" /><ellipse
       cx="40.900002"
       cy="13.6"
       rx="1.5"
       ry="0.69999999"
       id="ellipse589"
       style="opacity:0.28;fill:#bdb5ad" /><ellipse
       cx="31.200001"
       cy="43.599998"
       rx="2"
       ry="0.89999998"
       id="ellipse591"
       style="opacity:0.28;fill:#bdb5ad" /><ellipse
       cx="60.700001"
       cy="39.5"
       rx="1.6"
       ry="0.69999999"
       id="ellipse593"
       style="opacity:0.28;fill:#bdb5ad" /><ellipse
       cx="16.9"
       cy="55.5"
       rx="1.3"
       ry="0.60000002"
       id="ellipse595"
       style="opacity:0.28;fill:#bdb5ad" /></g><g
     id="g511"
     transform="translate(0,-64)"><rect
       style="fill:#b3ac7a;fill-opacity:1;stroke-width:3;stroke-linejoin:round"
       id="rect489"
       width="64"
       height="64"
       x="0"
       y="0" /><ellipse
       cx="18"
       cy="20"
       rx="3.8"
       ry="2.4000001"
       id="ellipse491"
       style="opacity:0.45;fill:#7b726a" /><ellipse
       cx="40"
       cy="14"
       rx="3.2"
       ry="2"
       id="ellipse493"
       style="opacity:0.45;fill:#7b726a" /><ellipse
       cx="30"
       cy="44"
       rx="4.1999998"
       ry="2.5999999"
       id="ellipse495"
       style="opacity:0.45;fill:#7b726a" /><ellipse
       cx="60"
       cy="40"
       rx="3.5999999"
       ry="2.2"
       id="ellipse497"
       style="opacity:0.45;fill:#7b726a" /><ellipse
       cx="16"
       cy="56"
       rx="3"
       ry="1.8"
       id="ellipse499"
       style="opacity:0.45;fill:#7b726a" /><ellipse
       cx="19.4"
       cy="19.4"
       rx="1.8"
       ry="0.89999998"
       id="ellipse501"
       style="opacity:0.28;fill:#bdb5ad" /><ellipse
       cx="40.900002"
       cy="13.6"
       rx="1.5"
       ry="0.69999999"
       id="ellipse503"
       style="opacity:0.28;fill:#bdb5ad" /><ellipse
       cx="31.200001"
       cy="43.599998"
       rx="2"
       ry="0.89999998"
       id="ellipse505"
       style="opacity:0.28;fill:#bdb5ad" /><ellipse
       cx="60.700001"
       cy="39.5"
       rx="1.6"
       ry="0.69999999"
       id="ellipse507"
       style="opacity:0.28;fill:#bdb5ad" /><ellipse
       cx="16.9"
       cy="55.5"
       rx="1.3"
       ry="0.60000002"
       id="ellipse509"
       style="opacity:0.28;fill:#bdb5ad" /></g><!-- Base fill --><!-- Texture overlay --><!-- Larger stones (kept away from edges to avoid seams) --><!-- Highlights to suggest volume --><g
     id="g487"><rect
       style="fill:#b3ac7a;stroke-width:3;stroke-linejoin:round;fill-opacity:1"
       id="rect1390"
       width="64"
       height="64"
       x="0"
       y="0" /><ellipse
       cx="18"
       cy="20"
       rx="3.8"
       ry="2.4000001"
       id="ellipse26"
       style="opacity:0.45;fill:#7b726a" /><ellipse
       cx="40"
       cy="14"
       rx="3.2"
       ry="2"
       id="ellipse28"
       style="opacity:0.45;fill:#7b726a" /><ellipse
       cx="30"
       cy="44"
       rx="4.1999998"
       ry="2.5999999"
       id="ellipse30"
       style="opacity:0.45;fill:#7b726a" /><ellipse
       cx="60"
       cy="40"
       rx="3.5999999"
       ry="2.2"
       id="ellipse32"
       style="opacity:0.45;fill:#7b726a" /><ellipse
       cx="16"
       cy="56"
       rx="3"
       ry="1.8"
       id="ellipse34"
       style="opacity:0.45;fill:#7b726a" /><ellipse
       cx="19.4"
       cy="19.4"
       rx="1.8"
       ry="0.89999998"
       id="ellipse38"
       style="opacity:0.28;fill:#bdb5ad" /><ellipse
       cx="40.900002"
       cy="13.6"
       rx="1.5"
       ry="0.69999999"
       id="ellipse40"
       style="opacity:0.28;fill:#bdb5ad" /><ellipse
       cx="31.200001"
       cy="43.599998"
       rx="2"
       ry="0.89999998"
       id="ellipse42"
       style="opacity:0.28;fill:#bdb5ad" /><ellipse
       cx="60.700001"
       cy="39.5"
       rx="1.6"
       ry="0.69999999"
       id="ellipse44"
       style="opacity:0.28;fill:#bdb5ad" /><ellipse
       cx="16.9"
       cy="55.5"
       rx="1.3"
       ry="0.60000002"
       id="ellipse46"
       style="opacity:0.28;fill:#bdb5ad" /></g><g
     id="g10840"
     transform="translate(174.91525,61.830507)"><ellipse
       cx="-142.82045"
       cy="-4.4305067"
       rx="10.6"
       ry="2.8"
       fill="#000000"
       opacity="0.18"
       id="ellipse37" /><path
       d="m -156.22045,-36.130508 c -1,9.5 -1.5,18.5 2,25 4.3,2.5 18.5,2.5 22.8,0 3.4,-6.3 2.8,-15.3 1.6,-24.5 l -8.4,-2.5 -9.3,0.2 z"
       fill="url(#cape)"
       stroke="#2a2a2a"
       stroke-width="0.7"
       stroke-linejoin="round"
       id="path39"
       style="fill:url(#linearGradient6852)" /><path
       d="m -150.1417,-36.862097 h 14.8425 a 3.6103384,3.1033963 0 0 1 3.61034,3.103396 v 12.241174 a 6.5186665,5.6033544 0 0 1 -6.51867,5.603354 h -9.02585 a 6.5186665,5.6033544 0 0 1 -6.51866,-5.603354 v -12.241174 a 3.6103384,3.1033963 0 0 1 3.61034,-3.103396 z"
       fill="url(#robe)"
       stroke="#1d3557"
       stroke-width="0.836821"
       id="path41"
       style="fill:url(#linearGradient6854)" /><rect
       x="-154.15205"
       y="-25.430506"
       width="22.463184"
       height="3.0999999"
       rx="1.3614051"
       fill="#603813"
       stroke="#3d2610"
       stroke-width="0.639079"
       id="rect43" /><rect
       x="-144.62045"
       y="-25.730505"
       width="3.4000001"
       height="3.7"
       rx="0.60000002"
       fill="#e0c56c"
       stroke="#8a6f2e"
       stroke-width="0.5"
       id="rect45" /><circle
       cx="-142.82045"
       cy="-48.130508"
       r="9.1000004"
       fill="url(#skin)"
       stroke="#915f2c"
       stroke-width="0.9"
       id="circle47"
       style="fill:url(#linearGradient476)" /><path
       d="m -151.12045,-49.430508 c 1.2,-5 5.1,-8.2 8.4,-8.2 3.9,0 7.7,2.8 9,7.2 -2.8,1.8 -6.8,1.2 -9.8,1.2 -2.5,0 -5.4,0.5 -7.6,-0.2 z"
       fill="url(#hair)"
       stroke="#805e11"
       stroke-width="0.8"
       id="path49"
       style="fill:url(#linearGradient6856)" /><path
       d="m -150.42248,-52.030508 c 2.4,2.1 6.7,2.6 10.8,2.2 2.4,-0.2 3.8,-0.7 5.6,-1.6 0.3,1.1 0.4,2.2 0.2,3.2 -2.9,1.4 -6.6,2.2 -10.3,2.2 -2.8,0 -5.5,-0.5 -7.8,-1.4 0.2,-1.5 0.7,-2.9 1.5,-4.6 z"
       fill="#f3cf4a"
       opacity="0.45"
       id="path51" /><ellipse
       cx="-145.72046"
       cy="-47.230507"
       rx="1.2"
       ry="0.85000002"
       fill="#1b2a41"
       stroke="#ffffff"
       stroke-width="0.5"
       id="ellipse53" /><ellipse
       cx="-139.92046"
       cy="-47.130508"
       rx="1.2"
       ry="0.85000002"
       fill="#1b2a41"
       stroke="#ffffff"
       stroke-width="0.5"
       id="ellipse55" /><circle
       cx="-145.52045"
       cy="-47.330509"
       r="0.25"
       fill="#ffffff"
       id="circle57" /><circle
       cx="-140.12045"
       cy="-47.230507"
       r="0.25"
       fill="#ffffff"
       id="circle59" /><ellipse
       cx="-142.82045"
       cy="-42.53051"
       rx="5.8000002"
       ry="2"
       fill="#000000"
       opacity="0.16"
       id="ellipse77" /><path
       d="m -145.12045,-43.830508 c 1,0.8 3.5,0.8 4.5,0"
       fill="none"
       stroke="#7a3e12"
       stroke-width="0.6"
       stroke-linecap="round"
       id="path61" /><circle
       cx="-152.32045"
       cy="-28.430506"
       r="2.5999999"
       fill="url(#skin)"
       stroke="#915f2c"
       stroke-width="0.8"
       id="circle63"
       style="fill:url(#linearGradient478)" /><circle
       cx="-133.42046"
       cy="-28.430506"
       r="2.5999999"
       fill="url(#skin)"
       stroke="#915f2c"
       stroke-width="0.8"
       id="circle65"
       style="fill:url(#linearGradient480)" /><rect
       x="-149.52045"
       y="-16.530508"
       width="6"
       height="6.8000002"
       rx="1.2"
       fill="#2f3b57"
       stroke="#1c2638"
       stroke-width="0.7"
       id="rect67" /><rect
       x="-142.12045"
       y="-16.530508"
       width="6"
       height="6.8000002"
       rx="1.2"
       fill="#2f3b57"
       stroke="#1c2638"
       stroke-width="0.7"
       id="rect69" /><path
       d="m -142.44798,-10.230508 h -7.3 a 2.2,2.2 0 0 0 -2.2,2.2 v 1 h 10.7 z"
       fill="url(#boot)"
       stroke="#3a230f"
       stroke-width="0.7"
       id="path71"
       style="fill:url(#linearGradient389)" /><path
       d="m -142.52045,-10.230508 h 7.3 a 2.2,2.2 0 0 1 2.2,2.2 v 1 h -10.7 z"
       fill="url(#boot)"
       stroke="#3a230f"
       stroke-width="0.7"
       id="path73"
       style="fill:url(#linearGradient391)" /><ellipse
       cx="-142.82045"
       cy="-52.430508"
       rx="5.5999999"
       ry="2.2"
       fill="#ffffff"
       opacity="0.22"
       id="ellipse75" /></g><g
     id="g412"
     transform="translate(-66.863351)"><rect
       style="opacity:1;fill:#8ae234;stroke:none;stroke-width:3;stroke-linejoin:round"
       id="rect2166"
       width="64"
       height="64"
       x="0"
       y="0" /><path
       id="path1428"
       style="fill:#73d216;stroke:#4e9a06;stroke-width:3;stroke-linejoin:round"
       d="m 74.003849,23.921378 a 14.720184,18.010593 70.845693 0 0 -7.503906,1.197265 14.720184,18.010593 70.845693 0 0 -4.75,2.339844 18.010593,14.720184 0 0 0 -11.142578,-3.154297 18.010593,14.720184 0 0 0 -18.009766,14.720703 18.010593,14.720184 0 0 0 6.791016,11.47461 14.720184,18.010593 52.849836 0 0 2.425781,6.380859 14.720184,18.010593 52.849836 0 0 23.246094,0.855469 14.720184,18.010593 52.849836 0 0 3.742187,-3.613282 14.720184,18.010593 70.845693 0 0 7.357422,-1.193359 14.720184,18.010593 70.845693 0 0 12.183594,-19.814453 14.720184,18.010593 70.845693 0 0 -14.339844,-9.193359 z" /><path
       id="ellipse2092"
       style="fill:#8ae234;stroke:#4e9a06;stroke-width:3;stroke-linejoin:round"
       d="m 55.168607,44.459148 a 12.714911,15.122596 0 0 0 -7.914063,3.326172 15.317864,13.43782 36.746226 0 0 -17.888672,7.556641 15.317864,13.43782 36.746226 0 0 4.689453,15.138668 17.382714,13.037248 59.687059 0 0 1.00586,7.32227 17.382714,13.037248 59.687059 0 0 18.615234,13.94336 17.382714,13.037248 59.687059 0 0 7.796875,-18.50977 17.382714,13.037248 59.687059 0 0 -0.175781,-0.44922 12.714911,15.122596 0 0 0 6.585938,-13.20507 12.714911,15.122596 0 0 0 -12.714844,-15.123051 z" /><path
       id="ellipse2098"
       style="fill:#73d216;stroke:#4e9a06;stroke-width:3;stroke-linejoin:round"
       d="m 86.906229,41.400861 a 13.037248,17.382714 59.687059 0 0 -6.38477,1.064453 13.037248,17.382714 59.687059 0 0 -8.31445,4.966797 15.122596,12.714911 0 0 0 -1.11133,-0.03711 15.122596,12.714911 0 0 0 -15.123046,12.714843 15.122596,12.714911 0 0 0 10.537106,12.097657 13.43782,15.317864 36.746226 0 0 7.55274,6.99414 13.43782,15.317864 36.746226 0 0 18.54492,-10.107421 13.43782,15.317864 36.746226 0 0 1.08594,-5.425782 13.037248,17.382714 59.687059 0 0 5.33789,-13.404297 13.037248,17.382714 59.687059 0 0 -12.125,-8.86328 z" /><path
       id="path2278"
       style="fill:#73d216;stroke:#4e9a06;stroke-width:3;stroke-linejoin:round"
       d="m 74.003849,-40.078622 a 14.720184,18.010593 70.845693 0 0 -7.503906,1.197265 14.720184,18.010593 70.845693 0 0 -4.75,2.339844 18.010593,14.720184 0 0 0 -11.142578,-3.154297 18.010593,14.720184 0 0 0 -18.009766,14.720703 18.010593,14.720184 0 0 0 6.791016,11.47461 14.720184,18.010593 52.849836 0 0 2.425781,6.380859 14.720184,18.010593 52.849836 0 0 23.246094,0.855469 14.720184,18.010593 52.849836 0 0 3.742187,-3.613282 14.720184,18.010593 70.845693 0 0 7.357422,-1.193359 14.720184,18.010593 70.845693 0 0 12.183594,-19.814453 14.720184,18.010593 70.845693 0 0 -14.339844,-9.193359 z" /><path
       id="path2280"
       style="fill:#8ae234;stroke:#4e9a06;stroke-width:3;stroke-linejoin:round"
       d="m 55.168607,-19.540852 a 12.714911,15.122596 0 0 0 -7.914063,3.326172 15.317864,13.43782 36.746226 0 0 -17.888672,7.556641 15.317864,13.43782 36.746226 0 0 4.689453,15.138668 17.382714,13.037248 59.687059 0 0 1.00586,7.32227 17.382714,13.037248 59.687059 0 0 18.615234,13.94336 17.382714,13.037248 59.687059 0 0 7.796875,-18.50977 17.382714,13.037248 59.687059 0 0 -0.175781,-0.44922 12.714911,15.122596 0 0 0 6.585938,-13.20507 12.714911,15.122596 0 0 0 -12.714844,-15.123051 z" /><path
       id="path2282"
       style="fill:#73d216;stroke:#4e9a06;stroke-width:3;stroke-linejoin:round"
       d="m 86.906229,-22.599139 a 13.037248,17.382714 59.687059 0 0 -6.38477,1.064453 13.037248,17.382714 59.687059 0 0 -8.31445,4.966797 15.122596,12.714911 0 0 0 -1.11133,-0.03711 15.122596,12.714911 0 0 0 -15.123046,12.714843 15.122596,12.714911 0 0 0 10.537106,12.097657 13.43782,15.317864 36.746226 0 0 7.55274,6.99414 13.43782,15.317864 36.746226 0 0 18.54492,-10.107421 13.43782,15.317864 36.746226 0 0 1.08594,-5.425782 13.037248,17.382714 59.687059 0 0 5.33789,-13.404297 13.037248,17.382714 59.687059 0 0 -12.125,-8.86328 z" /><path
       id="path2284"
       style="fill:#73d216;stroke:#4e9a06;stroke-width:3;stroke-linejoin:round"
       d="m 75.501929,1.478986 a 15.704288,11.813915 59.124323 0 0 -8.99219,6.728515 15.122596,12.714911 0 0 0 -10.94531,12.216801 15.122596,12.714911 0 0 0 12.61328,12.51953 12.724732,15.038772 24.29811 0 0 6.85938,6.57226 12.724732,15.038772 24.29811 0 0 17.24023,-10.10742 12.724732,15.038772 24.29811 0 0 -1.03906,-13.37305 15.704288,11.813915 59.124323 0 0 -10.68945,-13.455074 15.704288,11.813915 59.124323 0 0 -5.04688,-1.101562 z" /><path
       id="path2288"
       style="fill:#73d216;stroke:#4e9a06;stroke-width:3;stroke-linejoin:round"
       d="m 10.003849,-40.078622 a 14.720184,18.010593 70.845693 0 0 -7.503906,1.197265 14.720184,18.010593 70.845693 0 0 -4.75,2.339844 18.010593,14.720184 0 0 0 -11.142578,-3.154297 18.010593,14.720184 0 0 0 -18.009766,14.720703 18.010593,14.720184 0 0 0 6.791016,11.47461 14.720184,18.010593 52.849836 0 0 2.425781,6.380859 14.720184,18.010593 52.849836 0 0 23.246094,0.855469 14.720184,18.010593 52.849836 0 0 3.742187,-3.613282 14.720184,18.010593 70.845693 0 0 7.357422,-1.193359 14.720184,18.010593 70.845693 0 0 12.183594,-19.814453 14.720184,18.010593 70.845693 0 0 -14.339844,-9.193359 z" /><path
       id="path2290"
       style="fill:#8ae234;stroke:#4e9a06;stroke-width:3;stroke-linejoin:round"
       d="m -8.831393,-19.540852 a 12.714911,15.122596 0 0 0 -7.914063,3.326172 15.317864,13.43782 36.746226 0 0 -17.888672,7.556641 15.317864,13.43782 36.746226 0 0 4.689453,15.138668 17.382714,13.037248 59.687059 0 0 1.00586,7.32227 17.382714,13.037248 59.687059 0 0 18.615234,13.94336 17.382714,13.037248 59.687059 0 0 7.796875,-18.50977 17.382714,13.037248 59.687059 0 0 -0.175781,-0.44922 12.714911,15.122596 0 0 0 6.585938,-13.20507 12.714911,15.122596 0 0 0 -12.714844,-15.123051 z" /><path
       id="path2292"
       style="fill:#73d216;stroke:#4e9a06;stroke-width:3;stroke-linejoin:round"
       d="m 22.906229,-22.599139 a 13.037248,17.382714 59.687059 0 0 -6.38477,1.064453 13.037248,17.382714 59.687059 0 0 -8.31445,4.966797 15.122596,12.714911 0 0 0 -1.11133,-0.03711 15.122596,12.714911 0 0 0 -15.123046,12.714843 15.122596,12.714911 0 0 0 10.537106,12.097657 13.43782,15.317864 36.746226 0 0 7.55274,6.99414 13.43782,15.317864 36.746226 0 0 18.54492,-10.107421 13.43782,15.317864 36.746226 0 0 1.08594,-5.425782 13.037248,17.382714 59.687059 0 0 5.33789,-13.404297 13.037248,17.382714 59.687059 0 0 -12.125,-8.86328 z" /><path
       id="path2298"
       style="fill:#73d216;stroke:#4e9a06;stroke-width:3;stroke-linejoin:round"
       d="m 10.003849,23.921378 a 14.720184,18.010593 70.845693 0 0 -7.503906,1.197265 14.720184,18.010593 70.845693 0 0 -4.75,2.339844 18.010593,14.720184 0 0 0 -11.142578,-3.154297 18.010593,14.720184 0 0 0 -18.009766,14.720703 18.010593,14.720184 0 0 0 6.791016,11.47461 14.720184,18.010593 52.849836 0 0 2.425781,6.380859 A 14.720184,18.010593 52.849836 0 0 1.06049,57.735831 14.720184,18.010593 52.849836 0 0 4.802677,54.122549 14.720184,18.010593 70.845693 0 0 12.160099,52.92919 14.720184,18.010593 70.845693 0 0 24.343693,33.114737 14.720184,18.010593 70.845693 0 0 10.003849,23.921378 Z" /><path
       id="path2300"
       style="fill:#8ae234;stroke:#4e9a06;stroke-width:3;stroke-linejoin:round"
       d="m -8.831393,44.459148 a 12.714911,15.122596 0 0 0 -7.914063,3.326172 15.317864,13.43782 36.746226 0 0 -17.888672,7.556641 15.317864,13.43782 36.746226 0 0 4.689453,15.138668 17.382714,13.037248 59.687059 0 0 1.00586,7.32227 17.382714,13.037248 59.687059 0 0 18.615234,13.94336 17.382714,13.037248 59.687059 0 0 7.796875,-18.50977 17.382714,13.037248 59.687059 0 0 -0.175781,-0.44922 12.714911,15.122596 0 0 0 6.585938,-13.20507 12.714911,15.122596 0 0 0 -12.714844,-15.123051 z" /><path
       id="path2302"
       style="fill:#73d216;stroke:#4e9a06;stroke-width:3;stroke-linejoin:round"
       d="m 22.906229,41.400861 a 13.037248,17.382714 59.687059 0 0 -6.38477,1.064453 13.037248,17.382714 59.687059 0 0 -8.31445,4.966797 15.122596,12.714911 0 0 0 -1.11133,-0.03711 15.122596,12.714911 0 0 0 -15.123046,12.714843 15.122596,12.714911 0 0 0 10.537106,12.097657 13.43782,15.317864 36.746226 0 0 7.55274,6.99414 13.43782,15.317864 36.746226 0 0 18.54492,-10.107421 13.43782,15.317864 36.746226 0 0 1.08594,-5.425782 13.037248,17.382714 59.687059 0 0 5.33789,-13.404297 13.037248,17.382714 59.687059 0 0 -12.125,-8.86328 z" /><path
       id="path2304"
       style="fill:#73d216;stroke:#4e9a06;stroke-width:3;stroke-linejoin:round"
       d="m 11.501929,65.478986 a 15.704288,11.813915 59.124323 0 0 -8.99219,6.728515 15.122596,12.714911 0 0 0 -10.94531,12.216801 15.122596,12.714911 0 0 0 12.61328,12.51953 12.724732,15.038772 24.29811 0 0 6.85938,6.572258 12.724732,15.038772 24.29811 0 0 17.24023,-10.107418 12.724732,15.038772 24.29811 0 0 -1.03906,-13.37305 15.704288,11.813915 59.124323 0 0 -10.68945,-13.455074 15.704288,11.813915 59.124323 0 0 -5.04688,-1.101562 z" /><path
       id="path2294"
       style="fill:#73d216;stroke:#4e9a06;stroke-width:3;stroke-linejoin:round"
       d="m 11.501929,1.478986 a 15.704288,11.813915 59.124323 0 0 -8.99219,6.728515 15.122596,12.714911 0 0 0 -10.94531,12.216801 15.122596,12.714911 0 0 0 12.61328,12.51953 12.724732,15.038772 24.29811 0 0 6.85938,6.57226 12.724732,15.038772 24.29811 0 0 17.24023,-10.10742 12.724732,15.038772 24.29811 0 0 -1.03906,-13.37305 15.704288,11.813915 59.124323 0 0 -10.68945,-13.455074 15.704288,11.813915 59.124323 0 0 -5.04688,-1.101562 z" /></g><g
     id="g472"
     transform="translate(-66.863351,-64)"><rect
       style="opacity:1;fill:#8ae234;stroke:none;stroke-width:3;stroke-linejoin:round"
       id="rect440"
       width="64"
       height="64"
       x="0"
       y="0" /><path
       id="path442"
       style="fill:#73d216;stroke:#4e9a06;stroke-width:3;stroke-linejoin:round"
       d="m 74.003849,23.921378 a 14.720184,18.010593 70.845693 0 0 -7.503906,1.197265 14.720184,18.010593 70.845693 0 0 -4.75,2.339844 18.010593,14.720184 0 0 0 -11.142578,-3.154297 18.010593,14.720184 0 0 0 -18.009766,14.720703 18.010593,14.720184 0 0 0 6.791016,11.47461 14.720184,18.010593 52.849836 0 0 2.425781,6.380859 14.720184,18.010593 52.849836 0 0 23.246094,0.855469 14.720184,18.010593 52.849836 0 0 3.742187,-3.613282 14.720184,18.010593 70.845693 0 0 7.357422,-1.193359 14.720184,18.010593 70.845693 0 0 12.183594,-19.814453 14.720184,18.010593 70.845693 0 0 -14.339844,-9.193359 z" /><path
       id="path444"
       style="fill:#8ae234;stroke:#4e9a06;stroke-width:3;stroke-linejoin:round"
       d="m 55.168607,44.459148 a 12.714911,15.122596 0 0 0 -7.914063,3.326172 15.317864,13.43782 36.746226 0 0 -17.888672,7.556641 15.317864,13.43782 36.746226 0 0 4.689453,15.138668 17.382714,13.037248 59.687059 0 0 1.00586,7.32227 17.382714,13.037248 59.687059 0 0 18.615234,13.94336 17.382714,13.037248 59.687059 0 0 7.796875,-18.50977 17.382714,13.037248 59.687059 0 0 -0.175781,-0.44922 12.714911,15.122596 0 0 0 6.585938,-13.20507 12.714911,15.122596 0 0 0 -12.714844,-15.123051 z" /><path
       id="path446"
       style="fill:#73d216;stroke:#4e9a06;stroke-width:3;stroke-linejoin:round"
       d="m 86.906229,41.400861 a 13.037248,17.382714 59.687059 0 0 -6.38477,1.064453 13.037248,17.382714 59.687059 0 0 -8.31445,4.966797 15.122596,12.714911 0 0 0 -1.11133,-0.03711 15.122596,12.714911 0 0 0 -15.123046,12.714843 15.122596,12.714911 0 0 0 10.537106,12.097657 13.43782,15.317864 36.746226 0 0 7.55274,6.99414 13.43782,15.317864 36.746226 0 0 18.54492,-10.107421 13.43782,15.317864 36.746226 0 0 1.08594,-5.425782 13.037248,17.382714 59.687059 0 0 5.33789,-13.404297 13.037248,17.382714 59.687059 0 0 -12.125,-8.86328 z" /><path
       id="path448"
       style="fill:#73d216;stroke:#4e9a06;stroke-width:3;stroke-linejoin:round"
       d="m 74.003849,-40.078622 a 14.720184,18.010593 70.845693 0 0 -7.503906,1.197265 14.720184,18.010593 70.845693 0 0 -4.75,2.339844 18.010593,14.720184 0 0 0 -11.142578,-3.154297 18.010593,14.720184 0 0 0 -18.009766,14.720703 18.010593,14.720184 0 0 0 6.791016,11.47461 14.720184,18.010593 52.849836 0 0 2.425781,6.380859 14.720184,18.010593 52.849836 0 0 23.246094,0.855469 14.720184,18.010593 52.849836 0 0 3.742187,-3.613282 14.720184,18.010593 70.845693 0 0 7.357422,-1.193359 14.720184,18.010593 70.845693 0 0 12.183594,-19.814453 14.720184,18.010593 70.845693 0 0 -14.339844,-9.193359 z" /><path
       id="path450"
       style="fill:#8ae234;stroke:#4e9a06;stroke-width:3;stroke-linejoin:round"
       d="m 55.168607,-19.540852 a 12.714911,15.122596 0 0 0 -7.914063,3.326172 15.317864,13.43782 36.746226 0 0 -17.888672,7.556641 15.317864,13.43782 36.746226 0 0 4.689453,15.138668 17.382714,13.037248 59.687059 0 0 1.00586,7.32227 17.382714,13.037248 59.687059 0 0 18.615234,13.94336 17.382714,13.037248 59.687059 0 0 7.796875,-18.50977 17.382714,13.037248 59.687059 0 0 -0.175781,-0.44922 12.714911,15.122596 0 0 0 6.585938,-13.20507 12.714911,15.122596 0 0 0 -12.714844,-15.123051 z" /><path
       id="path452"
       style="fill:#73d216;stroke:#4e9a06;stroke-width:3;stroke-linejoin:round"
       d="m 86.906229,-22.599139 a 13.037248,17.382714 59.687059 0 0 -6.38477,1.064453 13.037248,17.382714 59.687059 0 0 -8.31445,4.966797 15.122596,12.714911 0 0 0 -1.11133,-0.03711 15.122596,12.714911 0 0 0 -15.123046,12.714843 15.122596,12.714911 0 0 0 10.537106,12.097657 13.43782,15.317864 36.746226 0 0 7.55274,6.99414 13.43782,15.317864 36.746226 0 0 18.54492,-10.107421 13.43782,15.317864 36.746226 0 0 1.08594,-5.425782 13.037248,17.382714 59.687059 0 0 5.33789,-13.404297 13.037248,17.382714 59.687059 0 0 -12.125,-8.86328 z" /><path
       id="path454"
       style="fill:#73d216;stroke:#4e9a06;stroke-width:3;stroke-linejoin:round"
       d="m 75.501929,1.478986 a 15.704288,11.813915 59.124323 0 0 -8.99219,6.728515 15.122596,12.714911 0 0 0 -10.94531,12.216801 15.122596,12.714911 0 0 0 12.61328,12.51953 12.724732,15.038772 24.29811 0 0 6.85938,6.57226 12.724732,15.038772 24.29811 0 0 17.24023,-10.10742 12.724732,15.038772 24.29811 0 0 -1.03906,-13.37305 15.704288,11.813915 59.124323 0 0 -10.68945,-13.455074 15.704288,11.813915 59.124323 0 0 -5.04688,-1.101562 z" /><path
       id="path456"
       style="fill:#73d216;stroke:#4e9a06;stroke-width:3;stroke-linejoin:round"
       d="m 10.003849,-40.078622 a 14.720184,18.010593 70.845693 0 0 -7.503906,1.197265 14.720184,18.010593 70.845693 0 0 -4.75,2.339844 18.010593,14.720184 0 0 0 -11.142578,-3.154297 18.010593,14.720184 0 0 0 -18.009766,14.720703 18.010593,14.720184 0 0 0 6.791016,11.47461 14.720184,18.010593 52.849836 0 0 2.425781,6.380859 14.720184,18.010593 52.849836 0 0 23.246094,0.855469 14.720184,18.010593 52.849836 0 0 3.742187,-3.613282 14.720184,18.010593 70.845693 0 0 7.357422,-1.193359 14.720184,18.010593 70.845693 0 0 12.183594,-19.814453 14.720184,18.010593 70.845693 0 0 -14.339844,-9.193359 z" /><path
       id="path458"
       style="fill:#8ae234;stroke:#4e9a06;stroke-width:3;stroke-linejoin:round"
       d="m -8.831393,-19.540852 a 12.714911,15.122596 0 0 0 -7.914063,3.326172 15.317864,13.43782 36.746226 0 0 -17.888672,7.556641 15.317864,13.43782 36.746226 0 0 4.689453,15.138668 17.382714,13.037248 59.687059 0 0 1.00586,7.32227 17.382714,13.037248 59.687059 0 0 18.615234,13.94336 17.382714,13.037248 59.687059 0 0 7.796875,-18.50977 17.382714,13.037248 59.687059 0 0 -0.175781,-0.44922 12.714911,15.122596 0 0 0 6.585938,-13.20507 12.714911,15.122596 0 0 0 -12.714844,-15.123051 z" /><path
       id="path460"
       style="fill:#73d216;stroke:#4e9a06;stroke-width:3;stroke-linejoin:round"
       d="m 22.906229,-22.599139 a 13.037248,17.382714 59.687059 0 0 -6.38477,1.064453 13.037248,17.382714 59.687059 0 0 -8.31445,4.966797 15.122596,12.714911 0 0 0 -1.11133,-0.03711 15.122596,12.714911 0 0 0 -15.123046,12.714843 15.122596,12.714911 0 0 0 10.537106,12.097657 13.43782,15.317864 36.746226 0 0 7.55274,6.99414 13.43782,15.317864 36.746226 0 0 18.54492,-10.107421 13.43782,15.317864 36.746226 0 0 1.08594,-5.425782 13.037248,17.382714 59.687059 0 0 5.33789,-13.404297 13.037248,17.382714 59.687059 0 0 -12.125,-8.86328 z" /><path
       id="path462"
       style="fill:#73d216;stroke:#4e9a06;stroke-width:3;stroke-linejoin:round"
       d="m 10.003849,23.921378 a 14.720184,18.010593 70.845693 0 0 -7.503906,1.197265 14.720184,18.010593 70.845693 0 0 -4.75,2.339844 18.010593,14.720184 0 0 0 -11.142578,-3.154297 18.010593,14.720184 0 0 0 -18.009766,14.720703 18.010593,14.720184 0 0 0 6.791016,11.47461 14.720184,18.010593 52.849836 0 0 2.425781,6.380859 A 14.720184,18.010593 52.849836 0 0 1.06049,57.735831 14.720184,18.010593 52.849836 0 0 4.802677,54.122549 14.720184,18.010593 70.845693 0 0 12.160099,52.92919 14.720184,18.010593 70.845693 0 0 24.343693,33.114737 14.720184,18.010593 70.845693 0 0 10.003849,23.921378 Z" /><path
       id="path464"
       style="fill:#8ae234;stroke:#4e9a06;stroke-width:3;stroke-linejoin:round"
       d="m -8.831393,44.459148 a 12.714911,15.122596 0 0 0 -7.914063,3.326172 15.317864,13.43782 36.746226 0 0 -17.888672,7.556641 15.317864,13.43782 36.746226 0 0 4.689453,15.138668 17.382714,13.037248 59.687059 0 0 1.00586,7.32227 17.382714,13.037248 59.687059 0 0 18.615234,13.94336 17.382714,13.037248 59.687059 0 0 7.796875,-18.50977 17.382714,13.037248 59.687059 0 0 -0.175781,-0.44922 12.714911,15.122596 0 0 0 6.585938,-13.20507 12.714911,15.122596 0 0 0 -12.714844,-15.123051 z" /><path
       id="path466"
       style="fill:#73d216;stroke:#4e9a06;stroke-width:3;stroke-linejoin:round"
       d="m 22.906229,41.400861 a 13.037248,17.382714 59.687059 0 0 -6.38477,1.064453 13.037248,17.382714 59.687059 0 0 -8.31445,4.966797 15.122596,12.714911 0 0 0 -1.11133,-0.03711 15.122596,12.714911 0 0 0 -15.123046,12.714843 15.122596,12.714911 0 0 0 10.537106,12.097657 13.43782,15.317864 36.746226 0 0 7.55274,6.99414 13.43782,15.317864 36.746226 0 0 18.54492,-10.107421 13.43782,15.317864 36.746226 0 0 1.08594,-5.425782 13.037248,17.382714 59.687059 0 0 5.33789,-13.404297 13.037248,17.382714 59.687059 0 0 -12.125,-8.86328 z" /><path
       id="path468"
       style="fill:#73d216;stroke:#4e9a06;stroke-width:3;stroke-linejoin:round"
       d="m 11.501929,65.478986 a 15.704288,11.813915 59.124323 0 0 -8.99219,6.728515 15.122596,12.714911 0 0 0 -10.94531,12.216801 15.122596,12.714911 0 0 0 12.61328,12.51953 12.724732,15.038772 24.29811 0 0 6.85938,6.572258 12.724732,15.038772 24.29811 0 0 17.24023,-10.107418 12.724732,15.038772 24.29811 0 0 -1.03906,-13.37305 15.704288,11.813915 59.124323 0 0 -10.68945,-13.455074 15.704288,11.813915 59.124323 0 0 -5.04688,-1.101562 z" /><path
       id="path470"
       style="fill:#73d216;stroke:#4e9a06;stroke-width:3;stroke-linejoin:round"
       d="m 11.501929,1.478986 a 15.704288,11.813915 59.124323 0 0 -8.99219,6.728515 15.122596,12.714911 0 0 0 -10.94531,12.216801 15.122596,12.714911 0 0 0 12.61328,12.51953 12.724732,15.038772 24.29811 0 0 6.85938,6.57226 12.724732,15.038772 24.29811 0 0 17.24023,-10.10742 12.724732,15.038772 24.29811 0 0 -1.03906,-13.37305 15.704288,11.813915 59.124323 0 0 -10.68945,-13.455074 15.704288,11.813915 59.124323 0 0 -5.04688,-1.101562 z" /></g><g
     id="g545"
     transform="translate(-2.863351,-128)"><rect
       style="opacity:1;fill:#8ae234;stroke:none;stroke-width:3;stroke-linejoin:round"
       id="rect513"
       width="64"
       height="64"
       x="0"
       y="0" /><path
       id="path515"
       style="fill:#73d216;stroke:#4e9a06;stroke-width:3;stroke-linejoin:round"
       d="m 74.003849,23.921378 a 14.720184,18.010593 70.845693 0 0 -7.503906,1.197265 14.720184,18.010593 70.845693 0 0 -4.75,2.339844 18.010593,14.720184 0 0 0 -11.142578,-3.154297 18.010593,14.720184 0 0 0 -18.009766,14.720703 18.010593,14.720184 0 0 0 6.791016,11.47461 14.720184,18.010593 52.849836 0 0 2.425781,6.380859 14.720184,18.010593 52.849836 0 0 23.246094,0.855469 14.720184,18.010593 52.849836 0 0 3.742187,-3.613282 14.720184,18.010593 70.845693 0 0 7.357422,-1.193359 14.720184,18.010593 70.845693 0 0 12.183594,-19.814453 14.720184,18.010593 70.845693 0 0 -14.339844,-9.193359 z" /><path
       id="path517"
       style="fill:#8ae234;stroke:#4e9a06;stroke-width:3;stroke-linejoin:round"
       d="m 55.168607,44.459148 a 12.714911,15.122596 0 0 0 -7.914063,3.326172 15.317864,13.43782 36.746226 0 0 -17.888672,7.556641 15.317864,13.43782 36.746226 0 0 4.689453,15.138668 17.382714,13.037248 59.687059 0 0 1.00586,7.32227 17.382714,13.037248 59.687059 0 0 18.615234,13.94336 17.382714,13.037248 59.687059 0 0 7.796875,-18.50977 17.382714,13.037248 59.687059 0 0 -0.175781,-0.44922 12.714911,15.122596 0 0 0 6.585938,-13.20507 12.714911,15.122596 0 0 0 -12.714844,-15.123051 z" /><path
       id="path519"
       style="fill:#73d216;stroke:#4e9a06;stroke-width:3;stroke-linejoin:round"
       d="m 86.906229,41.400861 a 13.037248,17.382714 59.687059 0 0 -6.38477,1.064453 13.037248,17.382714 59.687059 0 0 -8.31445,4.966797 15.122596,12.714911 0 0 0 -1.11133,-0.03711 15.122596,12.714911 0 0 0 -15.123046,12.714843 15.122596,12.714911 0 0 0 10.537106,12.097657 13.43782,15.317864 36.746226 0 0 7.55274,6.99414 13.43782,15.317864 36.746226 0 0 18.54492,-10.107421 13.43782,15.317864 36.746226 0 0 1.08594,-5.425782 13.037248,17.382714 59.687059 0 0 5.33789,-13.404297 13.037248,17.382714 59.687059 0 0 -12.125,-8.86328 z" /><path
       id="path521"
       style="fill:#73d216;stroke:#4e9a06;stroke-width:3;stroke-linejoin:round"
       d="m 74.003849,-40.078622 a 14.720184,18.010593 70.845693 0 0 -7.503906,1.197265 14.720184,18.010593 70.845693 0 0 -4.75,2.339844 18.010593,14.720184 0 0 0 -11.142578,-3.154297 18.010593,14.720184 0 0 0 -18.009766,14.720703 18.010593,14.720184 0 0 0 6.791016,11.47461 14.720184,18.010593 52.849836 0 0 2.425781,6.380859 14.720184,18.010593 52.849836 0 0 23.246094,0.855469 14.720184,18.010593 52.849836 0 0 3.742187,-3.613282 14.720184,18.010593 70.845693 0 0 7.357422,-1.193359 14.720184,18.010593 70.845693 0 0 12.183594,-19.814453 14.720184,18.010593 70.845693 0 0 -14.339844,-9.193359 z" /><path
       id="path523"
       style="fill:#8ae234;stroke:#4e9a06;stroke-width:3;stroke-linejoin:round"
       d="m 55.168607,-19.540852 a 12.714911,15.122596 0 0 0 -7.914063,3.326172 15.317864,13.43782 36.746226 0 0 -17.888672,7.556641 15.317864,13.43782 36.746226 0 0 4.689453,15.138668 17.382714,13.037248 59.687059 0 0 1.00586,7.32227 17.382714,13.037248 59.687059 0 0 18.615234,13.94336 17.382714,13.037248 59.687059 0 0 7.796875,-18.50977 17.382714,13.037248 59.687059 0 0 -0.175781,-0.44922 12.714911,15.122596 0 0 0 6.585938,-13.20507 12.714911,15.122596 0 0 0 -12.714844,-15.123051 z" /><path
       id="path525"
       style="fill:#73d216;stroke:#4e9a06;stroke-width:3;stroke-linejoin:round"
       d="m 86.906229,-22.599139 a 13.037248,17.382714 59.687059 0 0 -6.38477,1.064453 13.037248,17.382714 59.687059 0 0 -8.31445,4.966797 15.122596,12.714911 0 0 0 -1.11133,-0.03711 15.122596,12.714911 0 0 0 -15.123046,12.714843 15.122596,12.714911 0 0 0 10.537106,12.097657 13.43782,15.317864 36.746226 0 0 7.55274,6.99414 13.43782,15.317864 36.746226 0 0 18.54492,-10.107421 13.43782,15.317864 36.746226 0 0 1.08594,-5.425782 13.037248,17.382714 59.687059 0 0 5.33789,-13.404297 13.037248,17.382714 59.687059 0 0 -12.125,-8.86328 z" /><path
       id="path527"
       style="fill:#73d216;stroke:#4e9a06;stroke-width:3;stroke-linejoin:round"
       d="m 75.501929,1.478986 a 15.704288,11.813915 59.124323 0 0 -8.99219,6.728515 15.122596,12.714911 0 0 0 -10.94531,12.216801 15.122596,12.714911 0 0 0 12.61328,12.51953 12.724732,15.038772 24.29811 0 0 6.85938,6.57226 12.724732,15.038772 24.29811 0 0 17.24023,-10.10742 12.724732,15.038772 24.29811 0 0 -1.03906,-13.37305 15.704288,11.813915 59.124323 0 0 -10.68945,-13.455074 15.704288,11.813915 59.124323 0 0 -5.04688,-1.101562 z" /><path
       id="path529"
       style="fill:#73d216;stroke:#4e9a06;stroke-width:3;stroke-linejoin:round"
       d="m 10.003849,-40.078622 a 14.720184,18.010593 70.845693 0 0 -7.503906,1.197265 14.720184,18.010593 70.845693 0 0 -4.75,2.339844 18.010593,14.720184 0 0 0 -11.142578,-3.154297 18.010593,14.720184 0 0 0 -18.009766,14.720703 18.010593,14.720184 0 0 0 6.791016,11.47461 14.720184,18.010593 52.849836 0 0 2.425781,6.380859 14.720184,18.010593 52.849836 0 0 23.246094,0.855469 14.720184,18.010593 52.849836 0 0 3.742187,-3.613282 14.720184,18.010593 70.845693 0 0 7.357422,-1.193359 14.720184,18.010593 70.845693 0 0 12.183594,-19.814453 14.720184,18.010593 70.845693 0 0 -14.339844,-9.193359 z" /><path
       id="path531"
       style="fill:#8ae234;stroke:#4e9a06;stroke-width:3;stroke-linejoin:round"
       d="m -8.831393,-19.540852 a 12.714911,15.122596 0 0 0 -7.914063,3.326172 15.317864,13.43782 36.746226 0 0 -17.888672,7.556641 15.317864,13.43782 36.746226 0 0 4.689453,15.138668 17.382714,13.037248 59.687059 0 0 1.00586,7.32227 17.382714,13.037248 59.687059 0 0 18.615234,13.94336 17.382714,13.037248 59.687059 0 0 7.796875,-18.50977 17.382714,13.037248 59.687059 0 0 -0.175781,-0.44922 12.714911,15.122596 0 0 0 6.585938,-13.20507 12.714911,15.122596 0 0 0 -12.714844,-15.123051 z" /><path
       id="path533"
       style="fill:#73d216;stroke:#4e9a06;stroke-width:3;stroke-linejoin:round"
       d="m 22.906229,-22.599139 a 13.037248,17.382714 59.687059 0 0 -6.38477,1.064453 13.037248,17.382714 59.687059 0 0 -8.31445,4.966797 15.122596,12.714911 0 0 0 -1.11133,-0.03711 15.122596,12.714911 0 0 0 -15.123046,12.714843 15.122596,12.714911 0 0 0 10.537106,12.097657 13.43782,15.317864 36.746226 0 0 7.55274,6.99414 13.43782,15.317864 36.746226 0 0 18.54492,-10.107421 13.43782,15.317864 36.746226 0 0 1.08594,-5.425782 13.037248,17.382714 59.687059 0 0 5.33789,-13.404297 13.037248,17.382714 59.687059 0 0 -12.125,-8.86328 z" /><path
       id="path535"
       style="fill:#73d216;stroke:#4e9a06;stroke-width:3;stroke-linejoin:round"
       d="m 10.003849,23.921378 a 14.720184,18.010593 70.845693 0 0 -7.503906,1.197265 14.720184,18.010593 70.845693 0 0 -4.75,2.339844 18.010593,14.720184 0 0 0 -11.142578,-3.154297 18.010593,14.720184 0 0 0 -18.009766,14.720703 18.010593,14.720184 0 0 0 6.791016,11.47461 14.720184,18.010593 52.849836 0 0 2.425781,6.380859 A 14.720184,18.010593 52.849836 0 0 1.06049,57.735831 14.720184,18.010593 52.849836 0 0 4.802677,54.122549 14.720184,18.010593 70.845693 0 0 12.160099,52.92919 14.720184,18.010593 70.845693 0 0 24.343693,33.114737 14.720184,18.010593 70.845693 0 0 10.003849,23.921378 Z" /><path
       id="path537"
       style="fill:#8ae234;stroke:#4e9a06;stroke-width:3;stroke-linejoin:round"
       d="m -8.831393,44.459148 a 12.714911,15.122596 0 0 0 -7.914063,3.326172 15.317864,13.43782 36.746226 0 0 -17.888672,7.556641 15.317864,13.43782 36.746226 0 0 4.689453,15.138668 17.382714,13.037248 59.687059 0 0 1.00586,7.32227 17.382714,13.037248 59.687059 0 0 18.615234,13.94336 17.382714,13.037248 59.687059 0 0 7.796875,-18.50977 17.382714,13.037248 59.687059 0 0 -0.175781,-0.44922 12.714911,15.122596 0 0 0 6.585938,-13.20507 12.714911,15.122596 0 0 0 -12.714844,-15.123051 z" /><path
       id="path539"
       style="fill:#73d216;stroke:#4e9a06;stroke-width:3;stroke-linejoin:round"
       d="m 22.906229,41.400861 a 13.037248,17.382714 59.687059 0 0 -6.38477,1.064453 13.037248,17.382714 59.687059 0 0 -8.31445,4.966797 15.122596,12.714911 0 0 0 -1.11133,-0.03711 15.122596,12.714911 0 0 0 -15.123046,12.714843 15.122596,12.714911 0 0 0 10.537106,12.097657 13.43782,15.317864 36.746226 0 0 7.55274,6.99414 13.43782,15.317864 36.746226 0 0 18.54492,-10.107421 13.43782,15.317864 36.746226 0 0 1.08594,-5.425782 13.037248,17.382714 59.687059 0 0 5.33789,-13.404297 13.037248,17.382714 59.687059 0 0 -12.125,-8.86328 z" /><path
       id="path541"
       style="fill:#73d216;stroke:#4e9a06;stroke-width:3;stroke-linejoin:round"
       d="m 11.501929,65.478986 a 15.704288,11.813915 59.124323 0 0 -8.99219,6.728515 15.122596,12.714911 0 0 0 -10.94531,12.216801 15.122596,12.714911 0 0 0 12.61328,12.51953 12.724732,15.038772 24.29811 0 0 6.85938,6.572258 12.724732,15.038772 24.29811 0 0 17.24023,-10.107418 12.724732,15.038772 24.29811 0 0 -1.03906,-13.37305 15.704288,11.813915 59.124323 0 0 -10.68945,-13.455074 15.704288,11.813915 59.124323 0 0 -5.04688,-1.101562 z" /><path
       id="path543"
       style="fill:#73d216;stroke:#4e9a06;stroke-width:3;stroke-linejoin:round"
       d="m 11.501929,1.478986 a 15.704288,11.813915 59.124323 0 0 -8.99219,6.728515 15.122596,12.714911 0 0 0 -10.94531,12.216801 15.122596,12.714911 0 0 0 12.61328,12.51953 12.724732,15.038772 24.29811 0 0 6.85938,6.57226 12.724732,15.038772 24.29811 0 0 17.24023,-10.10742 12.724732,15.038772 24.29811 0 0 -1.03906,-13.37305 15.704288,11.813915 59.124323 0 0 -10.68945,-13.455074 15.704288,11.813915 59.124323 0 0 -5.04688,-1.101562 z" /></g><g
     id="g621"
     transform="translate(64)"><rect
       style="fill:#b3ac7a;fill-opacity:1;stroke-width:3;stroke-linejoin:round"
       id="rect599"
       width="64"
       height="64"
       x="0"
       y="0" /><ellipse
       cx="18"
       cy="20"
       rx="3.8"
       ry="2.4000001"
       id="ellipse601"
       style="opacity:0.45;fill:#7b726a" /><ellipse
       cx="40"
       cy="14"
       rx="3.2"
       ry="2"
       id="ellipse603"
       style="opacity:0.45;fill:#7b726a" /><ellipse
       cx="30"
       cy="44"
       rx="4.1999998"
       ry="2.5999999"
       id="ellipse605"
       style="opacity:0.45;fill:#7b726a" /><ellipse
       cx="60"
       cy="40"
       rx="3.5999999"
       ry="2.2"
       id="ellipse607"
       style="opacity:0.45;fill:#7b726a" /><ellipse
       cx="16"
       cy="56"
       rx="3"
       ry="1.8"
       id="ellipse609"
       style="opacity:0.45;fill:#7b726a" /><ellipse
       cx="19.4"
       cy="19.4"
       rx="1.8"
       ry="0.89999998"
       id="ellipse611"
       style="opacity:0.28;fill:#bdb5ad" /><ellipse
       cx="40.900002"
       cy="13.6"
       rx="1.5"
       ry="0.69999999"
       id="ellipse613"
       style="opacity:0.28;fill:#bdb5ad" /><ellipse
       cx="31.200001"
       cy="43.599998"
       rx="2"
       ry="0.89999998"
       id="ellipse615"
       style="opacity:0.28;fill:#bdb5ad" /><ellipse
       cx="60.700001"
       cy="39.5"
       rx="1.6"
       ry="0.69999999"
       id="ellipse617"
       style="opacity:0.28;fill:#bdb5ad" /><ellipse
       cx="16.9"
       cy="55.5"
       rx="1.3"
       ry="0.60000002"
       id="ellipse619"
       style="opacity:0.28;fill:#bdb5ad" /></g><g
     id="g655"
     transform="translate(61.136649,-128)"><rect
       style="opacity:1;fill:#8ae234;stroke:none;stroke-width:3;stroke-linejoin:round"
       id="rect623"
       width="64"
       height="64"
       x="0"
       y="0" /><path
       id="path625"
       style="fill:#73d216;stroke:#4e9a06;stroke-width:3;stroke-linejoin:round"
       d="m 74.003849,23.921378 a 14.720184,18.010593 70.845693 0 0 -7.503906,1.197265 14.720184,18.010593 70.845693 0 0 -4.75,2.339844 18.010593,14.720184 0 0 0 -11.142578,-3.154297 18.010593,14.720184 0 0 0 -18.009766,14.720703 18.010593,14.720184 0 0 0 6.791016,11.47461 14.720184,18.010593 52.849836 0 0 2.425781,6.380859 14.720184,18.010593 52.849836 0 0 23.246094,0.855469 14.720184,18.010593 52.849836 0 0 3.742187,-3.613282 14.720184,18.010593 70.845693 0 0 7.357422,-1.193359 14.720184,18.010593 70.845693 0 0 12.183594,-19.814453 14.720184,18.010593 70.845693 0 0 -14.339844,-9.193359 z" /><path
       id="path627"
       style="fill:#8ae234;stroke:#4e9a06;stroke-width:3;stroke-linejoin:round"
       d="m 55.168607,44.459148 a 12.714911,15.122596 0 0 0 -7.914063,3.326172 15.317864,13.43782 36.746226 0 0 -17.888672,7.556641 15.317864,13.43782 36.746226 0 0 4.689453,15.138668 17.382714,13.037248 59.687059 0 0 1.00586,7.32227 17.382714,13.037248 59.687059 0 0 18.615234,13.94336 17.382714,13.037248 59.687059 0 0 7.796875,-18.50977 17.382714,13.037248 59.687059 0 0 -0.175781,-0.44922 12.714911,15.122596 0 0 0 6.585938,-13.20507 12.714911,15.122596 0 0 0 -12.714844,-15.123051 z" /><path
       id="path629"
       style="fill:#73d216;stroke:#4e9a06;stroke-width:3;stroke-linejoin:round"
       d="m 86.906229,41.400861 a 13.037248,17.382714 59.687059 0 0 -6.38477,1.064453 13.037248,17.382714 59.687059 0 0 -8.31445,4.966797 15.122596,12.714911 0 0 0 -1.11133,-0.03711 15.122596,12.714911 0 0 0 -15.123046,12.714843 15.122596,12.714911 0 0 0 10.537106,12.097657 13.43782,15.317864 36.746226 0 0 7.55274,6.99414 13.43782,15.317864 36.746226 0 0 18.54492,-10.107421 13.43782,15.317864 36.746226 0 0 1.08594,-5.425782 13.037248,17.382714 59.687059 0 0 5.33789,-13.404297 13.037248,17.382714 59.687059 0 0 -12.125,-8.86328 z" /><path
       id="path631"
       style="fill:#73d216;stroke:#4e9a06;stroke-width:3;stroke-linejoin:round"
       d="m 74.003849,-40.078622 a 14.720184,18.010593 70.845693 0 0 -7.503906,1.197265 14.720184,18.010593 70.845693 0 0 -4.75,2.339844 18.010593,14.720184 0 0 0 -11.142578,-3.154297 18.010593,14.720184 0 0 0 -18.009766,14.720703 18.010593,14.720184 0 0 0 6.791016,11.47461 14.720184,18.010593 52.849836 0 0 2.425781,6.380859 14.720184,18.010593 52.849836 0 0 23.246094,0.855469 14.720184,18.010593 52.849836 0 0 3.742187,-3.613282 14.720184,18.010593 70.845693 0 0 7.357422,-1.193359 14.720184,18.010593 70.845693 0 0 12.183594,-19.814453 14.720184,18.010593 70.845693 0 0 -14.339844,-9.193359 z" /><path
       id="path633"
       style="fill:#8ae234;stroke:#4e9a06;stroke-width:3;stroke-linejoin:round"
       d="m 55.168607,-19.540852 a 12.714911,15.122596 0 0 0 -7.914063,3.326172 15.317864,13.43782 36.746226 0 0 -17.888672,7.556641 15.317864,13.43782 36.746226 0 0 4.689453,15.138668 17.382714,13.037248 59.687059 0 0 1.00586,7.32227 17.382714,13.037248 59.687059 0 0 18.615234,13.94336 17.382714,13.037248 59.687059 0 0 7.796875,-18.50977 17.382714,13.037248 59.687059 0 0 -0.175781,-0.44922 12.714911,15.122596 0 0 0 6.585938,-13.20507 12.714911,15.122596 0 0 0 -12.714844,-15.123051 z" /><path
       id="path635"
       style="fill:#73d216;stroke:#4e9a06;stroke-width:3;stroke-linejoin:round"
       d="m 86.906229,-22.599139 a 13.037248,17.382714 59.687059 0 0 -6.38477,1.064453 13.037248,17.382714 59.687059 0 0 -8.31445,4.966797 15.122596,12.714911 0 0 0 -1.11133,-0.03711 15.122596,12.714911 0 0 0 -15.123046,12.714843 15.122596,12.714911 0 0 0 10.537106,12.097657 13.43782,15.317864 36.746226 0 0 7.55274,6.99414 13.43782,15.317864 36.746226 0 0 18.54492,-10.107421 13.43782,15.317864 36.746226 0 0 1.08594,-5.425782 13.037248,17.382714 59.687059 0 0 5.33789,-13.404297 13.037248,17.382714 59.687059 0 0 -12.125,-8.86328 z" /><path
       id="path637"
       style="fill:#73d216;stroke:#4e9a06;stroke-width:3;stroke-linejoin:round"
       d="m 75.501929,1.478986 a 15.704288,11.813915 59.124323 0 0 -8.99219,6.728515 15.122596,12.714911 0 0 0 -10.94531,12.216801 15.122596,12.714911 0 0 0 12.61328,12.51953 12.724732,15.038772 24.29811 0 0 6.85938,6.57226 12.724732,15.038772 24.29811 0 0 17.24023,-10.10742 12.724732,15.038772 24.29811 0 0 -1.03906,-13.37305 15.704288,11.813915 59.124323 0 0 -10.68945,-13.455074 15.704288,11.813915 59.124323 0 0 -5.04688,-1.101562 z" /><path
       id="path639"
       style="fill:#73d216;stroke:#4e9a06;stroke-width:3;stroke-linejoin:round"
       d="m 10.003849,-40.078622 a 14.720184,18.010593 70.845693 0 0 -7.503906,1.197265 14.720184,18.010593 70.845693 0 0 -4.75,2.339844 18.010593,14.720184 0 0 0 -11.142578,-3.154297 18.010593,14.720184 0 0 0 -18.009766,14.720703 18.010593,14.720184 0 0 0 6.791016,11.47461 14.720184,18.010593 52.849836 0 0 2.425781,6.380859 14.720184,18.010593 52.849836 0 0 23.246094,0.855469 14.720184,18.010593 52.849836 0 0 3.742187,-3.613282 14.720184,18.010593 70.845693 0 0 7.357422,-1.193359 14.720184,18.010593 70.845693 0 0 12.183594,-19.814453 14.720184,18.010593 70.845693 0 0 -14.339844,-9.193359 z" /><path
       id="path641"
       style="fill:#8ae234;stroke:#4e9a06;stroke-width:3;stroke-linejoin:round"
       d="m -8.831393,-19.540852 a 12.714911,15.122596 0 0 0 -7.914063,3.326172 15.317864,13.43782 36.746226 0 0 -17.888672,7.556641 15.317864,13.43782 36.746226 0 0 4.689453,15.138668 17.382714,13.037248 59.687059 0 0 1.00586,7.32227 17.382714,13.037248 59.687059 0 0 18.615234,13.94336 17.382714,13.037248 59.687059 0 0 7.796875,-18.50977 17.382714,13.037248 59.687059 0 0 -0.175781,-0.44922 12.714911,15.122596 0 0 0 6.585938,-13.20507 12.714911,15.122596 0 0 0 -12.714844,-15.123051 z" /><path
       id="path643"
       style="fill:#73d216;stroke:#4e9a06;stroke-width:3;stroke-linejoin:round"
       d="m 22.906229,-22.599139 a 13.037248,17.382714 59.687059 0 0 -6.38477,1.064453 13.037248,17.382714 59.687059 0 0 -8.31445,4.966797 15.122596,12.714911 0 0 0 -1.11133,-0.03711 15.122596,12.714911 0 0 0 -15.123046,12.714843 15.122596,12.714911 0 0 0 10.537106,12.097657 13.43782,15.317864 36.746226 0 0 7.55274,6.99414 13.43782,15.317864 36.746226 0 0 18.54492,-10.107421 13.43782,15.317864 36.746226 0 0 1.08594,-5.425782 13.037248,17.382714 59.687059 0 0 5.33789,-13.404297 13.037248,17.382714 59.687059 0 0 -12.125,-8.86328 z" /><path
       id="path645"
       style="fill:#73d216;stroke:#4e9a06;stroke-width:3;stroke-linejoin:round"
       d="m 10.003849,23.921378 a 14.720184,18.010593 70.845693 0 0 -7.503906,1.197265 14.720184,18.010593 70.845693 0 0 -4.75,2.339844 18.010593,14.720184 0 0 0 -11.142578,-3.154297 18.010593,14.720184 0 0 0 -18.009766,14.720703 18.010593,14.720184 0 0 0 6.791016,11.47461 14.720184,18.010593 52.849836 0 0 2.425781,6.380859 A 14.720184,18.010593 52.849836 0 0 1.06049,57.735831 14.720184,18.010593 52.849836 0 0 4.802677,54.122549 14.720184,18.010593 70.845693 0 0 12.160099,52.92919 14.720184,18.010593 70.845693 0 0 24.343693,33.114737 14.720184,18.010593 70.845693 0 0 10.003849,23.921378 Z" /><path
       id="path647"
       style="fill:#8ae234;stroke:#4e9a06;stroke-width:3;stroke-linejoin:round"
       d="m -8.831393,44.459148 a 12.714911,15.122596 0 0 0 -7.914063,3.326172 15.317864,13.43782 36.746226 0 0 -17.888672,7.556641 15.317864,13.43782 36.746226 0 0 4.689453,15.138668 17.382714,13.037248 59.687059 0 0 1.00586,7.32227 17.382714,13.037248 59.687059 0 0 18.615234,13.94336 17.382714,13.037248 59.687059 0 0 7.796875,-18.50977 17.382714,13.037248 59.687059 0 0 -0.175781,-0.44922 12.714911,15.122596 0 0 0 6.585938,-13.20507 12.714911,15.122596 0 0 0 -12.714844,-15.123051 z" /><path
       id="path649"
       style="fill:#73d216;stroke:#4e9a06;stroke-width:3;stroke-linejoin:round"
       d="m 22.906229,41.400861 a 13.037248,17.382714 59.687059 0 0 -6.38477,1.064453 13.037248,17.382714 59.687059 0 0 -8.31445,4.966797 15.122596,12.714911 0 0 0 -1.11133,-0.03711 15.122596,12.714911 0 0 0 -15.123046,12.714843 15.122596,12.714911 0 0 0 10.537106,12.097657 13.43782,15.317864 36.746226 0 0 7.55274,6.99414 13.43782,15.317864 36.746226 0 0 18.54492,-10.107421 13.43782,15.317864 36.746226 0 0 1.08594,-5.425782 13.037248,17.382714 59.687059 0 0 5.33789,-13.404297 13.037248,17.382714 59.687059 0 0 -12.125,-8.86328 z" /><path
       id="path651"
       style="fill:#73d216;stroke:#4e9a06;stroke-width:3;stroke-linejoin:round"
       d="m 11.501929,65.478986 a 15.704288,11.813915 59.124323 0 0 -8.99219,6.728515 15.122596,12.714911 0 0 0 -10.94531,12.216801 15.122596,12.714911 0 0 0 12.61328,12.51953 12.724732,15.038772 24.29811 0 0 6.85938,6.572258 12.724732,15.038772 24.29811 0 0 17.24023,-10.107418 12.724732,15.038772 24.29811 0 0 -1.03906,-13.37305 15.704288,11.813915 59.124323 0 0 -10.68945,-13.455074 15.704288,11.813915 59.124323 0 0 -5.04688,-1.101562 z" /><path
       id="path653"
       style="fill:#73d216;stroke:#4e9a06;stroke-width:3;stroke-linejoin:round"
       d="m 11.501929,1.478986 a 15.704288,11.813915 59.124323 0 0 -8.99219,6.728515 15.122596,12.714911 0 0 0 -10.94531,12.216801 15.122596,12.714911 0 0 0 12.61328,12.51953 12.724732,15.038772 24.29811 0 0 6.85938,6.57226 12.724732,15.038772 24.29811 0 0 17.24023,-10.10742 12.724732,15.038772 24.29811 0 0 -1.03906,-13.37305 15.704288,11.813915 59.124323 0 0 -10.68945,-13.455074 15.704288,11.813915 59.124323 0 0 -5.04688,-1.101562 z" /></g></svg>
