<?xml version="1.0" encoding="UTF-8" standalone="no"?>
<svg
   width="64"
   height="64"
   viewBox="0 0 64 64"
   version="1.1"
   id="svg8"
   inkscape:version="1.2.2 (b0a8486541, 2022-12-01)"
   sodipodi:docname="rock.svg"
   xmlns:inkscape="http://www.inkscape.org/namespaces/inkscape"
   xmlns:sodipodi="http://sodipodi.sourceforge.net/DTD/sodipodi-0.dtd"
   xmlns="http://www.w3.org/2000/svg"
   xmlns:svg="http://www.w3.org/2000/svg"
   xmlns:rdf="http://www.w3.org/1999/02/22-rdf-syntax-ns#"
   xmlns:cc="http://creativecommons.org/ns#"
   xmlns:dc="http://purl.org/dc/elements/1.1/">
  <defs
     id="defs2">
    <!-- Seamless stone gradient with matching top/bottom colors -->
    <linearGradient
       id="sandGradient"
       x1="0%"
       y1="0%"
       x2="0%"
       y2="100%">
      <stop
         offset="0%"
         stop-color="#e2c586"
         id="stop4066" />
      <stop
         offset="50%"
         stop-color="#f1d7a2"
         id="stop4068" />
      <stop
         offset="100%"
         stop-color="#e2c586"
         id="stop4070" />
    </linearGradient>
    <!-- Speckle pattern using objectBoundingBox so edges align across tiles -->
    <pattern
       id="sandSpeckle"
       patternUnits="objectBoundingBox"
       width="0.125"
       height="0.125"
       viewBox="0 0 4 4"
       preserveAspectRatio="none">
      <circle
         cx="1"
         cy="1"
         r="0.25"
         fill="#a77c3a"
         opacity="0.18"
         id="circle4073" />
      <circle
         cx="3"
         cy="2"
         r="0.2"
         fill="#7a5a28"
         opacity="0.15"
         id="circle4075" />
      <circle
         cx="2.2"
         cy="3.2"
         r="0.18"
         fill="#a77c3a"
         opacity="0.12"
         id="circle4077" />
    </pattern>
  </defs>
  <sodipodi:namedview
     id="base"
     pagecolor="#ffffff"
     bordercolor="#666666"
     borderopacity="1.0"
     inkscape:pageopacity="0.0"
     inkscape:pageshadow="2"
     inkscape:zoom="1.8117294"
     inkscape:cx="-56.023819"
     inkscape:cy="115.63537"
     inkscape:document-units="mm"
     inkscape:current-layer="layer1"
     inkscape:document-rotation="0"
     showgrid="false"
     units="px"
     inkscape:snap-page="true"
     inkscape:window-width="2560"
     inkscape:window-height="1403"
     inkscape:window-x="0"
     inkscape:window-y="0"
     inkscape:window-maximized="1"
     inkscape:showpageshadow="0"
     inkscape:pagecheckerboard="0"
     inkscape:deskcolor="#d1d1d1" />
  <metadata
     id="metadata5">
    <rdf:RDF>
      <cc:Work
         rdf:about="">
        <dc:format>image/svg+xml</dc:format>
        <dc:type
           rdf:resource="http://purl.org/dc/dcmitype/StillImage" />
        <dc:title />
      </cc:Work>
    </rdf:RDF>
  </metadata>
  <g
     inkscape:label="Lager 1"
     inkscape:groupmode="layer"
     id="layer1">
    <!-- Static grain overlay to add texture -->
    <g
       id="g8315">
      <path
         id="rect833"
         style="fill:#e2c586;stroke-width:4.99999"
         d="M 0,0 H 32 64 V 32 64 H 32 0 V 32 Z"
         sodipodi:nodetypes="ccccccccc" />
      <path
         id="path8302"
         style="fill:#8f5902;stroke-width:4.99999"
         d="M 0,0 V 6.8007812 L 9.3085938,6.1894531 9.1972656,10.34375 17.216797,11.765625 25.517578,7.3222656 20.009766,0.82226562 19.474609,0 h -7.77539 L 11.140625,0.97460938 10.886719,0 Z m 23.199219,0 0.310547,1.1679688 1.658203,2.390625 L 27.541016,2.3496094 30.148438,3.015625 30.302734,0.0234375 30.337891,0 Z m 7.8125,0 0.480469,2.703125 L 36.498047,0.42382812 37.71875,0 H 32 Z m 7.808593,0 -2.921874,20.982422 -5.722657,2.550781 v 9.078125 l 1.46875,1.056641 h 2.828125 4.060547 l -6.027344,3.285156 -3.001953,-4.427734 -2,-11.210938 1.792969,-8.605469 -11.765625,4.271485 -6.388672,7.425781 6.621094,6.279297 9.568359,2.123047 -4.820312,10.537109 -7.757813,13.916016 11.830078,1.941406 -1.199218,2.505859 -2.556641,0.896485 L 23.199219,64 h 7.138672 L 30.939453,63.597656 31.011719,64 H 32 37.71875 L 38.876953,63.597656 38.820312,64 h 0.998047 l -0.251953,-0.640625 0.833985,-0.289063 -3.609375,-4.623046 -3.806641,-0.785157 0.880859,-0.328125 v -1.541015 l 6.857422,5.30664 L 44.324219,64 H 45.34375 L 48.917969,56.507812 47.990234,49.902344 41.736328,49.4375 33.865234,55.261719 V 38.958984 L 33.044922,37.75 l 7.054687,3.748047 7.523438,5.021484 1.105469,-8.392578 L 48.25,33.667969 h 4.851562 L 45.648438,14.777344 46.582031,14.484375 44.505859,10.691406 43.824219,10.154297 39.818359,0 Z M 44.324219,0 45.060547,0.59375 45.34375,0 Z M 48.445312,0 45.529297,3.8945312 52.875,1.2148438 52.492188,0 Z M 54.492188,0 53.810547,1.2851562 62.003906,6.9335938 64,6.8027344 V 0 Z M 5.7753906,7.203125 0,8.0273438 V 17.748047 L 2.9433594,19.115234 5.703125,13.345703 Z M 64,8.0332031 63.474609,8.1074219 56.90625,9.2636719 60.105469,15.917969 64,17.728516 Z m -5.900391,6.1679689 -5.25,0.84375 -4.978515,3.183594 4.591797,3.998046 4.589843,1.994141 0.691407,-4.419922 z m 5.839844,9.478516 -4.820312,4.279296 L 64,32.074219 V 32 23.730469 Z M 0,23.765625 V 32 32.109375 l 1.9726562,1.664063 4.8203126,-4.275391 z m 13.996094,6.523437 -6.9121096,4.503907 -5.1054688,6.630859 -1.09960935,-2.125 L 0,38.791016 v 3.705078 l 2.3222656,-0.404297 -0.1816406,-0.353516 7.7695312,1.958985 7.7304688,1.310546 -0.550781,-6.988281 z m 43.414062,0.01758 -2.882812,3.167968 2.011718,3.027344 3.470704,-1 0.234375,-3.494141 z m -5.121094,6.802734 -3.097656,1.044922 1.408203,4.59375 0.212891,0.34375 -0.582031,-0.365235 1.410156,7.751954 2.091797,5.128906 4.121094,-3.013672 2.503906,-3.630859 -4.806641,-2.910157 -2.421875,-1.513672 2.341797,-2.666015 0.824219,-3.064453 z M 62.550781,37.927734 61.5,40.074219 60.53125,42.578125 63.082031,42.664062 64,42.503906 V 38.765625 Z M 1.3847656,46.400391 0,48.462891 V 64 h 10.886719 l -2.0000002,-7.662109 -2.0078126,-2.658203 0.875,0.210937 L 9.3730469,52.916016 8.2460938,51.583984 6.9726562,49.726562 6.3339844,51.189453 5.75,52.185547 Z M 64,48.523438 57.806641,57.748047 54.492188,64 H 64 Z M 48.882812,52.5625 50.980469,60.615234 48.445312,64 h 4.046876 z M 15.337891,57.646484 11.699219,64 h 7.77539 z m 15.515625,0.808594 -0.310547,2.794922 -2.171875,-1.166016 -0.378906,-0.648437 0.15625,0.02539 z" />
      <path
         id="path8296"
         style="fill:#c17d11;stroke-width:4.99999"
         d="M 0,0 V 10.464844 L 0.68945312,10.009766 8.265625,3.8046875 2.0117188,0 Z M 10.222656,0 10.353516,2.8554688 16.111328,2.5527344 20.208984,0 Z m 15.015625,0 0.0625,0.30078125 -1.691406,1.78906255 3.929687,1.6054687 2.986329,0.5605469 L 31.917969,2.8867188 33.318359,0.03125 33.275391,0 H 32 Z m 8.390625,0 -2.652344,4.5136719 4.09961,0.052734 3.810547,5.4257813 5.835937,7.0117188 3.703125,-5.914062 -0.404297,-8.6875005 -5.220703,1.3574218 -1.541015,0.03125 L 40.417969,0.11523438 40.238281,0 Z m 19.091797,0 -1.890625,4.0625 1.238281,8.148438 -2.101562,4.855468 2.845703,0.04297 0.103516,0.683594 1.007812,-0.666016 2.771484,0.04102 4.521485,-0.08789 L 60.761719,12.607422 64,10.464844 V 0 Z m -32.037109,5.2207031 -2.458985,12.9628909 0.09961,3.390625 -6.69336,-0.890625 -7.2109371,-2.205078 2.6777343,9.105468 1.7519532,3.445313 -6.9707032,2.285156 0.1015626,1.378906 L 0,35.169922 v 2.113281 l 0.26171875,0.0039 1.86718745,-0.572265 0.2792969,3.789062 8.8886719,-2.535156 -1.125,-4.791016 6.095703,-4.697265 2.125,-4.542969 0.199219,6.810547 13.4375,-6.216797 1.837891,-0.986328 V 13.324219 l -3.09961,-0.851563 z M 7.2128906,8.6972656 6.2226562,10.972656 6.2988281,12.873047 8.8144531,13.0625 10.318359,11.955078 9.0625,10.234375 Z m 43.9160154,9.6621094 -8.009765,2.046875 -6.833985,0.283203 3.585938,7.673828 4.947265,4.998047 -0.755859,0.05078 7.482422,7.095703 -1.720703,-7.480468 -4.095703,0.273437 3.851562,-7.595703 0.191406,-0.908203 0.882813,0.320313 3.488281,1.976562 0.642578,-3.011719 -0.632812,-3.914062 -2.966797,0.210937 -0.621094,0.66211 z M 44.0625,33.412109 41.371094,30.859375 42.359375,33.525391 Z M 61.925781,19.910156 60.96875,22.125 60.65625,25.179688 62.599609,24.53125 64,23.861328 V 22.089844 L 63.517578,21.796875 Z M 0,22.089844 v 1.771484 l 1.6269531,-0.779297 z m 30.132812,7.960937 v 2.595703 l -5.966796,-0.429687 -9.103516,2.121094 4.335938,8.11914 5.361328,6.240235 4.625,-5.125 0.748046,-1.779297 v 7.953125 l 5.970704,11.609375 -0.841797,-0.53711 -1.59375,3.115235 L 33.628906,64 h 6.609375 L 37.240234,62.083984 33.837891,30.216797 Z M 64,35.169922 55.660156,37.175781 64,37.283203 Z m -5.804688,5.419922 -7.064453,0.09961 -4.166015,2.21875 1.824218,3.511719 4.039063,4.427734 3.017578,-3.945312 z m -17.210937,6.441406 -1.347656,3.734375 -0.05078,3.914063 2.638671,0.171874 3.314453,-2.15039 -1.425781,-3.154297 z M 6.328125,47.132812 0,48.667969 v 8.867187 l 3.171875,0.837891 2.4101562,-3.919922 z M 64,48.667969 l -0.398438,0.0957 -6.433593,2.185547 4.726562,6.029297 L 64,57.535156 Z M 10.664062,49.183594 9.9785156,58.724609 10.222656,64 h 9.986328 L 24.669922,61.220703 25.238281,64 H 32 33.275391 l -1.314453,-0.976562 -0.44336,-4.117188 -3.908203,1.873047 -1.894531,-0.208985 0.43164,-0.269531 -5.982422,-4.835937 z M 55.824219,57.335938 52.720703,64 H 64 V 62.777344 L 63.359375,62.386719 Z M 0,62.777344 V 64 h 2.0117188 z" />
    </g>
  </g>
</svg>
