<?xml version="1.0" encoding="UTF-8" standalone="no"?>
<svg
   width="64"
   height="64"
   viewBox="0 0 64 64"
   version="1.1"
   id="svg11196"
   sodipodi:docname="water.svg"
   inkscape:version="1.2.2 (b0a8486541, 2022-12-01)"
   xmlns:inkscape="http://www.inkscape.org/namespaces/inkscape"
   xmlns:sodipodi="http://sodipodi.sourceforge.net/DTD/sodipodi-0.dtd"
   xmlns="http://www.w3.org/2000/svg"
   xmlns:svg="http://www.w3.org/2000/svg">
  <sodipodi:namedview
     id="namedview11198"
     pagecolor="#505050"
     bordercolor="#eeeeee"
     borderopacity="1"
     inkscape:showpageshadow="0"
     inkscape:pageopacity="0"
     inkscape:pagecheckerboard="0"
     inkscape:deskcolor="#d1d1d1"
     showgrid="false"
     inkscape:zoom="20.85965"
     inkscape:cx="31.184608"
     inkscape:cy="12.775862"
     inkscape:window-width="2560"
     inkscape:window-height="1403"
     inkscape:window-x="0"
     inkscape:window-y="0"
     inkscape:window-maximized="1"
     inkscape:current-layer="svg11196" />
  <defs
     id="defs11178">
    <!-- Symmetric diagonal gradient (balanced ends) to reduce visible seams when tiled -->
    <linearGradient
       id="waterGradient"
       x1="0%"
       y1="0%"
       x2="100%"
       y2="100%">
      <stop
         offset="0%"
         stop-color="#2568b0"
         id="stop11156" />
      <stop
         offset="50%"
         stop-color="#3d8fd6"
         id="stop11158" />
      <stop
         offset="100%"
         stop-color="#2568b0"
         id="stop11160" />
    </linearGradient>
    <!-- Gentle surface shimmer using a repeating pattern mask -->
    <pattern
       id="ripples"
       x="0"
       y="0"
       width="8"
       height="8"
       patternUnits="userSpaceOnUse">
      <!-- Drift the pattern diagonally for a calm animated surface -->
      <animate
         attributeName="x"
         from="0"
         to="8"
         dur="6s"
         repeatCount="indefinite" />
      <animate
         attributeName="y"
         from="0"
         to="8"
         dur="12s"
         repeatCount="indefinite" />
      <path
         d="M0 4 Q2 2 4 4 T8 4"
         fill="none"
         stroke="#ffffff"
         stroke-width="0.5"
         stroke-linecap="round"
         opacity="0.35"
         id="path11163" />
      <path
         d="M0 8 Q2 6 4 8 T8 8"
         fill="none"
         stroke="#ffffff"
         stroke-width="0.5"
         stroke-linecap="round"
         opacity="0.15"
         id="path11165" />
    </pattern>
    <mask
       id="rippleMask">
      <!-- Edge fade replaced with subtle uniform alpha to ensure seamless horizontal/vertical
			tiling -->
      <rect
         x="0"
         y="0"
         width="67.733332"
         height="67.733335"
         fill="#ffffff"
         opacity="0.92"
         id="rect11168" />
    </mask>
    <!-- Subtle caustic noise (kept minimal for performance) -->
    <filter
       id="caustics"
       x="0"
       y="0"
       width="1"
       height="1">
      <feTurbulence
         type="fractalNoise"
         baseFrequency="0.9"
         numOctaves="2"
         seed="7"
         result="noise"
         id="feTurbulence11171">
        <!-- Very gentle shimmer; long duration to limit CPU -->
        <animate
           attributeName="baseFrequency"
           values="0.9;0.95;0.9"
           dur="20s"
           repeatCount="indefinite" />
      </feTurbulence>
      <feColorMatrix
         in="noise"
         type="matrix"
         values="0 0 0 0 0.35  0 0 0 0 0.55  0 0 0 0 0.85  0 0 0 0.15 0"
         id="feColorMatrix11173" />
      <feBlend
         in="SourceGraphic"
         in2="noise"
         mode="soft-light"
         id="feBlend11175" />
    </filter>
  </defs>
  <rect
     style="fill:#729fcf;fill-opacity:1;stroke:none;stroke-width:4.99998"
     id="rect12124"
     width="64"
     height="64"
     x="0"
     y="0" />
  <!-- Base water fill -->
  <!-- Ripple overlay -->
  <!-- A few layered curved highlights & lowlights for depth -->
  <path
     id="path9683"
     style="color:#000000;opacity:0.32;fill:#ffffff;stroke-width:0.5;stroke-linejoin:round;-inkscape-stroke:none"
     d="M 6.4316406,0 C 4.3165007,0.8144992 2.1439264,1.6545727 0,2.4511719 v 5.5429687 c 3.5980947,-1.2845727 7.3027039,-2.7808412 10.546875,-4 1.563493,-0.5875645 2.840927,-1.0000497 4.09375,-1.3964844 -0.238439,0.8078942 -0.417069,1.5935477 -0.462891,2.3574219 -0.126526,2.1092834 1.124671,2.4074482 2.931641,3.2304689 1.80697,0.823019 3.625102,0.712965 5.582031,0.421875 1.95693,-0.291092 4.08047,-0.8701801 6.316406,-1.5898439 C 29.987311,6.7023149 30.99085,6.3544223 32,5.9941406 c 3.598094,-1.2845727 7.302704,-2.7808412 10.546875,-4 1.563493,-0.5875645 3.906643,-0.5020898 5.159466,-0.8985245 -0.238439,0.8078942 -0.373918,3.0654384 -0.419739,3.8293126 -0.126527,2.1092834 0.0158,4.4375976 1.822773,5.2606183 1.80697,0.823019 3.627055,0.712965 5.583984,0.421875 1.95693,-0.291092 4.078518,-0.8701801 6.314453,-1.5898439 C 61.987312,8.7023149 62.990849,8.3544223 64,7.9941406 V 2.4511719 c -1.573027,0.5844794 -3.127208,1.1457248 -4.585938,1.6152343 -2.08525,0.6711644 -3.998185,1.1751246 -5.486328,1.3964844 -1.455604,0.2165198 -2.450596,0.061351 -2.626953,-0.00586 0.02683,-0.0356 0.05826,0.011302 0.07031,-0.1894531 0.04197,-0.6997043 0.550144,-2.4244337 1.908203,-4.87890622 C 53.347766,0.26408347 53.405903,0.13409064 53.453125,0 H 38.431641 C 36.316501,0.8144992 34.143926,1.6545727 32,2.4511719 c -1.573027,0.5844794 -3.127208,1.1457248 -4.585938,1.6152343 -2.085251,0.6711644 -3.998185,1.1751246 -5.486328,1.3964844 -1.455604,0.2165198 -2.450596,0.061351 -2.626953,-0.00586 0.02683,-0.0356 0.05631,0.011302 0.06836,-0.1894531 0.04197,-0.6997043 0.550144,-2.4244337 1.908203,-4.87890622 C 21.345813,0.26408347 21.40395,0.13409064 21.451172,0 Z M 5.2402344,10.453125 c -0.4037802,-0.0018 -0.7973448,0.03232 -1.1914063,0.0918 -0.7881229,0.118954 -1.579786,0.340236 -2.4570312,0.583984 C 1.081338,11.270739 0.54755597,11.435481 0,11.611328 v 5.519531 c 0.56127695,-0.18624 1.1082905,-0.364756 1.640625,-0.533203 -0.2384385,0.807892 -0.4170686,1.593544 -0.4628906,2.357422 -0.1265273,2.10928 1.1246702,4.407449 2.9316406,5.230469 1.8069703,0.823019 3.625102,0.712965 5.5820312,0.421875 1.9569288,-0.291092 4.0804708,-0.870181 6.3164058,-1.589844 4.471873,-1.439326 9.385005,-3.46234 13.539063,-5.023437 C 30.446027,17.656239 31.24034,17.382927 32,17.130859 c 0.561276,-0.18624 1.108291,-0.364756 1.640625,-0.533203 -0.238439,0.807892 -0.415116,1.593544 -0.460937,2.357422 -0.126528,2.10928 1.122717,2.407449 2.929687,3.230469 1.80697,0.823019 3.627055,0.712965 5.583984,0.421875 1.956929,-0.291092 3.996597,-1.209237 6.314453,-1.589844 2.175585,-0.357245 9.385006,-1.46234 13.539063,-3.023437 C 62.446027,17.656239 63.24034,17.382927 64,17.130859 v -5.519531 c -1.334442,0.428555 -2.767385,0.944761 -4.28125,1.513672 -4.270092,1.604703 -9.134186,3.599079 -13.304688,4.941406 -2.08525,0.671163 -3.998184,1.175126 -5.486328,1.396485 -1.455603,0.216519 -2.450596,0.05946 -2.626953,-0.0078 0.02683,-0.03561 0.05826,0.01129 0.07031,-0.189453 0.04197,-0.699703 0.550144,-2.422485 1.908203,-4.876953 3.322386,-4.4662217 0.688571,-5.0889434 -4.230469,-3.84375 -2.726023,0.790037 -6.027131,1.243719 -8.332031,2.580078 -3.577048,2.136962 -9.132233,5.599079 -13.302735,6.941406 -2.08525,0.671163 -3.998185,1.175126 -5.4863276,1.396485 -1.4556044,0.216519 -2.4505966,0.05946 -2.6269532,-0.0078 0.026829,-0.03561 0.056317,0.01129 0.068359,-0.189453 0.041972,-0.699703 0.5501441,-4.422485 1.9082032,-6.876953 0.8556629,-1.547253 -0.048817,-3.47892 -1.7851563,-3.8125 C 6.0570362,10.492622 5.6440146,10.454919 5.2402344,10.453125 Z M 29.383512,37.744286 c -2.085251,0.671165 -5.967635,-0.502755 -7.455778,-0.281395 -1.455604,0.216519 -2.450596,0.0614 -2.626953,-0.0059 0.02683,-0.0356 0.05631,0.0093 0.06836,-0.191406 0.04197,-0.699704 0.550144,-2.422481 1.908203,-4.876953 0.06847,-0.124588 0.126606,-0.254581 0.173828,-0.388672 0.53267,-1.500316 -0.395638,-3.122772 -1.958984,-3.423828 -0.435152,-0.08355 -0.848174,-0.121252 -1.251954,-0.123047 -0.403779,-0.002 -0.797344,0.03231 -1.191406,0.0918 -0.788122,0.118955 -1.579786,0.340234 -2.457031,0.583984 C 12.837306,29.616401 10.851842,30.322645 8.7167969,31.125 7.9758931,31.40343 7.2014858,31.703545 6.4316406,32 4.3165007,32.814499 2.1439264,33.654573 0,34.451172 v 5.542969 c 3.5980947,-1.284573 7.3027039,-2.780842 10.546875,-4 1.563493,-0.587565 2.840927,-1.00005 4.09375,-1.396485 -0.238439,0.807894 -0.417069,1.593548 -0.462891,2.357422 -0.126526,2.109284 1.124671,4.407449 2.931641,5.230469 1.80697,0.823019 3.625102,0.712965 5.582031,0.421875 1.95693,-0.291092 5.395444,-2.303692 5.395444,-2.303692 M 32,35.332434 c 5.398892,1.898475 9.599893,1.001594 14.640625,-0.734778 -0.238439,0.807894 -0.417069,1.593548 -0.462891,2.357422 -0.126526,2.109284 1.124671,4.407449 2.931641,5.230469 1.80697,0.823019 3.625102,0.712965 5.582031,0.421875 1.95693,-0.291092 4.080471,-0.870181 6.316406,-1.589844 0.9795,-0.315264 1.983037,-0.663156 2.992188,-1.023437 v -5.542969 c -1.573027,0.584479 -3.127208,1.145725 -4.585938,1.615234 -2.08525,0.671165 -3.998185,1.175125 -5.486328,1.396485 -1.455604,0.216519 -2.450596,0.0614 -2.626953,-0.0059 0.02683,-0.0356 0.05631,0.0093 0.06836,-0.191406 0.04197,-0.699704 0.550144,-2.422481 1.908203,-4.876953 C 53.345813,32.264084 53.40395,32.134091 53.451172,32 h 0.002 c 0.532656,-1.500958 -0.396786,-3.123779 -1.960937,-3.423828 -0.435152,-0.08355 -0.848174,-0.121252 -1.251954,-0.123047 -0.403779,-0.002 -0.797344,0.03231 -1.191406,0.0918 -0.788122,0.118955 -1.577833,0.340234 -2.455078,0.583984 -1.754538,0.487492 -3.741954,1.193736 -5.877,1.996091 C 39.975894,31.40343 39.201485,31.703545 38.431641,32 36.316501,32.814499 34.143926,34.535835 32,35.332434 M 5.2402344,42.453125 c -0.4037802,-0.0018 -0.7973448,0.03232 -1.1914063,0.0918 -0.7881229,0.118954 -1.579786,0.340236 -2.4570312,0.583984 C 1.081338,43.270739 0.54755597,43.435481 0,43.611328 v 5.519531 c 0.56127695,-0.18624 1.1082905,-0.364756 1.640625,-0.533203 -0.2384385,0.807892 -0.4170686,1.593544 -0.4628906,2.357422 -0.1265273,2.10928 1.1246702,4.407449 2.9316406,5.230469 1.8069703,0.823019 3.625102,0.712965 5.5820312,0.421875 1.9569288,-0.291092 4.0804708,-0.870181 6.3164058,-1.589844 4.471873,-1.439326 9.385005,-3.46234 13.539063,-5.023437 C 30.446027,49.656239 31.24034,49.382927 32,49.130859 v -0.002 c 0.561276,-0.186241 1.108291,-0.362803 1.640625,-0.53125 -0.238439,0.807892 -0.417069,1.593544 -0.462891,2.357422 -0.126527,2.10928 1.124671,4.405496 2.931641,5.228516 1.80697,0.823019 3.625102,0.712964 5.582031,0.421875 1.956929,-0.291092 4.080471,-0.870181 6.316406,-1.589844 4.471873,-1.439327 9.385006,-3.46234 13.539063,-5.023437 C 62.446027,49.654286 63.24034,49.380974 64,49.128906 v -5.517578 c -1.334442,0.428555 -2.769338,0.944761 -4.283203,1.513672 -4.270092,1.604703 -9.132233,3.599079 -13.302735,4.941406 -2.08525,0.671163 -3.998184,1.175126 -5.486328,1.396485 -1.455603,0.216519 -2.450596,0.05946 -2.626953,-0.0078 0.02683,-0.03561 0.05631,0.01129 0.06836,-0.189453 0.04197,-0.699703 -0.609766,-2.717799 0.748293,-5.172267 0.855663,-1.547253 1.11109,-3.183606 -0.625246,-3.517186 -0.870303,-0.167099 -1.655237,-0.150204 -2.44336,-0.03125 -1.777186,0.903167 -5.851118,2.933289 -8.332031,4.580078 -3.885655,2.334609 -8.993675,5.018908 -13.540934,5.998321 -3.623321,0.78041 -6.9034814,2.099072 -7.8750818,-1.66823 0.026829,-0.03561 0.056317,0.01129 0.068359,-0.189453 0.041972,-0.699703 0.5501441,-2.422485 1.9082032,-4.876953 0.8556629,-1.547253 -0.048817,-3.47892 -1.7851563,-3.8125 C 6.0570358,42.492648 5.6440142,42.454945 5.240234,42.453151 Z m 12.9999996,18 c -0.403779,-0.002 -0.797344,0.0323 -1.191406,0.0918 -0.788122,0.118955 -1.579786,0.340234 -2.457031,0.583984 C 12.837306,61.616401 10.851842,62.322645 8.7167969,63.125 7.9758931,63.40343 7.2014858,63.703545 6.4316406,64 H 21.451172 c 0.53267,-1.500316 -0.395638,-3.122772 -1.958984,-3.423828 -0.435152,-0.08355 -0.848174,-0.121252 -1.251954,-0.123047 z m 32,0 c -0.403779,-0.002 -0.797344,0.0323 -1.191406,0.0918 -0.788122,0.118955 -1.579786,0.340234 -2.457031,0.583984 -1.754491,0.487495 -3.739954,1.193739 -5.875,1.996094 -0.740903,0.27843 -1.515312,0.578545 -2.285156,0.875 h 15.019531 c 0.53267,-1.500316 -0.395638,-3.122772 -1.958984,-3.423828 -0.435152,-0.08355 -0.848174,-0.121252 -1.251954,-0.123047 z"
     sodipodi:nodetypes="cccccsssssscssssccsscccccssscccccssscccsssssscsssssccssscccccsscsccscscccccccsscccscssscccssssccssccccccccsssccsscccssssscccsssssccsssccccccscsccsccssccccccssccccsc" />
</svg>
