<?xml version="1.0" encoding="UTF-8" standalone="no"?>
<svg
   xmlns:dc="http://purl.org/dc/elements/1.1/"
   xmlns:cc="http://creativecommons.org/ns#"
   xmlns:rdf="http://www.w3.org/1999/02/22-rdf-syntax-ns#"
   xmlns:svg="http://www.w3.org/2000/svg"
   xmlns="http://www.w3.org/2000/svg"
   xmlns:sodipodi="http://sodipodi.sourceforge.net/DTD/sodipodi-0.dtd"
   xmlns:inkscape="http://www.inkscape.org/namespaces/inkscape"
   width="256"
   height="256"
   viewBox="0 0 67.733332 67.733335"
   version="1.1"
   id="svg8">
  <g
     inkscape:label="Lager 1"
     inkscape:groupmode="layer"
     id="layer1">
    <rect
       style="fill:#3465a4;stroke:none;stroke-width:4.99999"
       id="rect833"
       width="67.73333"
       height="67.73333"
       x="0"
       y="0" />
    <path
       style="fill:#204a87;stroke:none;stroke-width:7.90415"
       d="M 42.879127,20.656838 25.921064,28.553732 4.2165623,25.254072 16.521336,6.6436085 26.330007,-5.331923 34.8937,8.7466706 Z"
       transform="matrix(0,-0.63257782,-0.63257782,0,38.758716,54.505369)" />
    <path
       style="fill:#204a87;stroke:none;stroke-width:18.8976"
       d="M 234.90625 2.9960938 L 213.08789 50.691406 L 183.75781 103.2832 L 234.39062 111.5957 L 256 103.56055 L 256 34.109375 L 234.90625 2.9960938 z "
       transform="scale(0.26458333)" />
    <path
       style="fill:#204a87;stroke:none;stroke-width:4.99999"
       d="m 47.138684,30.767359 -8.302324,4.443169 -8.020827,-1.422298 0.167779,-6.271207 5.974992,-10.425652 4.672471,7.176404 z"
       transform="translate(12.24714,10.620367)" />
    <path
       style="fill:#204a87;stroke:none;stroke-width:4.99999"
       d="m 32.762722,48.909255 6.389404,-7.425658 11.76573,-4.270975 -1.792805,8.605016 2.141523,12.008559 -11.882175,-2.636474 z"
       transform="translate(12.24714,9.5620333)" />
    <path
       style="fill:#729fcf;stroke:none;stroke-width:7.90415"
       d="M 75.334714,51.99734 60.25061,53.081128 47.398594,52.48829 47.875902,43.386336 57.758992,27.523902 65.405837,36.980464 Z"
       transform="matrix(0,-0.63257782,-0.63257782,0,77.423916,66.883501)" />
    <path
       style="fill:#729fcf;stroke:none;stroke-width:7.90415"
       d="m 54.170178,74.717699 8.100431,-7.310403 16.848697,-7.085522 1.101369,15.333372 -3.350484,14.393341 -12.837882,-6.855369 z"
       transform="matrix(0,-0.63257782,-0.63257782,0,105.89155,53.008404)" />
  </g>
</svg>
