<?xml version="1.0" encoding="UTF-8" standalone="no"?>
<svg
   width="192"
   height="192"
   viewBox="0 0 192 192"
   version="1.1"
   id="svg11196"
   sodipodi:docname="water.svg"
   inkscape:version="1.2.2 (b0a8486541, 2022-12-01)"
   xmlns:inkscape="http://www.inkscape.org/namespaces/inkscape"
   xmlns:sodipodi="http://sodipodi.sourceforge.net/DTD/sodipodi-0.dtd"
   xmlns="http://www.w3.org/2000/svg"
   xmlns:svg="http://www.w3.org/2000/svg">
  <sodipodi:namedview
     id="namedview11198"
     pagecolor="#505050"
     bordercolor="#eeeeee"
     borderopacity="1"
     inkscape:showpageshadow="0"
     inkscape:pageopacity="0"
     inkscape:pagecheckerboard="0"
     inkscape:deskcolor="#d1d1d1"
     showgrid="false"
     inkscape:zoom="3.6875"
     inkscape:cx="114.98305"
     inkscape:cy="58.440678"
     inkscape:window-width="2560"
     inkscape:window-height="1403"
     inkscape:window-x="0"
     inkscape:window-y="0"
     inkscape:window-maximized="1"
     inkscape:current-layer="svg11196" />
  <defs
     id="defs11178">
    <!-- Symmetric diagonal gradient (balanced ends) to reduce visible seams when tiled -->
    <linearGradient
       id="waterGradient"
       x1="0"
       y1="0"
       x2="1"
       y2="1">
      <stop
         offset="0%"
         stop-color="#2568b0"
         id="stop11156" />
      <stop
         offset="50%"
         stop-color="#3d8fd6"
         id="stop11158" />
      <stop
         offset="100%"
         stop-color="#2568b0"
         id="stop11160" />
    </linearGradient>
    <!-- Gentle surface shimmer using a repeating pattern mask -->
    <pattern
       id="ripples"
       x="0"
       y="0"
       width="8"
       height="8"
       patternUnits="userSpaceOnUse">
      <!-- Drift the pattern diagonally for a calm animated surface -->
      <animate
         attributeName="x"
         from="0"
         to="8"
         dur="6s"
         repeatCount="indefinite" />
      <animate
         attributeName="y"
         from="0"
         to="8"
         dur="12s"
         repeatCount="indefinite" />
      <path
         d="M0 4 Q2 2 4 4 T8 4"
         fill="none"
         stroke="#ffffff"
         stroke-width="0.5"
         stroke-linecap="round"
         opacity="0.35"
         id="path11163" />
      <path
         d="M0 8 Q2 6 4 8 T8 8"
         fill="none"
         stroke="#ffffff"
         stroke-width="0.5"
         stroke-linecap="round"
         opacity="0.15"
         id="path11165" />
    </pattern>
    <mask
       id="rippleMask">
      <!-- Edge fade replaced with subtle uniform alpha to ensure seamless horizontal/vertical
			tiling -->
      <rect
         x="0"
         y="0"
         width="67.73333"
         height="67.733337"
         fill="#ffffff"
         opacity="0.92"
         id="rect11168" />
    </mask>
    <!-- Subtle caustic noise (kept minimal for performance) -->
    <filter
       id="caustics"
       x="0"
       y="0"
       width="1"
       height="1">
      <feTurbulence
         type="fractalNoise"
         baseFrequency="0.9"
         numOctaves="2"
         seed="7"
         result="noise"
         id="feTurbulence11171">
        <!-- Very gentle shimmer; long duration to limit CPU -->
        <animate
           attributeName="baseFrequency"
           values="0.9;0.95;0.9"
           dur="20s"
           repeatCount="indefinite" />
      </feTurbulence>
      <feColorMatrix
         in="noise"
         type="matrix"
         values="0 0 0 0 0.35  0 0 0 0 0.55  0 0 0 0 0.85  0 0 0 0.15 0"
         id="feColorMatrix11173" />
      <feBlend
         in="SourceGraphic"
         in2="noise"
         mode="normal"
         id="feBlend11175" />
    </filter>
  </defs>
  <rect
     style="fill:#729fcf;fill-opacity:1;stroke:none;stroke-width:4.99998"
     id="rect12124"
     width="64"
     height="64"
     x="64"
     y="64" />
  <!-- Base water fill -->
  <!-- Ripple overlay -->
  <!-- A few layered curved highlights & lowlights for depth -->
  <path
     id="path9683"
     style="color:#000000;opacity:0.32;fill:#ffffff;stroke-width:0.5;stroke-linejoin:round;-inkscape-stroke:none"
     d="M 70.431641,64 C 68.316501,64.814499 66.143926,65.654573 64,66.451172 v 5.542969 c 3.598095,-1.284573 7.302704,-2.780842 10.546875,-4 1.563493,-0.587565 2.840927,-1.00005 4.09375,-1.396485 -0.238439,0.807894 -0.417069,1.593548 -0.462891,2.357422 -0.126526,2.109284 1.124671,2.407448 2.931641,3.230469 1.80697,0.823019 3.625102,0.712965 5.582031,0.421875 1.95693,-0.291092 4.08047,-0.87018 6.316406,-1.589844 C 93.987311,70.702315 94.99085,70.354422 96,69.994141 c 3.598094,-1.284573 7.3027,-2.780842 10.54688,-4 1.56349,-0.587565 3.90664,-0.50209 5.15946,-0.898525 -0.23844,0.807894 -0.37392,3.065439 -0.41974,3.829313 -0.12652,2.109283 0.0158,4.437597 1.82278,5.260618 1.80697,0.823019 3.62705,0.712965 5.58398,0.421875 1.95693,-0.291092 4.07852,-0.87018 6.31445,-1.589844 0.9795,-0.315263 1.98304,-0.663156 2.99219,-1.023437 v -5.542969 c -1.57303,0.584479 -3.12721,1.145725 -4.58594,1.615234 -2.08525,0.671165 -3.99818,1.175125 -5.48633,1.396485 -1.4556,0.216519 -2.45059,0.06135 -2.62695,-0.0059 0.0268,-0.0356 0.0583,0.0113 0.0703,-0.189453 0.042,-0.699705 0.55014,-2.424434 1.9082,-4.878907 0.0685,-0.124588 0.12661,-0.25458 0.17384,-0.388671 H 102.43164 C 100.3165,64.814499 98.143926,65.654573 96,66.451172 c -1.573027,0.584479 -3.127208,1.145725 -4.585938,1.615234 -2.085251,0.671165 -3.998185,1.175125 -5.486328,1.396485 -1.455604,0.216519 -2.450596,0.06135 -2.626953,-0.0059 0.02683,-0.0356 0.05631,0.0113 0.06836,-0.189453 0.04197,-0.699705 0.550144,-2.424434 1.908203,-4.878907 C 85.345813,64.264083 85.40395,64.134091 85.451172,64 Z m -1.191407,10.453125 c -0.40378,-0.0018 -0.797344,0.03232 -1.191406,0.0918 -0.788123,0.118954 -1.579786,0.340236 -2.457031,0.583984 C 65.081338,75.270739 64.547556,75.435481 64,75.611328 v 5.519531 c 0.561277,-0.18624 1.10829,-0.364756 1.640625,-0.533203 -0.238439,0.807892 -0.417069,1.593544 -0.462891,2.357422 -0.126527,2.10928 1.124671,4.407449 2.931641,5.230469 1.80697,0.823019 3.625102,0.712965 5.582031,0.421875 1.956929,-0.291092 4.080471,-0.870181 6.316406,-1.589844 4.471873,-1.439326 9.385005,-3.46234 13.539063,-5.023437 C 94.446027,81.656239 95.24034,81.382927 96,81.130859 c 0.561276,-0.18624 1.108291,-0.364756 1.640625,-0.533203 -0.238439,0.807892 -0.415116,1.593544 -0.460937,2.357422 -0.126528,2.10928 1.122717,2.407449 2.929692,3.230469 1.80697,0.823019 3.62705,0.712965 5.58398,0.421875 1.95693,-0.291092 3.9966,-1.209237 6.31445,-1.589844 2.17559,-0.357245 9.38501,-1.46234 13.53907,-3.023437 0.89915,-0.337902 1.69346,-0.611214 2.45312,-0.863282 v -5.519531 c -1.33444,0.428555 -2.76738,0.944761 -4.28125,1.513672 -4.27009,1.604703 -9.13419,3.599079 -13.30469,4.941406 -2.08525,0.671163 -3.99818,1.175126 -5.48633,1.396485 -1.4556,0.216519 -2.45059,0.05946 -2.62695,-0.0078 0.0268,-0.03561 0.0583,0.01129 0.0703,-0.189453 0.042,-0.699703 0.55014,-2.422485 1.9082,-4.876953 3.32239,-4.466222 0.68858,-5.088943 -4.23047,-3.84375 -2.726018,0.790037 -6.027126,1.243719 -8.332026,2.580078 -3.577048,2.136962 -9.132233,5.599079 -13.302735,6.941406 -2.08525,0.671163 -3.998185,1.175126 -5.486328,1.396485 -1.455604,0.216519 -2.450596,0.05946 -2.626953,-0.0078 0.02683,-0.03561 0.05632,0.01129 0.06836,-0.189453 0.04197,-0.699703 0.550144,-4.422485 1.908203,-6.876953 0.855663,-1.547253 -0.04882,-3.47892 -1.785156,-3.8125 -0.435148,-0.08358 -0.848169,-0.121279 -1.25195,-0.123073 z m 24.143278,27.291165 c -2.085251,0.67116 -5.967635,-0.50276 -7.455778,-0.2814 -1.455604,0.21652 -2.450596,0.0614 -2.626953,-0.006 0.02683,-0.0356 0.05631,0.009 0.06836,-0.1914 0.04197,-0.69971 0.550144,-2.422486 1.908203,-4.876958 0.06847,-0.124588 0.126606,-0.254581 0.173828,-0.388672 0.53267,-1.500316 -0.395638,-3.122772 -1.958984,-3.423828 -0.435152,-0.08355 -0.848174,-0.121252 -1.251954,-0.123047 -0.403779,-0.002 -0.797344,0.03231 -1.191406,0.0918 -0.788122,0.118955 -1.579786,0.340234 -2.457031,0.583984 -1.754491,0.487532 -3.739955,1.193776 -5.875,1.996131 C 71.975893,95.40343 71.201486,95.703545 70.431641,96 68.316501,96.814499 66.143926,97.654573 64,98.451172 v 5.542968 c 3.598095,-1.28457 7.302704,-2.78084 10.546875,-3.999999 1.563493,-0.587565 2.840927,-1.00005 4.09375,-1.396485 -0.238439,0.807894 -0.417069,1.593544 -0.462891,2.357424 -0.126526,2.10928 1.124671,4.40745 2.931641,5.23047 1.80697,0.82302 3.625102,0.71296 5.582031,0.42187 1.95693,-0.29109 5.395444,-2.30369 5.395444,-2.30369 M 96,99.332434 c 5.39889,1.898476 9.59989,1.001596 14.64063,-0.734778 -0.23844,0.807894 -0.41707,1.593544 -0.4629,2.357424 -0.12652,2.10928 1.12467,4.40745 2.93165,5.23047 1.80697,0.82302 3.6251,0.71296 5.58203,0.42187 1.95693,-0.29109 4.08047,-0.87018 6.3164,-1.58984 0.9795,-0.31527 1.98304,-0.66316 2.99219,-1.02344 v -5.542968 c -1.57303,0.584479 -3.12721,1.145725 -4.58594,1.615238 -2.08525,0.67116 -3.99818,1.17512 -5.48633,1.39648 -1.4556,0.21652 -2.45059,0.0614 -2.62695,-0.006 0.0268,-0.0356 0.0563,0.009 0.0684,-0.1914 0.042,-0.69971 0.55015,-2.422486 1.9082,-4.876958 0.0685,-0.124548 0.12661,-0.254541 0.17383,-0.388632 h 0.002 c 0.53266,-1.500958 -0.39678,-3.123779 -1.96094,-3.423828 -0.43515,-0.08355 -0.84817,-0.121252 -1.25195,-0.123047 -0.40378,-0.002 -0.79734,0.03231 -1.1914,0.0918 -0.78813,0.118955 -1.57784,0.340234 -2.45508,0.583984 -1.75454,0.487492 -3.74196,1.193736 -5.877,1.996091 -0.74091,0.27843 -1.51532,0.578545 -2.28516,0.875 C 100.3165,96.814499 98.143926,98.535835 96,99.332434 m -26.759766,7.120696 c -0.40378,-0.002 -0.797344,0.0323 -1.191406,0.0918 -0.788123,0.11895 -1.579786,0.34023 -2.457031,0.58398 -0.510459,0.14183 -1.044241,0.30657 -1.591797,0.48242 v 5.51953 c 0.561277,-0.18624 1.10829,-0.36476 1.640625,-0.5332 -0.238439,0.80789 -0.417069,1.59354 -0.462891,2.35742 -0.126527,2.10928 1.124671,4.40745 2.931641,5.23047 1.80697,0.82302 3.625102,0.71296 5.582031,0.42187 1.956929,-0.29109 4.080471,-0.87018 6.316406,-1.58984 4.471873,-1.43933 9.385005,-3.46234 13.539063,-5.02344 0.899152,-0.3379 1.693465,-0.61121 2.453125,-0.86328 v -0.002 c 0.561276,-0.18624 1.108291,-0.3628 1.640625,-0.53125 -0.238439,0.80789 -0.417069,1.59354 -0.462891,2.35742 -0.126527,2.10928 1.124671,4.4055 2.931646,5.22852 1.80697,0.82302 3.6251,0.71296 5.58203,0.42187 1.95693,-0.29109 4.08047,-0.87018 6.3164,-1.58984 4.47188,-1.43933 9.38501,-3.46234 13.53907,-5.02344 0.89915,-0.33785 1.69346,-0.61117 2.45312,-0.86323 v -5.51758 c -1.33444,0.42855 -2.76934,0.94476 -4.2832,1.51367 -4.27009,1.6047 -9.13224,3.59908 -13.30274,4.94141 -2.08525,0.67116 -3.99818,1.17512 -5.48633,1.39648 -1.4556,0.21652 -2.45059,0.0595 -2.62695,-0.008 0.0268,-0.0356 0.0563,0.0113 0.0684,-0.18945 0.042,-0.69971 -0.60976,-2.7178 0.74829,-5.17227 0.85567,-1.54725 1.11109,-3.18361 -0.62524,-3.51719 -0.87031,-0.16709 -1.65524,-0.1502 -2.44336,-0.0312 -1.777188,0.90317 -5.85112,2.93329 -8.332033,4.58008 -3.885655,2.33461 -8.993675,5.01891 -13.540934,5.99832 -3.623321,0.78041 -6.903481,2.09908 -7.875082,-1.66823 0.02683,-0.0356 0.05632,0.0113 0.06836,-0.18945 0.04197,-0.6997 0.550144,-2.42248 1.908203,-4.87695 0.855663,-1.54726 -0.04882,-3.47892 -1.785156,-3.8125 -0.435151,-0.0836 -0.848173,-0.12125 -1.251953,-0.12305 z m 13,18 c -0.403779,-0.002 -0.797344,0.0323 -1.191406,0.0918 -0.788122,0.11895 -1.579786,0.34023 -2.457031,0.58398 -1.754491,0.48749 -3.739955,1.19373 -5.875,1.99609 -0.740904,0.27843 -1.515311,0.57854 -2.285156,0.875 h 15.019531 c 0.53267,-1.50032 -0.395638,-3.12277 -1.958984,-3.42383 -0.435152,-0.0836 -0.848174,-0.12125 -1.251954,-0.12304 z m 31.999996,0 c -0.40377,-0.002 -0.79734,0.0323 -1.1914,0.0918 -0.78812,0.11895 -1.57979,0.34023 -2.45703,0.58398 -1.75449,0.48749 -3.73996,1.19374 -5.875,1.99609 -0.74091,0.27843 -1.51532,0.57855 -2.28516,0.875 h 15.01953 c 0.53267,-1.50031 -0.39564,-3.12277 -1.95898,-3.42383 -0.43515,-0.0836 -0.84818,-0.12125 -1.25196,-0.12304 z"
     sodipodi:nodetypes="cccccsssssscssssccsscccccssscccccssscccsssssscsssssccssscccccsscsccscscccccccsscccscssscccssssccssccccccccsssccsscccssssscccsssssccsssccccccscsccsccssccccccssccccsc" />
</svg>
