<?xml version="1.0" encoding="UTF-8" standalone="no"?>
<svg
	xmlns="http://www.w3.org/2000/svg"
	width="64"
	height="64"
	viewBox="0 0 64 64"
	version="1.1"
>
	<defs>
		<!-- Symmetric diagonal gradient (balanced ends) to reduce visible seams when tiled -->
		<linearGradient id="waterGradient" x1="0%" y1="0%" x2="100%" y2="100%">
			<stop offset="0%" stop-color="#2568b0" />
			<stop offset="50%" stop-color="#3d8fd6" />
			<stop offset="100%" stop-color="#2568b0" />
		</linearGradient>
		<!-- Gentle surface shimmer using a repeating pattern mask -->
		<pattern id="ripples" x="0" y="0" width="8" height="8" patternUnits="userSpaceOnUse">
			<!-- Drift the pattern diagonally for a calm animated surface -->
			<animate attributeName="x" from="0" to="8" dur="6s" repeatCount="indefinite" />
			<animate attributeName="y" from="0" to="8" dur="12s" repeatCount="indefinite" />
			<path d="M0 4 Q2 2 4 4 T8 4" fill="none" stroke="#ffffff" stroke-width="0.5"
				stroke-linecap="round" opacity="0.35" />
			<path d="M0 8 Q2 6 4 8 T8 8" fill="none" stroke="#ffffff" stroke-width="0.5"
				stroke-linecap="round" opacity="0.15" />
		</pattern>
		<mask id="rippleMask">
			<!-- Edge fade replaced with subtle uniform alpha to ensure seamless horizontal/vertical
			tiling -->
			<rect x="0" y="0" width="67.733332" height="67.733335" fill="#ffffff" opacity="0.92" />
		</mask>
		<!-- Subtle caustic noise (kept minimal for performance) -->
		<filter id="caustics" x="0" y="0" width="1" height="1">
			<feTurbulence type="fractalNoise" baseFrequency="0.9" numOctaves="2" seed="7" result="noise">
				<!-- Very gentle shimmer; long duration to limit CPU -->
				<animate attributeName="baseFrequency" values="0.9;0.95;0.9" dur="20s"
					repeatCount="indefinite" />
			</feTurbulence>
			<feColorMatrix in="noise" type="matrix"
				values="0 0 0 0 0.35  0 0 0 0 0.55  0 0 0 0 0.85  0 0 0 0.15 0" />
			<feBlend in="SourceGraphic" in2="noise" mode="soft-light" />
		</filter>
	</defs>
	<!-- Base water fill -->
	<rect x="0" y="0" width="64" height="64" fill="url(#waterGradient)" />
	<!-- Ripple overlay -->
	<rect x="0" y="0" width="64" height="64" fill="url(#ripples)"
		mask="url(#rippleMask)" filter="url(#caustics)" />
	<!-- A few layered curved highlights & lowlights for depth -->
	<g stroke-linecap="round" stroke-linejoin="round" fill="none">
		<path d="M5 20 Q18 16 33 18 T62 15" stroke="#ffffff" stroke-width="0.8" opacity="0.25" />
		<path d="M4 34 Q18 31 30 32 T60 30" stroke="#ffffff" stroke-width="0.6" opacity="0.18" />
		<path d="M6 48 Q22 44 36 46 T61 44" stroke="#ffffff" stroke-width="0.7" opacity="0.22" />
		<path d="M3 26 Q16 22 32 24 T64 22" stroke="#143b63" stroke-width="1" opacity="0.20" />
		<path d="M5 40 Q20 37 37 38 T62 36" stroke="#143b63" stroke-width="0.9" opacity="0.18" />
	</g>
</svg>
